<svg width="32" height="29" viewBox="0 0 32 29" fill="none" xmlns="http://www.w3.org/2000/svg">
<path fill-rule="evenodd" clip-rule="evenodd" d="M27.5929 0.163564C27.3221 -0.0394976 26.9596 -0.057815 26.68 0.132931C25.6069 0.865108 22.4679 3.15433 15.1112 9.42128C10.8462 5.24287 8.84777 3.16841 8.13157 2.41047C7.92762 2.19463 7.62748 2.09709 7.3363 2.15532L7.27352 2.16788C6.95318 2.23195 6.69842 2.47486 6.61919 2.79179L6.61039 2.82698C6.5633 3.01534 6.45281 3.18175 6.29748 3.29824L6.11019 3.43871C5.85403 3.63083 5.51131 3.66173 5.22492 3.51853L4.54647 3.17931C4.22102 3.01658 3.82795 3.08037 3.57065 3.33766L2.81178 4.09653C2.62884 4.27948 2.54329 4.5356 2.61665 4.7837C2.9207 5.81199 4.16677 8.88442 9.10973 14.5681C3.76599 19.1356 1.34786 21.1163 0.332832 21.9269C-0.030617 22.2171 -0.109367 22.7481 0.16096 23.1265L0.389764 23.4469C0.593883 23.7327 0.600036 24.1149 0.405223 24.4072L0.294764 24.5728C0.0594299 24.9259 0.122189 25.3986 0.441473 25.678L1.25206 26.3872C1.4546 26.5645 1.72941 26.6347 1.99212 26.5763L2.51192 26.4608C2.97313 26.3583 3.3916 26.7549 3.31393 27.221C3.28279 27.4078 3.3326 27.599 3.4509 27.7469L3.47925 27.7823C3.79651 28.1789 4.41516 28.1758 4.74572 27.7902C5.80441 26.5553 8.33939 23.8166 13.4646 19.2957C17.5612 23.5975 19.1671 24.9286 19.754 25.3388C19.9432 25.4711 20.1704 25.4454 20.3595 25.313L21.7643 24.3297C22.0185 24.1517 22.3497 24.1273 22.6272 24.2661L23.8065 24.8557C24.1014 25.0032 24.4551 24.9657 24.7126 24.7597L24.9098 24.602C25.1694 24.3943 25.2625 24.0412 25.139 23.7325C25.0123 23.4157 25.114 23.0533 25.3869 22.8486L26.6483 21.9025C27.0708 21.5856 27.1056 20.9639 26.7209 20.6021C25.6843 19.6275 23.4947 17.5524 19.7591 13.9399C26.6608 8.2031 30.3705 5.40617 31.6732 4.45003C31.987 4.21975 32.0898 3.79784 31.9158 3.44972C31.7298 3.07788 31.2863 2.91541 30.9042 3.07918L30.5815 3.21748C30.2893 3.34271 29.9515 3.29342 29.7073 3.08989L29.1414 2.61834C28.9487 2.45772 28.8372 2.2198 28.8372 1.96891V1.51949C28.8372 1.25341 28.712 1.00285 28.4991 0.843198L27.5929 0.163564Z" fill="#8BC34A"/>
<path fill-rule="evenodd" clip-rule="evenodd" d="M15.0641 10.7751L14.4114 10.1356C10.3678 6.17414 8.35265 4.09524 7.53202 3.2316C7.41155 3.5758 7.19125 3.87792 6.89748 4.09825L6.71019 4.23871C6.15101 4.65809 5.40288 4.72555 4.77771 4.41296L4.19895 4.12358L3.63509 4.68744C3.98706 5.73042 5.28803 8.64984 9.8643 13.9119L10.5262 14.6729L9.75947 15.3282C4.55562 19.7762 2.11664 21.7792 1.04229 22.64L1.20353 22.8657C1.6491 23.4896 1.66253 24.324 1.23727 24.9619L1.20204 25.0147L1.85164 25.5831L2.29499 25.4846C3.24354 25.2738 4.11977 25.9074 4.29284 26.7873C5.52968 25.3857 8.0822 22.71 12.8031 18.5458L13.5249 17.909L14.1887 18.6061C17.7046 22.298 19.3412 23.7527 20.0483 24.3103L21.1909 23.5104C21.7457 23.1221 22.4687 23.0688 23.0744 23.3717L24.1449 23.9069C23.9607 23.2215 24.2082 22.4826 24.7869 22.0486L25.9064 21.2089C24.8187 20.1848 22.6538 18.1303 19.0639 14.6588L18.2624 13.8837L19.1199 13.1709C24.884 8.37968 28.4321 5.62995 30.2189 4.28561C29.8048 4.27892 29.3969 4.13293 29.0671 3.85812L28.5012 3.38656C28.0805 3.03595 27.8372 2.51658 27.8372 1.96891V1.59681L27.1097 1.05114C25.958 1.84935 22.8118 4.17505 15.7596 10.1825L15.0641 10.7751ZM31.2978 3.99847C31.2979 3.99842 31.298 3.99837 31.2981 3.99832L31.2369 3.85561L31.2981 3.99832L31.2978 3.99847ZM26.0483 21.1025L26.0481 21.1027ZM1.77519 25.6001C1.77536 25.6 1.77552 25.6 1.77569 25.6ZM4.09926 4.07374L4.09949 4.07385ZM15.1112 9.42128C10.8462 5.24287 8.84777 3.16841 8.13157 2.41047C7.92762 2.19463 7.62748 2.09709 7.3363 2.15532L7.27352 2.16788C6.95318 2.23195 6.69842 2.47486 6.61919 2.79179L6.61039 2.82698C6.5633 3.01534 6.45281 3.18175 6.29748 3.29824L6.11019 3.43871C5.85403 3.63083 5.51131 3.66173 5.22492 3.51853L4.54647 3.17931C4.22102 3.01658 3.82795 3.08037 3.57065 3.33766L2.81178 4.09653C2.62884 4.27948 2.54329 4.5356 2.61665 4.7837C2.90688 5.76526 4.05545 8.60936 8.45843 13.8093C8.66807 14.0569 8.88508 14.3098 9.10973 14.5681C8.84935 14.7906 8.59591 15.0071 8.34925 15.2175C3.53367 19.3258 1.2984 21.1558 0.332832 21.9269C-0.0306169 22.2171 -0.109367 22.7481 0.16096 23.1265L0.389764 23.4469C0.593883 23.7327 0.600036 24.1149 0.405223 24.4072L0.294764 24.5728C0.0594299 24.9258 0.122189 25.3986 0.441473 25.678L1.25206 26.3872C1.4546 26.5645 1.72941 26.6347 1.99212 26.5763L2.51192 26.4608C2.97313 26.3583 3.3916 26.7549 3.31393 27.221C3.28279 27.4078 3.3326 27.599 3.4509 27.7469L3.47925 27.7823C3.79651 28.1789 4.41516 28.1758 4.74572 27.7902C5.80441 26.5553 8.33939 23.8166 13.4646 19.2957C17.5612 23.5975 19.1671 24.9286 19.754 25.3388C19.9432 25.4711 20.1704 25.4454 20.3595 25.313L21.7643 24.3297C22.0185 24.1517 22.3497 24.1273 22.6272 24.2661L23.8065 24.8557C24.1014 25.0032 24.4551 24.9657 24.7126 24.7597L24.9098 24.602C25.1694 24.3943 25.2625 24.0412 25.139 23.7325C25.0123 23.4157 25.114 23.0533 25.3869 22.8486L26.6483 21.9025C27.0708 21.5856 27.1056 20.9639 26.7209 20.6021C25.7531 19.6922 23.7802 17.823 20.4825 14.639C20.2481 14.4127 20.007 14.1797 19.7591 13.9399C20.0218 13.7216 20.2799 13.5075 20.5333 13.2976C26.9397 7.99285 30.4201 5.36978 31.6732 4.45003C31.987 4.21975 32.0898 3.79784 31.9158 3.44972C31.7298 3.07788 31.2863 2.91541 30.9042 3.07918L30.5815 3.21748C30.2893 3.34271 29.9515 3.29342 29.7073 3.08989L29.1414 2.61834C28.9487 2.45772 28.8372 2.21979 28.8372 1.96891V1.51949C28.8372 1.25341 28.712 1.00285 28.4991 0.843198L27.5929 0.163564C27.3221 -0.0394976 26.9596 -0.057815 26.68 0.132931C25.6069 0.865108 22.4679 3.15433 15.1112 9.42128Z" fill="white"/>
</svg>
