<svg width="24" height="32" viewBox="0 0 24 32" fill="none" xmlns="http://www.w3.org/2000/svg">
<path d="M24 11.84C24 18.3791 15.3859 32 12 32C8.61405 32 0 18.3791 0 11.84C0 5.30095 5.37258 0 12 0C18.6274 0 24 5.30095 24 11.84Z" fill="#F5D83A"/>
<mask id="mask0_1751_34875" style="mask-type:alpha" maskUnits="userSpaceOnUse" x="0" y="0" width="24" height="32">
<path d="M23.5 11.84C23.5 13.3823 22.9877 15.3911 22.1356 17.5663C21.2874 19.7315 20.1187 22.0211 18.8429 24.1117C17.5662 26.2039 16.1917 28.0815 14.9375 29.4289C14.3097 30.1034 13.7231 30.6329 13.2042 30.9901C12.6726 31.3561 12.2708 31.5 12 31.5C11.7292 31.5 11.3274 31.3561 10.7958 30.9901C10.2769 30.6329 9.69035 30.1034 9.06254 29.4289C7.80834 28.0815 6.43382 26.2039 5.15708 24.1117C3.88133 22.0211 2.71262 19.7315 1.8644 17.5663C1.01228 15.3911 0.5 13.3823 0.5 11.84C0.5 5.5834 5.64238 0.5 12 0.5C18.3576 0.5 23.5 5.5834 23.5 11.84Z" fill="#F26D5B" stroke="#333847"/>
</mask>
<g mask="url(#mask0_1751_34875)">
<path d="M11.5 0.5L16 1L22 6L23.5 12.5L21 20L15.5 29L12 31.5L11 31C11 31 17.5 25 19 19C21.1505 10.3982 19.9027 4.70137 11.5 0.5Z" fill="black" fill-opacity="0.2"/>
</g>
<path fill-rule="evenodd" clip-rule="evenodd" d="M21.67 17.3839C22.5138 15.23 23 13.2898 23 11.84C23 5.86585 18.0878 1 12 1C5.91217 1 1 5.86585 1 11.84C1 13.2898 1.48619 15.23 2.32996 17.3839C3.16592 19.5179 4.32078 21.7813 5.58389 23.8512C6.84898 25.9244 8.20383 27.7725 9.42853 29.0882C10.0423 29.7476 10.6011 30.2491 11.0793 30.5783C11.5831 30.9251 11.8816 31 12 31C12.1184 31 12.4169 30.9251 12.9207 30.5783C13.3989 30.2491 13.9577 29.7476 14.5715 29.0882C15.7962 27.7725 17.151 25.9244 18.4161 23.8512C19.6792 21.7813 20.8341 19.5179 21.67 17.3839ZM12 32C15.3859 32 24 18.3791 24 11.84C24 5.30095 18.6274 0 12 0C5.37258 0 0 5.30095 0 11.84C0 18.3791 8.61405 32 12 32Z" fill="#FAF9FD"/>
<path d="M18.8108 11.2C18.8108 14.9113 15.7615 17.92 12 17.92C8.23851 17.92 5.18921 14.9113 5.18921 11.2C5.18921 7.48863 8.23851 4.47998 12 4.47998C15.7615 4.47998 18.8108 7.48863 18.8108 11.2Z" fill="#FAF9FD"/>
<mask id="mask1_1751_34875" style="mask-type:alpha" maskUnits="userSpaceOnUse" x="5" y="4" width="14" height="14">
<path d="M18.8108 11.2C18.8108 14.9113 15.7615 17.92 12 17.92C8.23851 17.92 5.18921 14.9113 5.18921 11.2C5.18921 7.48863 8.23851 4.47998 12 4.47998C15.7615 4.47998 18.8108 7.48863 18.8108 11.2Z" fill="#FAF9FD"/>
</mask>
<g mask="url(#mask1_1751_34875)">
<path d="M15.5 6.5L19 10L17.5 17H10.5C10.5 17 13 15.5 14.5 12C16 8.5 15.5 6.5 15.5 6.5Z" fill="black" fill-opacity="0.1"/>
</g>
<path fill-rule="evenodd" clip-rule="evenodd" d="M12 16.92C15.2219 16.92 17.8108 14.3464 17.8108 11.2C17.8108 8.05352 15.2219 5.47998 12 5.47998C8.7781 5.47998 6.18921 8.05352 6.18921 11.2C6.18921 14.3464 8.7781 16.92 12 16.92ZM12 17.92C15.7615 17.92 18.8108 14.9113 18.8108 11.2C18.8108 7.48863 15.7615 4.47998 12 4.47998C8.23851 4.47998 5.18921 7.48863 5.18921 11.2C5.18921 14.9113 8.23851 17.92 12 17.92Z" fill="#333847"/>
<path fill-rule="evenodd" clip-rule="evenodd" d="M9.47436 2.84195C9.56157 3.10359 9.42046 3.38636 9.15914 3.47407C9.1588 3.47418 9.15847 3.4743 9.15813 3.47441L9.00001 3.00007C9.15813 3.47441 9.158 3.47445 9.15813 3.47441C9.15847 3.4743 9.1588 3.47418 9.15914 3.47407C9.15913 3.47407 9.15922 3.47404 9.15914 3.47407C9.1588 3.47418 9.15847 3.4743 9.15813 3.47441L9.15001 3.47726C9.14175 3.48019 9.12807 3.48514 9.10933 3.49222C9.07184 3.50638 9.01416 3.52906 8.93916 3.5612C8.78909 3.62552 8.57018 3.72751 8.30534 3.87465C7.77512 4.16921 7.0646 4.64259 6.35357 5.35362C5.64254 6.06465 5.16916 6.77517 4.87459 7.30539C4.72746 7.57023 4.62547 7.78914 4.56115 7.93921C4.52901 8.01421 4.50633 8.0719 4.49217 8.10938C4.48509 8.12812 4.48014 8.1418 4.47721 8.15006L4.47436 8.15818L4.00001 8.00007C3.52567 7.84195 3.52572 7.84181 3.52577 7.84166L3.52614 7.84056L3.52679 7.83862L3.52868 7.83311L3.53478 7.81565C3.53991 7.8012 3.54717 7.78119 3.55669 7.75598C3.57573 7.70558 3.60383 7.63436 3.642 7.54529C3.71831 7.36724 3.83507 7.1174 4.00044 6.81974C4.33087 6.22496 4.85749 5.43548 5.64646 4.64651C6.43543 3.85755 7.22491 3.33092 7.81969 3.00049C8.11735 2.83512 8.36719 2.71836 8.54524 2.64206C8.63431 2.60389 8.70553 2.57579 8.75593 2.55674C8.78114 2.54722 8.80115 2.53996 8.8156 2.53483L8.83306 2.52873L8.83857 2.52684L8.84051 2.52619L8.84161 2.52582C8.84176 2.52577 8.8419 2.52572 9.00001 3.00007L8.84161 2.52582C9.10358 2.4385 9.38703 2.57998 9.47436 2.84195ZM4.47436 8.15818C4.47433 8.15827 4.47439 8.15809 4.47436 8.15818ZM4.47436 8.15818C4.38693 8.41998 4.10379 8.5617 3.8419 8.47441C3.57993 8.38708 3.43845 8.10363 3.52577 7.84166L4.00001 8.00007" fill="#FAF9FD"/>
</svg>
