<svg viewBox="0 0 39 32" fill="none" xmlns="http://www.w3.org/2000/svg">
<path d="M28.0772 26.8864C28.4706 26.6874 28.9213 26.6374 29.3479 26.7453L35.8038 28.3786C36.8831 28.6516 37.9102 27.7762 37.8278 26.6535L30.8579 24.8225L29.5137 24.4694C29.269 24.4051 29.0158 24.393 28.7697 24.4314C28.5892 24.4596 28.4125 24.515 28.2457 24.5971L24.2162 26.5785L20.1868 28.56C19.9209 28.6907 19.6318 28.7531 19.3438 28.7471C19.0791 28.7416 18.8153 28.6784 18.5714 28.5575L10.5883 24.6015C10.3466 24.4817 10.0838 24.4179 9.81865 24.412C9.64869 24.4082 9.47778 24.4282 9.31084 24.4725L0.925936 26.6976C0.845188 27.7986 1.85246 28.6571 2.91085 28.3893L9.4091 26.7453C9.83574 26.6374 10.2865 26.6874 10.6798 26.8864L18.5546 30.871C19.0733 31.1334 19.6837 31.1334 20.2024 30.871L28.0772 26.8864Z" fill="#FBDFBF"/>
<path d="M30.8579 24.8225L37.8278 26.6535L37.4257 21.1704C33.5015 21.489 32.1169 22.343 30.8579 24.8225Z" fill="#57C034"/>
<path d="M10.2645 1.66308L3.853 3.46329C3.10389 3.67362 2.56587 4.33719 2.50833 5.12174L1.94659 12.781C5.26472 12.5334 8.06698 12.5105 10.4504 12.752L11.0536 1.61953C10.793 1.57652 10.5238 1.5903 10.2645 1.66308Z" fill="#77BFD6"/>
<path d="M0.925936 26.6976L9.31084 24.4725C9.47778 24.4282 9.64869 24.4082 9.81865 24.412L10.4504 12.752C8.06698 12.5105 5.26472 12.5334 1.94659 12.781L0.925936 26.6976Z" fill="#4B9E2F"/>
<path fill-rule="evenodd" clip-rule="evenodd" d="M19.3438 16.3612C17.2471 14.297 14.4337 13.1554 10.4504 12.752L11.0536 1.61953C11.2613 1.6538 11.4635 1.72412 11.6509 1.82938L18.4846 5.66685C18.7522 5.81709 19.0474 5.89503 19.3438 5.90068L19.3438 16.3612ZM28.7697 24.4314C29.0158 24.393 29.269 24.4051 29.5137 24.4694L30.8579 24.8225C32.1169 22.343 33.5015 21.489 37.4257 21.1704L36.8788 13.7132C32.9238 14.9103 30.2585 14.8417 28.2016 13.0279L28.7697 24.4314Z" fill="#85E2FF"/>
<path d="M24.2162 26.5785L28.2457 24.5971C28.4125 24.515 28.5892 24.4596 28.7697 24.4314L28.2016 13.0279C26.3773 11.4191 25.0316 8.43735 23.6892 3.74812L20.2724 5.66685C19.9839 5.82883 19.6632 5.90678 19.3438 5.90068L19.3438 16.3612C21.6193 18.6016 23.0504 21.9288 24.2162 26.5785Z" fill="#77BFD6"/>
<path fill-rule="evenodd" clip-rule="evenodd" d="M9.81865 24.412L10.4504 12.752C14.4337 13.1554 17.2471 14.297 19.3438 16.3612L19.3438 28.7471C19.0791 28.7416 18.8153 28.6784 18.5714 28.5575L10.5883 24.6015C10.3466 24.4817 10.0838 24.4179 9.81865 24.412Z" fill="#57C034"/>
<path d="M20.1868 28.56L24.2162 26.5785C23.0504 21.9288 21.6193 18.6016 19.3438 16.3612L19.3438 28.7471C19.6318 28.7531 19.9209 28.6907 20.1868 28.56Z" fill="#4B9E2F"/>
<path fill-rule="evenodd" clip-rule="evenodd" d="M28.4925 1.66308L34.904 3.46329C35.6531 3.67362 36.1911 4.33719 36.2487 5.12174L36.8788 13.7132C32.9238 14.9103 30.2585 14.8417 28.2016 13.0279L27.6339 1.63238C27.916 1.57453 28.2101 1.58381 28.4925 1.66308Z" fill="#57C034"/>
<path d="M27.1061 1.82938L23.6892 3.74812C25.0316 8.43735 26.3773 11.4191 28.2016 13.0279L27.6339 1.63238C27.4507 1.66997 27.2725 1.7359 27.1061 1.82938Z" fill="#4B9E2F"/>
<path fill-rule="evenodd" clip-rule="evenodd" d="M0.925769 26.6976L2.50817 5.12177C2.56571 4.33721 3.10372 3.67365 3.85283 3.46331L10.2644 1.66311C10.7302 1.53232 11.2281 1.59205 11.6508 1.82941L18.4844 5.66687C19.0404 5.97909 19.7162 5.97909 20.2722 5.66687L27.1059 1.82941C27.5286 1.59205 28.0265 1.53232 28.4923 1.66311L34.9038 3.46331C35.6529 3.67365 36.191 4.33721 36.2485 5.12176L37.8277 26.6536C37.91 27.7763 36.8829 28.6516 35.8036 28.3786L29.3477 26.7453C28.9211 26.6374 28.4704 26.6874 28.077 26.8865L20.2022 30.871C19.6836 31.1334 19.0731 31.1334 18.5545 30.871L10.6796 26.8865C10.2863 26.6874 9.83557 26.6374 9.40893 26.7453L2.91068 28.3893C1.85229 28.6571 0.845021 27.7986 0.925769 26.6976ZM3.60656 2.56509L10.0181 0.764889C10.7168 0.568708 11.4637 0.6583 12.0977 1.01434L18.9314 4.85181C19.2094 5.00792 19.5473 5.00792 19.8253 4.85181L26.6589 1.01434C27.293 0.658299 28.0399 0.568709 28.7386 0.76489L35.1501 2.56509C36.2738 2.88059 37.0808 3.87594 37.1671 5.05277L38.7463 26.5846C38.8751 28.3407 37.2684 29.71 35.5802 29.2829L29.1243 27.6496C28.911 27.5957 28.6857 27.6207 28.489 27.7202L20.6142 31.7047C19.8362 32.0984 18.9205 32.0984 18.1425 31.7047L10.2677 27.7202C10.071 27.6207 9.84566 27.5957 9.63234 27.6496L3.13409 29.2936C1.46676 29.7155 -0.12004 28.3631 0.0071663 26.6286L1.58956 5.05277C1.67587 3.87594 2.4829 2.88059 3.60656 2.56509Z" fill="#2F3341"/>
<path d="M6.57102 17.1962C6.75345 16.6585 7.37578 16.4224 7.86742 16.7043L14.7247 20.6367C15.1169 20.8616 15.2272 21.3811 14.9601 21.7452V21.7452C14.742 22.0424 14.3417 22.1351 14.0148 21.9642L7.01283 18.3024C6.61431 18.094 6.4262 17.623 6.57102 17.1962V17.1962Z" fill="white"/>
<path d="M7.95469 22.7796C7.61664 22.4371 7.59257 21.8908 7.89922 21.5208L13.0139 15.3493C13.2525 15.0614 13.6721 15.0124 13.9704 15.2376V15.2376C14.2815 15.4724 14.3457 15.9176 14.1137 16.2313L9.3458 22.6809C9.00962 23.1357 8.35224 23.1823 7.95469 22.7796V22.7796Z" fill="white"/>
<path d="M11.6958 18.2512L17.1979 8.60731C17.4016 8.25013 17.3762 7.8483 17.1979 7.53577L10.7787 10.2146V18.787C11.1353 18.787 11.492 18.6084 11.6958 18.2512Z" fill="#8F191B"/>
<path fill-rule="evenodd" clip-rule="evenodd" d="M10.7787 18.787C10.4221 18.7869 10.0655 18.6084 9.86177 18.2512L4.3597 8.60731C4.15592 8.25013 4.18139 7.8483 4.3597 7.53577L10.7787 10.2146V18.787Z" fill="#EF2A2D"/>
<path d="M16.2809 7L5.27671 7C4.86915 7 4.53801 7.22324 4.3597 7.53577L10.7787 10.2146L17.1979 7.53577C17.0196 7.22324 16.6884 7 16.2809 7Z" fill="#F79496"/>
</svg>
