<svg width="60" height="57" viewBox="0 0 60 57" fill="none" xmlns="http://www.w3.org/2000/svg">
<path d="M58.2653 47.6799L56.097 16.4576C55.992 14.9452 54.9252 13.6723 53.4543 13.3046L43.5638 10.832C42.7721 10.634 41.9361 10.719 41.2004 11.0721L30.1696 16.3669C30.0395 16.4294 29.8888 16.4326 29.7562 16.3758L17.2445 11.0136C16.5046 10.6965 15.6781 10.6441 14.9042 10.8652L6.43651 13.2846C5.01996 13.6893 4.0085 14.9378 3.90644 16.4075L1.74621 47.5147C1.55854 50.2171 4.38011 52.0992 6.80305 50.8877L15.5124 46.5331C15.6886 46.445 15.9001 46.4685 16.0526 46.5933L24.9777 53.8957C26.1066 54.8193 27.6901 54.946 28.9515 54.2136L42.3665 46.4242C42.5057 46.3434 42.6752 46.3345 42.8221 46.4004L53.342 51.1162C55.7542 52.1975 58.4484 50.317 58.2653 47.6799Z" fill="#85E2FF" stroke="black" stroke-width="3"/>
<path d="M57.7665 47.7146L55.5982 16.4923C55.5082 15.1959 54.5938 14.1048 53.3331 13.7897L43.4426 11.317C42.7639 11.1474 42.0474 11.2202 41.4168 11.5229L30.3859 16.8177C30.1258 16.9426 29.8245 16.949 29.5593 16.8353L17.0475 11.4731C16.4134 11.2014 15.7049 11.1565 15.0416 11.346L6.57387 13.7653C5.35968 14.1123 4.49272 15.1824 4.40524 16.4421L2.24501 47.5494C2.08415 49.8657 4.50264 51.4789 6.57944 50.4405L15.2887 46.0858C15.6412 45.9096 16.0642 45.9568 16.3692 46.2063L25.2943 53.5087C26.262 54.3004 27.6192 54.409 28.7004 53.7812L42.1154 45.9918C42.3938 45.8302 42.7329 45.8125 43.0266 45.9441L53.5465 50.6599C55.6141 51.5868 57.9234 49.9749 57.7665 47.7146Z" fill="#85E2FF" stroke="#FBDFBF" stroke-width="2"/>
<mask id="mask0_714_8625" style="mask-type:alpha" maskUnits="userSpaceOnUse" x="3" y="12" width="54" height="42">
<path d="M5.40283 16.5114C5.46116 15.6715 6.03913 14.9581 6.84859 14.7269L15.3163 12.3075C15.7585 12.1812 16.2308 12.2111 16.6536 12.3923L29.1653 17.7545C29.6957 17.9818 30.2984 17.9689 30.8186 17.7192L41.8495 12.4244C42.2699 12.2226 42.7476 12.1741 43.2 12.2872L53.0905 14.7598C53.931 14.9699 54.5406 15.6973 54.6007 16.5615L56.7689 47.7839C56.8735 49.2908 55.3339 50.3653 53.9556 49.7474L43.4357 45.0316C42.8482 44.7683 42.17 44.8038 41.6133 45.1271L28.1983 52.9164C27.4775 53.3349 26.5727 53.2625 25.9276 52.7347L17.0024 45.4324C16.3925 44.9333 15.5464 44.839 14.8415 45.1914L6.13223 49.5461C4.7477 50.2383 3.13537 49.1629 3.24261 47.6187L5.40283 16.5114Z" fill="#D9D9D9"/>
</mask>
<g mask="url(#mask0_714_8625)">
<path d="M70.5 10.6122C70.5 18.068 59.3366 30.1122 50.5 30.1122C41.6634 30.1122 38.5 18.068 38.5 10.6122C38.5 3.15634 45.6634 -2.88782 54.5 -2.88782C63.3366 -2.88782 70.5 3.15634 70.5 10.6122Z" fill="#57C034"/>
<path d="M73.5 53.6122C73.5 61.068 62.3366 73.1122 53.5 73.1122C44.6634 73.1122 41.5 61.068 41.5 53.6122C41.5 46.1563 48.6634 40.1122 57.5 40.1122C66.3366 40.1122 73.5 46.1563 73.5 53.6122Z" fill="#57C034"/>
<path d="M35 51.1122C35 58.5681 20.3366 62.1123 11.5 62.1123C2.66348 62.1123 -9.99996 36.5681 -9.99996 29.1123C-9.99996 21.6564 -17.5 30.1124 0.500038 25.6124C21.5 24.1122 38.5 39.1122 35 51.1122Z" fill="#57C034"/>
<mask id="mask1_714_8625" style="mask-type:alpha" maskUnits="userSpaceOnUse" x="3" y="12" width="54" height="42">
<path d="M53.6031 16.6308L55.7713 47.8531C55.8236 48.6066 55.0538 49.1439 54.3646 48.8349L43.8447 44.1191C42.9636 43.7241 41.9462 43.7774 41.1111 44.2623L27.6962 52.0516C27.3358 52.2609 26.8834 52.2247 26.5608 51.9608L17.6357 44.6584C16.7208 43.9099 15.4516 43.7683 14.3943 44.297L5.68501 48.6516C4.99275 48.9978 4.18658 48.4601 4.2402 47.6879L6.40043 16.5806C6.42959 16.1607 6.71858 15.804 7.12331 15.6884L15.591 13.2691C15.8121 13.2059 16.0483 13.2208 16.2597 13.3114L28.7714 18.6736C29.567 19.0146 30.4711 18.9953 31.2514 18.6208L42.2822 13.326C42.4924 13.2251 42.7313 13.2008 42.9575 13.2573L52.848 15.73C53.2682 15.835 53.573 16.1987 53.6031 16.6308Z" fill="#D9D9D9" stroke="#FBE6BE" stroke-width="2"/>
</mask>
<g mask="url(#mask1_714_8625)">
<path d="M4 13.6122L16.5 10.1122L15.5 46.6122L1.5 52.6122L4 13.6122Z" fill="black" fill-opacity="0.25"/>
<path d="M30 15.1122L43 10.1122L42.5 47.6122L28 54.6122L30 15.1122Z" fill="black" fill-opacity="0.25"/>
</g>
<g filter="url(#filter0_d_714_8625)">
<path d="M37.3852 22.0786C37.6891 21.1729 38.7436 20.7691 39.5747 21.2401L51.7251 28.1253C52.3861 28.4999 52.5678 29.3698 52.112 29.9776V29.9776C51.7424 30.4704 51.0707 30.6237 50.5239 30.3401L38.1262 23.9108C37.4615 23.5661 37.147 22.7885 37.3852 22.0786V22.0786Z" fill="white"/>
<path d="M40.0766 31.9252C39.4522 31.3073 39.4065 30.3138 39.9714 29.6412L48.6881 19.2641C49.1275 18.741 49.8992 18.6524 50.4458 19.0623V19.0623C51.0129 19.4877 51.1293 20.2915 50.7062 20.8602L42.6165 31.7331C42.0043 32.556 40.8056 32.6466 40.0766 31.9252V31.9252Z" fill="white"/>
</g>
</g>
<g filter="url(#filter1_d_714_8625)">
<path d="M45.9866 22.691C45.6035 23.3664 44.6302 23.3664 44.2471 22.6909L35.6577 7.54943C35.2795 6.88279 35.761 6.05602 36.5275 6.05602L53.7062 6.05602C54.4726 6.05602 54.9542 6.88279 54.576 7.54943L45.9866 22.691Z" fill="#EF2A2D"/>
<mask id="mask2_714_8625" style="mask-type:alpha" maskUnits="userSpaceOnUse" x="35" y="6" width="20" height="18">
<path d="M45.9866 22.691C45.6035 23.3664 44.6302 23.3664 44.2471 22.6909L35.6577 7.54943C35.2795 6.88279 35.761 6.05602 36.5275 6.05602L53.7062 6.05602C54.4726 6.05602 54.9542 6.88279 54.576 7.54943L45.9866 22.691Z" fill="#EF2A2D"/>
</mask>
<g mask="url(#mask2_714_8625)">
<path d="M33.1264 5.3236L44.6878 10.7744C44.9593 10.9024 45.274 10.9017 45.5449 10.7725L56.6749 5.46255C56.815 5.39574 56.8175 5.19731 56.6792 5.12694C56.6571 5.11566 56.6329 5.10891 56.6081 5.1071L33.6259 3.42176C32.5205 3.34069 32.1238 4.8509 33.1264 5.3236Z" fill="white" fill-opacity="0.5"/>
</g>
<mask id="mask3_714_8625" style="mask-type:alpha" maskUnits="userSpaceOnUse" x="35" y="6" width="20" height="18">
<path d="M45.9866 22.691C45.6035 23.3664 44.6302 23.3664 44.2471 22.6909L35.6577 7.54943C35.2795 6.88279 35.761 6.05602 36.5275 6.05602L53.7062 6.05602C54.4726 6.05602 54.9542 6.88279 54.576 7.54943L45.9866 22.691Z" fill="#EF2A2D"/>
</mask>
<g mask="url(#mask3_714_8625)">
<path d="M45.1168 11.6075V24.1589C45.1168 25.2063 46.5227 25.549 47.0047 24.6191L55.6463 7.94496C56.0875 7.09353 55.1934 6.16934 54.3278 6.58227L45.6862 10.705C45.3383 10.871 45.1168 11.2221 45.1168 11.6075Z" fill="black" fill-opacity="0.4"/>
</g>
</g>
<defs>
<filter id="filter0_d_714_8625" x="36.306" y="18.8048" width="17.0581" height="15.6083" filterUnits="userSpaceOnUse" color-interpolation-filters="sRGB">
<feFlood flood-opacity="0" result="BackgroundImageFix"/>
<feColorMatrix in="SourceAlpha" type="matrix" values="0 0 0 0 0 0 0 0 0 0 0 0 0 0 0 0 0 0 127 0" result="hardAlpha"/>
<feOffset dy="1"/>
<feGaussianBlur stdDeviation="0.5"/>
<feComposite in2="hardAlpha" operator="out"/>
<feColorMatrix type="matrix" values="0 0 0 0 0 0 0 0 0 0 0 0 0 0 0 0 0 0 0.25 0"/>
<feBlend mode="normal" in2="BackgroundImageFix" result="effect1_dropShadow_714_8625"/>
<feBlend mode="normal" in="SourceGraphic" in2="effect1_dropShadow_714_8625" result="shape"/>
</filter>
<filter id="filter1_d_714_8625" x="33.526" y="6.05603" width="23.1816" height="24.1415" filterUnits="userSpaceOnUse" color-interpolation-filters="sRGB">
<feFlood flood-opacity="0" result="BackgroundImageFix"/>
<feColorMatrix in="SourceAlpha" type="matrix" values="0 0 0 0 0 0 0 0 0 0 0 0 0 0 0 0 0 0 127 0" result="hardAlpha"/>
<feOffset dy="5"/>
<feGaussianBlur stdDeviation="1"/>
<feComposite in2="hardAlpha" operator="out"/>
<feColorMatrix type="matrix" values="0 0 0 0 0 0 0 0 0 0 0 0 0 0 0 0 0 0 0.25 0"/>
<feBlend mode="normal" in2="BackgroundImageFix" result="effect1_dropShadow_714_8625"/>
<feBlend mode="normal" in="SourceGraphic" in2="effect1_dropShadow_714_8625" result="shape"/>
</filter>
</defs>
</svg>
