<svg width="32" height="29" viewBox="0 0 32 29" fill="none" xmlns="http://www.w3.org/2000/svg">
<path fill-rule="evenodd" clip-rule="evenodd" d="M27.5929 0.402334C27.3221 0.199272 26.9596 0.180955 26.68 0.371701C25.6069 1.10388 22.4679 3.3931 15.1112 9.66005C10.8462 5.48164 8.84777 3.40718 8.13157 2.64924C7.92762 2.4334 7.62748 2.33586 7.3363 2.39409L7.27352 2.40665C6.95318 2.47072 6.69842 2.71363 6.61919 3.03056L6.61039 3.06575C6.5633 3.25411 6.45281 3.42052 6.29748 3.53701L6.11019 3.67748C5.85403 3.8696 5.51131 3.9005 5.22492 3.7573L4.54647 3.41808C4.22102 3.25535 3.82795 3.31914 3.57065 3.57643L2.81178 4.3353C2.62884 4.51824 2.54329 4.77437 2.61665 5.02247C2.9207 6.05076 4.16677 9.12319 9.10973 14.8069C3.76599 19.3744 1.34786 21.3551 0.332832 22.1657C-0.030617 22.4559 -0.109367 22.9868 0.16096 23.3653L0.389764 23.6857C0.593883 23.9715 0.600036 24.3537 0.405223 24.6459L0.294764 24.8116C0.0594299 25.1646 0.122189 25.6374 0.441473 25.9167L1.25206 26.626C1.4546 26.8032 1.72941 26.8734 1.99212 26.815L2.51192 26.6995C2.97313 26.597 3.3916 26.9937 3.31393 27.4597C3.28279 27.6465 3.3326 27.8378 3.4509 27.9857L3.47925 28.0211C3.79651 28.4177 4.41516 28.4145 4.74572 28.0289C5.80441 26.7941 8.33939 24.0554 13.4646 19.5345C17.5612 23.8362 19.1671 25.1673 19.754 25.5776C19.9432 25.7098 20.1704 25.6842 20.3595 25.5518L21.7643 24.5684C22.0185 24.3905 22.3497 24.3661 22.6272 24.5049L23.8065 25.0945C24.1014 25.2419 24.4551 25.2045 24.7126 24.9985L24.9098 24.8407C25.1694 24.633 25.2625 24.2799 25.139 23.9712C25.0123 23.6545 25.114 23.292 25.3869 23.0873L26.6483 22.1413C27.0708 21.8244 27.1056 21.2027 26.7209 20.8409C25.6843 19.8663 23.4947 17.7911 19.7591 14.1787C26.6608 8.44187 30.3705 5.64494 31.6732 4.6888C31.987 4.45852 32.0898 4.03661 31.9158 3.68849C31.7298 3.31665 31.2863 3.15418 30.9042 3.31794L30.5815 3.45625C30.2893 3.58148 29.9515 3.53219 29.7073 3.32866L29.1414 2.8571C28.9487 2.69649 28.8372 2.45856 28.8372 2.20768V1.75826C28.8372 1.49218 28.712 1.24162 28.4991 1.08197L27.5929 0.402334Z" fill="#FB923C"/>
<path fill-rule="evenodd" clip-rule="evenodd" d="M15.0641 11.0138L14.4114 10.3744C10.3678 6.41291 8.35265 4.33401 7.53202 3.47037C7.41155 3.81457 7.19125 4.11669 6.89748 4.33702L6.71019 4.47748C6.15101 4.89686 5.40288 4.96432 4.77771 4.65173L4.19895 4.36235L3.63509 4.92621C3.98706 5.96919 5.28803 8.88861 9.8643 14.1506L10.5262 14.9117L9.75947 15.567C4.55562 20.015 2.11664 22.018 1.04229 22.8787L1.20353 23.1045C1.6491 23.7284 1.66253 24.5627 1.23727 25.2006L1.20204 25.2535L1.85164 25.8219L2.29499 25.7233C3.24354 25.5126 4.11977 26.1461 4.29284 27.0261C5.52968 25.6245 8.0822 22.9488 12.8031 18.7845L13.5249 18.1478L14.1887 18.8449C17.7046 22.5368 19.3412 23.9915 20.0483 24.549L21.1909 23.7492C21.7457 23.3608 22.4687 23.3076 23.0744 23.6104L24.1449 24.1457C23.9607 23.4603 24.2082 22.7214 24.7869 22.2873L25.9064 21.4477C24.8187 20.4236 22.6538 18.3691 19.0639 14.8976L18.2624 14.1224L19.1199 13.4097C24.884 8.61845 28.4321 5.86871 30.2189 4.52438C29.8048 4.51769 29.3969 4.3717 29.0671 4.09688L28.5012 3.62533C28.0805 3.27472 27.8372 2.75535 27.8372 2.20768V1.83558L27.1097 1.28991C25.958 2.08812 22.8118 4.41382 15.7596 10.4213L15.0641 11.0138ZM31.2978 4.23724C31.2979 4.23719 31.298 4.23714 31.2981 4.23709L31.2369 4.09438L31.2981 4.23709L31.2978 4.23724ZM26.0483 21.3412L26.0481 21.3415ZM1.77519 25.8389C1.77536 25.8388 1.77552 25.8388 1.77569 25.8387ZM4.09926 4.31251L4.09949 4.31262ZM15.1112 9.66005C10.8462 5.48164 8.84777 3.40718 8.13157 2.64924C7.92762 2.4334 7.62748 2.33586 7.3363 2.39409L7.27352 2.40665C6.95318 2.47072 6.69842 2.71363 6.61919 3.03056L6.61039 3.06575C6.5633 3.25411 6.45281 3.42052 6.29748 3.53701L6.11019 3.67748C5.85403 3.8696 5.51131 3.9005 5.22492 3.7573L4.54647 3.41808C4.22102 3.25535 3.82795 3.31914 3.57065 3.57643L2.81178 4.3353C2.62884 4.51824 2.54329 4.77437 2.61665 5.02247C2.90688 6.00403 4.05545 8.84813 8.45843 14.048C8.66807 14.2956 8.88508 14.5485 9.10973 14.8069C8.84935 15.0294 8.59591 15.2458 8.34925 15.4563C3.53367 19.5646 1.2984 21.3946 0.332832 22.1657C-0.0306169 22.4559 -0.109367 22.9868 0.16096 23.3653L0.389764 23.6857C0.593883 23.9715 0.600036 24.3537 0.405223 24.6459L0.294764 24.8116C0.0594299 25.1646 0.122189 25.6374 0.441473 25.9167L1.25206 26.626C1.4546 26.8032 1.72941 26.8734 1.99212 26.815L2.51192 26.6995C2.97313 26.597 3.3916 26.9937 3.31393 27.4597C3.28279 27.6465 3.3326 27.8378 3.4509 27.9857L3.47925 28.0211C3.79651 28.4177 4.41516 28.4145 4.74572 28.0289C5.80441 26.7941 8.33939 24.0554 13.4646 19.5345C17.5612 23.8362 19.1671 25.1673 19.754 25.5776C19.9432 25.7098 20.1704 25.6842 20.3595 25.5518L21.7643 24.5684C22.0185 24.3905 22.3497 24.3661 22.6272 24.5049L23.8065 25.0945C24.1014 25.2419 24.4551 25.2045 24.7126 24.9985L24.9098 24.8407C25.1694 24.633 25.2625 24.2799 25.139 23.9712C25.0123 23.6545 25.114 23.292 25.3869 23.0873L26.6483 22.1413C27.0708 21.8244 27.1056 21.2027 26.7209 20.8409C25.7531 19.931 23.7802 18.0617 20.4825 14.8777C20.2481 14.6514 20.007 14.4185 19.7591 14.1787C20.0218 13.9604 20.2799 13.7463 20.5333 13.5363C26.9397 8.23162 30.4201 5.60855 31.6732 4.6888C31.987 4.45852 32.0898 4.03661 31.9158 3.68849C31.7298 3.31665 31.2863 3.15418 30.9042 3.31794L30.5815 3.45625C30.2893 3.58148 29.9515 3.53219 29.7073 3.32866L29.1414 2.8571C28.9487 2.69649 28.8372 2.45856 28.8372 2.20768V1.75826C28.8372 1.49218 28.712 1.24162 28.4991 1.08197L27.5929 0.402334C27.3221 0.199272 26.9596 0.180955 26.68 0.371701C25.6069 1.10388 22.4679 3.3931 15.1112 9.66005Z" fill="#333847"/>
</svg>
