<svg width="32" height="29" viewBox="0 0 32 29" fill="none" xmlns="http://www.w3.org/2000/svg">
<path fill-rule="evenodd" clip-rule="evenodd" d="M27.5929 0.322744C27.3221 0.119682 26.9596 0.101365 26.68 0.292111C25.6069 1.02429 22.4679 3.31351 15.1112 9.58046C10.8462 5.40205 8.84777 3.32759 8.13157 2.56965C7.92762 2.35381 7.62748 2.25627 7.3363 2.3145L7.27352 2.32706C6.95318 2.39113 6.69842 2.63404 6.61919 2.95097L6.61039 2.98616C6.5633 3.17452 6.45281 3.34093 6.29748 3.45742L6.11019 3.59789C5.85403 3.79001 5.51131 3.82091 5.22492 3.67771L4.54647 3.33849C4.22102 3.17576 3.82795 3.23955 3.57065 3.49684L2.81178 4.25571C2.62884 4.43865 2.54329 4.69478 2.61665 4.94288C2.9207 5.97117 4.16677 9.0436 9.10973 14.7273C3.76599 19.2948 1.34786 21.2755 0.332832 22.0861C-0.030617 22.3763 -0.109367 22.9072 0.16096 23.2857L0.389764 23.6061C0.593883 23.8919 0.600036 24.2741 0.405223 24.5663L0.294764 24.732C0.0594299 25.085 0.122189 25.5578 0.441473 25.8372L1.25206 26.5464C1.4546 26.7236 1.72941 26.7938 1.99212 26.7355L2.51192 26.6199C2.97313 26.5175 3.3916 26.9141 3.31393 27.3801C3.28279 27.5669 3.3326 27.7582 3.4509 27.9061L3.47925 27.9415C3.79651 28.3381 4.41516 28.3349 4.74572 27.9494C5.80441 26.7145 8.33939 23.9758 13.4646 19.4549C17.5612 23.7567 19.1671 25.0877 19.754 25.498C19.9432 25.6302 20.1704 25.6046 20.3595 25.4722L21.7643 24.4888C22.0185 24.3109 22.3497 24.2865 22.6272 24.4253L23.8065 25.0149C24.1014 25.1624 24.4551 25.1249 24.7126 24.9189L24.9098 24.7611C25.1694 24.5535 25.2625 24.2003 25.139 23.8917C25.0123 23.5749 25.114 23.2125 25.3869 23.0077L26.6483 22.0617C27.0708 21.7448 27.1056 21.1231 26.7209 20.7613C25.6843 19.7867 23.4947 17.7115 19.7591 14.0991C26.6608 8.36228 30.3705 5.56535 31.6732 4.60921C31.987 4.37893 32.0898 3.95702 31.9158 3.6089C31.7298 3.23706 31.2863 3.07459 30.9042 3.23835L30.5815 3.37666C30.2893 3.50189 29.9515 3.4526 29.7073 3.24907L29.1414 2.77751C28.9487 2.6169 28.8372 2.37897 28.8372 2.12809V1.67867C28.8372 1.41259 28.712 1.16203 28.4991 1.00238L27.5929 0.322744Z" fill="#F7E172"/>
<path fill-rule="evenodd" clip-rule="evenodd" d="M15.0641 10.9342L14.4114 10.2948C10.3678 6.33332 8.35265 4.25442 7.53202 3.39078C7.41155 3.73498 7.19125 4.0371 6.89748 4.25743L6.71019 4.39789C6.15101 4.81727 5.40288 4.88473 4.77771 4.57214L4.19895 4.28276L3.63509 4.84662C3.98706 5.8896 5.28803 8.80902 9.8643 14.071L10.5262 14.8321L9.75947 15.4874C4.55562 19.9354 2.11664 21.9384 1.04229 22.7991L1.20353 23.0249C1.6491 23.6488 1.66253 24.4832 1.23727 25.121L1.20204 25.1739L1.85164 25.7423L2.29499 25.6438C3.24354 25.433 4.11977 26.0665 4.29284 26.9465C5.52968 25.5449 8.0822 22.8692 12.8031 18.705L13.5249 18.0682L14.1887 18.7653C17.7046 22.4572 19.3412 23.9119 20.0483 24.4694L21.1909 23.6696C21.7457 23.2812 22.4687 23.228 23.0744 23.5308L24.1449 24.0661C23.9607 23.3807 24.2082 22.6418 24.7869 22.2077L25.9064 21.3681C24.8187 20.344 22.6538 18.2895 19.0639 14.818L18.2624 14.0429L19.1199 13.3301C24.884 8.53886 28.4321 5.78912 30.2189 4.44479C29.8048 4.4381 29.3969 4.29211 29.0671 4.0173L28.5012 3.54574C28.0805 3.19513 27.8372 2.67576 27.8372 2.12809V1.75599L27.1097 1.21032C25.958 2.00853 22.8118 4.33423 15.7596 10.3417L15.0641 10.9342ZM31.2978 4.15765C31.2979 4.1576 31.298 4.15755 31.2981 4.1575L31.2369 4.01479L31.2981 4.1575L31.2978 4.15765ZM26.0483 21.2617L26.0481 21.2619ZM1.77519 25.7593C1.77536 25.7592 1.77552 25.7592 1.77569 25.7592ZM4.09926 4.23292L4.09949 4.23303ZM15.1112 9.58046C10.8462 5.40205 8.84777 3.32759 8.13157 2.56965C7.92762 2.35381 7.62748 2.25627 7.3363 2.3145L7.27352 2.32706C6.95318 2.39113 6.69842 2.63404 6.61919 2.95097L6.61039 2.98616C6.5633 3.17452 6.45281 3.34093 6.29748 3.45742L6.11019 3.59789C5.85403 3.79001 5.51131 3.82091 5.22492 3.67771L4.54647 3.33849C4.22102 3.17576 3.82795 3.23955 3.57065 3.49684L2.81178 4.25571C2.62884 4.43865 2.54329 4.69478 2.61665 4.94288C2.90688 5.92444 4.05545 8.76854 8.45843 13.9684C8.66807 14.216 8.88508 14.469 9.10973 14.7273C8.84935 14.9498 8.59591 15.1662 8.34925 15.3767C3.53367 19.485 1.2984 21.315 0.332832 22.0861C-0.0306169 22.3763 -0.109367 22.9072 0.16096 23.2857L0.389764 23.6061C0.593883 23.8919 0.600036 24.2741 0.405223 24.5663L0.294764 24.732C0.0594299 25.085 0.122189 25.5578 0.441473 25.8372L1.25206 26.5464C1.4546 26.7236 1.72941 26.7938 1.99212 26.7355L2.51192 26.6199C2.97313 26.5175 3.3916 26.9141 3.31393 27.3801C3.28279 27.5669 3.3326 27.7582 3.4509 27.9061L3.47925 27.9415C3.79651 28.3381 4.41516 28.3349 4.74572 27.9494C5.80441 26.7145 8.33939 23.9758 13.4646 19.4549C17.5612 23.7567 19.1671 25.0877 19.754 25.498C19.9432 25.6302 20.1704 25.6046 20.3595 25.4722L21.7643 24.4888C22.0185 24.3109 22.3497 24.2865 22.6272 24.4253L23.8065 25.0149C24.1014 25.1624 24.4551 25.1249 24.7126 24.9189L24.9098 24.7611C25.1694 24.5535 25.2625 24.2003 25.139 23.8917C25.0123 23.5749 25.114 23.2125 25.3869 23.0077L26.6483 22.0617C27.0708 21.7448 27.1056 21.1231 26.7209 20.7613C25.7531 19.8514 23.7802 17.9821 20.4825 14.7982C20.2481 14.5718 20.007 14.3389 19.7591 14.0991C20.0218 13.8808 20.2799 13.6667 20.5333 13.4568C26.9397 8.15203 30.4201 5.52896 31.6732 4.60921C31.987 4.37893 32.0898 3.95702 31.9158 3.6089C31.7298 3.23706 31.2863 3.07459 30.9042 3.23835L30.5815 3.37666C30.2893 3.50189 29.9515 3.4526 29.7073 3.24907L29.1414 2.77751C28.9487 2.6169 28.8372 2.37897 28.8372 2.12809V1.67867C28.8372 1.41259 28.712 1.16203 28.4991 1.00238L27.5929 0.322744C27.3221 0.119682 26.9596 0.101365 26.68 0.292111C25.6069 1.02429 22.4679 3.31351 15.1112 9.58046Z" fill="#333847"/>
</svg>
