<svg width="32" height="29" viewBox="0 0 32 29" fill="none" xmlns="http://www.w3.org/2000/svg">
<path fill-rule="evenodd" clip-rule="evenodd" d="M27.5929 0.243154C27.3221 0.0400922 26.9596 0.0217748 26.68 0.212521C25.6069 0.944698 22.4679 3.23392 15.1112 9.50087C10.8462 5.32246 8.84777 3.248 8.13157 2.49006C7.92762 2.27422 7.62748 2.17668 7.3363 2.23491L7.27352 2.24747C6.95318 2.31154 6.69842 2.55445 6.61919 2.87138L6.61039 2.90657C6.5633 3.09493 6.45281 3.26134 6.29748 3.37783L6.11019 3.5183C5.85403 3.71042 5.51131 3.74132 5.22492 3.59812L4.54647 3.2589C4.22102 3.09617 3.82795 3.15996 3.57065 3.41725L2.81178 4.17612C2.62884 4.35906 2.54329 4.61519 2.61665 4.86329C2.9207 5.89158 4.16677 8.96401 9.10973 14.6477C3.76599 19.2152 1.34786 21.1959 0.332832 22.0065C-0.030617 22.2967 -0.109367 22.8276 0.16096 23.2061L0.389764 23.5265C0.593883 23.8123 0.600036 24.1945 0.405223 24.4867L0.294764 24.6524C0.0594299 25.0054 0.122189 25.4782 0.441473 25.7576L1.25206 26.4668C1.4546 26.644 1.72941 26.7142 1.99212 26.6559L2.51192 26.5404C2.97313 26.4379 3.3916 26.8345 3.31393 27.3006C3.28279 27.4874 3.3326 27.6786 3.4509 27.8265L3.47925 27.8619C3.79651 28.2585 4.41516 28.2553 4.74572 27.8698C5.80441 26.6349 8.33939 23.8962 13.4646 19.3753C17.5612 23.6771 19.1671 25.0081 19.754 25.4184C19.9432 25.5506 20.1704 25.525 20.3595 25.3926L21.7643 24.4092C22.0185 24.2313 22.3497 24.2069 22.6272 24.3457L23.8065 24.9353C24.1014 25.0828 24.4551 25.0453 24.7126 24.8393L24.9098 24.6815C25.1694 24.4739 25.2625 24.1207 25.139 23.8121C25.0123 23.4953 25.114 23.1329 25.3869 22.9282L26.6483 21.9821C27.0708 21.6652 27.1056 21.0435 26.7209 20.6817C25.6843 19.7071 23.4947 17.632 19.7591 14.0195C26.6608 8.28269 30.3705 5.48576 31.6732 4.52962C31.987 4.29934 32.0898 3.87743 31.9158 3.52931C31.7298 3.15747 31.2863 2.995 30.9042 3.15877L30.5815 3.29707C30.2893 3.4223 29.9515 3.37301 29.7073 3.16948L29.1414 2.69793C28.9487 2.53731 28.8372 2.29938 28.8372 2.0485V1.59908C28.8372 1.333 28.712 1.08244 28.4991 0.922788L27.5929 0.243154Z" fill="#7D9DEE"/>
<path fill-rule="evenodd" clip-rule="evenodd" d="M15.0641 10.8547L14.4114 10.2152C10.3678 6.25373 8.35265 4.17483 7.53202 3.31119C7.41155 3.65539 7.19125 3.95751 6.89748 4.17784L6.71019 4.3183C6.15101 4.73768 5.40288 4.80514 4.77771 4.49255L4.19895 4.20317L3.63509 4.76703C3.98706 5.81001 5.28803 8.72943 9.8643 13.9915L10.5262 14.7525L9.75947 15.4078C4.55562 19.8558 2.11664 21.8588 1.04229 22.7195L1.20353 22.9453C1.6491 23.5692 1.66253 24.4036 1.23727 25.0415L1.20204 25.0943L1.85164 25.6627L2.29499 25.5642C3.24354 25.3534 4.11977 25.987 4.29284 26.8669C5.52968 25.4653 8.0822 22.7896 12.8031 18.6254L13.5249 17.9886L14.1887 18.6857C17.7046 22.3776 19.3412 23.8323 20.0483 24.3898L21.1909 23.59C21.7457 23.2016 22.4687 23.1484 23.0744 23.4512L24.1449 23.9865C23.9607 23.3011 24.2082 22.5622 24.7869 22.1282L25.9064 21.2885C24.8187 20.2644 22.6538 18.2099 19.0639 14.7384L18.2624 13.9633L19.1199 13.2505C24.884 8.45927 28.4321 5.70954 30.2189 4.3652C29.8048 4.35851 29.3969 4.21252 29.0671 3.93771L28.5012 3.46615C28.0805 3.11554 27.8372 2.59617 27.8372 2.0485V1.6764L27.1097 1.13073C25.958 1.92894 22.8118 4.25464 15.7596 10.2621L15.0641 10.8547ZM31.2978 4.07806C31.2979 4.07801 31.298 4.07796 31.2981 4.07791L31.2369 3.9352L31.2981 4.07791L31.2978 4.07806ZM26.0483 21.1821L26.0481 21.1823ZM1.77519 25.6797C1.77536 25.6796 1.77552 25.6796 1.77569 25.6796ZM4.09926 4.15333L4.09949 4.15344ZM15.1112 9.50087C10.8462 5.32246 8.84777 3.248 8.13157 2.49006C7.92762 2.27422 7.62748 2.17668 7.3363 2.23491L7.27352 2.24747C6.95318 2.31154 6.69842 2.55445 6.61919 2.87138L6.61039 2.90657C6.5633 3.09493 6.45281 3.26134 6.29748 3.37783L6.11019 3.5183C5.85403 3.71042 5.51131 3.74132 5.22492 3.59812L4.54647 3.2589C4.22102 3.09617 3.82795 3.15996 3.57065 3.41725L2.81178 4.17612C2.62884 4.35907 2.54329 4.61519 2.61665 4.86329C2.90688 5.84485 4.05545 8.68895 8.45843 13.8889C8.66807 14.1364 8.88508 14.3894 9.10973 14.6477C8.84935 14.8702 8.59591 15.0867 8.34925 15.2971C3.53367 19.4054 1.2984 21.2354 0.332832 22.0065C-0.0306169 22.2967 -0.109367 22.8276 0.16096 23.2061L0.389764 23.5265C0.593883 23.8123 0.600036 24.1945 0.405223 24.4867L0.294764 24.6524C0.0594299 25.0054 0.122189 25.4782 0.441473 25.7576L1.25206 26.4668C1.4546 26.644 1.72941 26.7142 1.99212 26.6559L2.51192 26.5404C2.97313 26.4379 3.3916 26.8345 3.31393 27.3006C3.28279 27.4874 3.3326 27.6786 3.4509 27.8265L3.47925 27.8619C3.79651 28.2585 4.41516 28.2553 4.74572 27.8698C5.80441 26.6349 8.33939 23.8962 13.4646 19.3753C17.5612 23.6771 19.1671 25.0081 19.754 25.4184C19.9432 25.5506 20.1704 25.525 20.3595 25.3926L21.7643 24.4092C22.0185 24.2313 22.3497 24.2069 22.6272 24.3457L23.8065 24.9353C24.1014 25.0828 24.4551 25.0453 24.7126 24.8393L24.9098 24.6815C25.1694 24.4739 25.2625 24.1207 25.139 23.8121C25.0123 23.4953 25.114 23.1329 25.3869 22.9282L26.6483 21.9821C27.0708 21.6652 27.1056 21.0435 26.7209 20.6817C25.7531 19.7718 23.7802 17.9025 20.4825 14.7186C20.2481 14.4922 20.007 14.2593 19.7591 14.0195C20.0218 13.8012 20.2799 13.5871 20.5333 13.3772C26.9397 8.07244 30.4201 5.44937 31.6732 4.52962C31.987 4.29934 32.0898 3.87743 31.9158 3.52931C31.7298 3.15747 31.2863 2.995 30.9042 3.15877L30.5815 3.29707C30.2893 3.4223 29.9515 3.37301 29.7073 3.16948L29.1414 2.69793C28.9487 2.53731 28.8372 2.29938 28.8372 2.0485V1.59908C28.8372 1.333 28.712 1.08244 28.4991 0.922788L27.5929 0.243154C27.3221 0.0400922 26.9596 0.0217748 26.68 0.212521C25.6069 0.944698 22.4679 3.23392 15.1112 9.50087Z" fill="#333847"/>
</svg>
