<svg viewBox="0 0 129 36" fill="none" xmlns="http://www.w3.org/2000/svg">
<path d="M1 30.7989L3.09836 33V30.7989H1Z" fill="#191C25"/>
<path fill-rule="evenodd" clip-rule="evenodd" d="M127.595 3.87746C128.244 2.54885 127.276 1 125.798 1H30.1429C30.1429 1 23.8571 1.5 13.5714 6C3.28571 10.5 1 14 1 14V30.7989H3.09836H60.0164H117.391C118.346 30.7989 119.167 30.1249 119.353 29.189L122.13 15.2226C122.163 15.0538 122.219 14.8899 122.294 14.7352L127.595 3.87746Z" fill="#4F576C"/>
<path d="M3 1C1.89543 1 1 1.89543 1 3V14C1 14 3.28571 10.5 13.5714 6C23.8571 1.5 30.1429 1 30.1429 1H3Z" fill="#8BC34A"/>
<path d="M3.59836 31.2989H60.0164H117.391C118.584 31.2989 119.611 30.4563 119.843 29.2865L122.62 15.3201C122.645 15.1935 122.687 15.0706 122.743 14.9546L128.044 4.09682C128.855 2.43606 127.646 0.5 125.798 0.5H30.1429H3C1.61929 0.5 0.5 1.61929 0.5 3V14V30.7989V30.9991L0.638105 31.144L2.73647 33.345L3.59836 34.2491V33V31.2989Z" stroke="#333847"/>
</svg>
