<svg width="56" height="24" viewBox="0 0 56 24" fill="none" xmlns="http://www.w3.org/2000/svg">
<path d="M54 0.5H2.46299C1.5107 0.5 0.799458 1.37589 0.994938 2.30791L2.97446 11.746C3.00088 11.8719 3.01753 11.9998 3.02427 12.1283L3.54601 22.0785C3.58778 22.8754 4.24604 23.5 5.04395 23.5H54C54.8284 23.5 55.5 22.8284 55.5 22V2C55.5 1.17157 54.8284 0.5 54 0.5Z" fill="#E0E2E9" stroke="#333847"/>
<mask id="mask0_1717_13938" style="mask-type:alpha" maskUnits="userSpaceOnUse" x="8" y="0" width="48" height="24">
<path d="M12.6088 23.5H55.5V2C55.5 1.17157 54.8284 0.5 54 0.5H10.3916C9.45696 0.5 8.7499 1.3455 8.91528 2.26541L10.6494 11.9115L10.6553 11.9443L10.6568 11.9776L11.1103 22.0673C11.1463 22.8688 11.8065 23.5 12.6088 23.5Z" fill="#F7E172" stroke="#333847"/>
</mask>
<g mask="url(#mask0_1717_13938)">
<path d="M44 1H54C54.5523 1 55 1.44772 55 2V12C55 12 55 9 51 5C47 1 44 1 44 1Z" fill="black" fill-opacity="0.6"/>
</g>
</svg>
