<svg width="32" height="32" viewBox="0 0 32 32" fill="none" xmlns="http://www.w3.org/2000/svg">
<path d="M30.1504 14.329C31.4434 15.0755 31.4433 16.9416 30.1504 17.6881L5.82082 31.7348C4.36351 32.5762 2.59957 31.2895 2.95565 29.6449L5.81914 16.419C5.8777 16.1485 5.8777 15.8687 5.81914 15.5982L2.95564 2.37223C2.59957 0.72759 4.36351 -0.559085 5.82081 0.282289L30.1504 14.329Z" fill="#333847"/>
<path d="M27.2412 14.329C28.5342 15.0755 28.5342 16.9416 27.2412 17.6881L2.91164 31.7348C1.45433 32.5762 -0.309611 31.2895 0.0464665 29.6449L2.90996 16.419C2.96852 16.1485 2.96852 15.8687 2.90996 15.5982L0.0464592 2.37223C-0.309614 0.72759 1.45433 -0.559085 2.91163 0.282289L27.2412 14.329Z" fill="white"/>
<path fill-rule="evenodd" clip-rule="evenodd" d="M2.42679 30.895L26.7564 16.8483C27.4029 16.4751 27.4029 15.542 26.7564 15.1688L2.42679 1.12207C1.69813 0.701383 0.816162 1.34472 0.9942 2.16704L3.8577 15.393C3.94553 15.7987 3.94553 16.2185 3.8577 16.6242L0.994205 29.8501C0.816166 30.6724 1.69814 31.3157 2.42679 30.895ZM27.2412 17.6881C28.5342 16.9416 28.5342 15.0755 27.2412 14.329L2.91163 0.282289C1.45433 -0.559085 -0.309616 0.72759 0.0464592 2.37223L2.90996 15.5982C2.96852 15.8687 2.96852 16.1485 2.90996 16.419L0.0464665 29.6449C-0.309611 31.2895 1.45433 32.5762 2.91164 31.7348L27.2412 17.6881Z" fill="#333847"/>
</svg>
