<svg viewBox="0 0 32 32" fill="none" xmlns="http://www.w3.org/2000/svg">
<path d="M17.671 30.1503C16.9245 31.4432 15.0584 31.4432 14.3119 30.1503L0.265176 5.8207C-0.576198 4.36339 0.710479 2.59945 2.35512 2.95552L15.581 5.81902C15.8515 5.87757 16.1313 5.87758 16.4018 5.81902L29.6278 2.95552C31.2724 2.59944 32.5591 4.36339 31.7177 5.82069L17.671 30.1503Z" fill="#333847"/>
<path d="M17.671 27.2412C16.9245 28.5342 15.0584 28.5342 14.3119 27.2412L0.265176 2.91164C-0.576198 1.45434 0.710479 -0.30961 2.35512 0.0464673L15.581 2.90996C15.8515 2.96852 16.1313 2.96852 16.4018 2.90996L29.6278 0.0464599C31.2724 -0.309615 32.5591 1.45433 31.7177 2.91164L17.671 27.2412Z" fill="white"/>
<path fill-rule="evenodd" clip-rule="evenodd" d="M1.10496 2.42679L15.1517 26.7564C15.5249 27.4029 16.458 27.4029 16.8312 26.7564L30.8779 2.42679C31.2986 1.69813 30.6553 0.816161 29.833 0.994199L16.607 3.8577C16.2013 3.94553 15.7815 3.94553 15.3758 3.8577L2.14993 0.994205C1.32761 0.816167 0.684273 1.69814 1.10496 2.42679ZM14.3119 27.2412C15.0584 28.5342 16.9245 28.5342 17.671 27.2412L31.7177 2.91164C32.5591 1.45433 31.2724 -0.309616 29.6278 0.0464599L16.4018 2.90996C16.1313 2.96852 15.8515 2.96852 15.581 2.90996L2.35512 0.0464673C0.710482 -0.30961 -0.576199 1.45433 0.265176 2.91164L14.3119 27.2412Z" fill="#333847"/>
</svg>
