<svg viewBox="0 0 33 30" fill="none" xmlns="http://www.w3.org/2000/svg">
<path d="M18.2233 28.0925C17.4535 29.4259 15.529 29.4259 14.7592 28.0925L0.27351 3.00263C-0.594158 1.49978 0.732727 -0.319284 2.42877 0.0479202L16.068 3.0009C16.3469 3.06128 16.6355 3.06129 16.9144 3.0009L30.5537 0.0479126C32.2497 -0.31929 33.5766 1.49978 32.7089 3.00262L18.2233 28.0925Z" fill="white"/>
<path fill-rule="evenodd" clip-rule="evenodd" d="M1.13953 2.50263L15.6252 27.5925C16.0101 28.2592 16.9723 28.2592 17.3572 27.5925L31.8429 2.50262C32.2767 1.7512 31.6133 0.841667 30.7653 1.02527L17.126 3.97826C16.7076 4.06883 16.2747 4.06883 15.8564 3.97825L2.21717 1.02527C1.36914 0.841673 0.705704 1.75121 1.13953 2.50263ZM14.7592 28.0925C15.529 29.4259 17.4535 29.4259 18.2233 28.0925L32.7089 3.00262C33.5766 1.49978 32.2497 -0.31929 30.5537 0.0479126L16.9144 3.0009C16.6355 3.06129 16.3469 3.06129 16.068 3.0009L2.42877 0.0479202C0.732731 -0.319284 -0.594158 1.49978 0.27351 3.00263L14.7592 28.0925Z" fill="black"/>
</svg>
