<svg viewBox="0 0 42 32" fill="none" xmlns="http://www.w3.org/2000/svg">
<mask id="path-1-inside-1_1104_7923" fill="white">
<path fill-rule="evenodd" clip-rule="evenodd" d="M23.2094 4.95546C23.2094 3.3453 21.4037 2.39522 20.0767 3.30714L1.97081 15.7492C0.814415 16.5438 0.814418 18.2512 1.97081 19.0458L20.0767 31.4879C21.4037 32.3998 23.2094 31.4497 23.2094 29.8395V25.5206C23.2094 24.6281 23.9329 23.9046 24.8254 23.9046V23.9046C29.4305 23.9046 31.4218 24.8581 32.9431 25.5864C33.1264 25.6742 33.3028 25.7587 33.4762 25.8379C34.7662 26.4268 35.6488 27.6916 35.8638 28.1823C36.0788 28.6731 41.3745 36.8649 41.1165 23.0245C40.9325 13.1531 32.6144 9.50919 25.0116 8.40911C23.9921 8.26159 23.2094 7.40635 23.2094 6.37622V4.95546Z"/>
</mask>
<path fill-rule="evenodd" clip-rule="evenodd" d="M23.2094 4.95546C23.2094 3.3453 21.4037 2.39522 20.0767 3.30714L1.97081 15.7492C0.814415 16.5438 0.814418 18.2512 1.97081 19.0458L20.0767 31.4879C21.4037 32.3998 23.2094 31.4497 23.2094 29.8395V25.5206C23.2094 24.6281 23.9329 23.9046 24.8254 23.9046V23.9046C29.4305 23.9046 31.4218 24.8581 32.9431 25.5864C33.1264 25.6742 33.3028 25.7587 33.4762 25.8379C34.7662 26.4268 35.6488 27.6916 35.8638 28.1823C36.0788 28.6731 41.3745 36.8649 41.1165 23.0245C40.9325 13.1531 32.6144 9.50919 25.0116 8.40911C23.9921 8.26159 23.2094 7.40635 23.2094 6.37622V4.95546Z" fill="#333847"/>
<path d="M32.9431 25.5864L33.3749 24.6845L33.3749 24.6845L32.9431 25.5864ZM33.4762 25.8379L33.8915 24.9282L33.8915 24.9282L33.4762 25.8379ZM41.1165 23.0245L40.1167 23.0431L41.1165 23.0245ZM20.0767 31.4879L20.643 30.6637L20.0767 31.4879ZM1.97081 15.7492L1.40446 14.925L1.97081 15.7492ZM2.53716 16.5733L20.643 4.1313L19.5103 2.48297L1.40446 14.925L2.53716 16.5733ZM20.643 30.6637L2.53717 18.2217L1.40446 19.87L19.5103 32.312L20.643 30.6637ZM22.2094 25.5206V29.8395H24.2094V25.5206H22.2094ZM24.8254 24.9046C27.0577 24.9046 28.6204 25.1355 29.7884 25.44C30.9533 25.7437 31.7586 26.128 32.5112 26.4884L33.3749 24.6845C32.6063 24.3165 31.6553 23.8599 30.2929 23.5047C28.9337 23.1504 27.1982 22.9046 24.8254 22.9046V24.9046ZM32.5112 26.4884C32.6929 26.5754 32.8777 26.6639 33.0609 26.7475L33.8915 24.9282C33.7279 24.8535 33.5598 24.773 33.3749 24.6845L32.5112 26.4884ZM33.0609 26.7475C33.5458 26.9689 33.9832 27.3333 34.3321 27.7184C34.6879 28.1111 34.894 28.4607 34.9478 28.5836L36.7798 27.7811C36.6186 27.4132 36.2759 26.8851 35.8142 26.3755C35.3456 25.8583 34.6966 25.2957 33.8915 24.9282L33.0609 26.7475ZM34.9478 28.5836C35.0158 28.7388 35.1713 28.9896 35.3333 29.2293C35.5143 29.4971 35.7588 29.8321 36.0466 30.1739C36.3325 30.5135 36.6747 30.8758 37.0523 31.187C37.4214 31.4913 37.8772 31.7908 38.3911 31.9386C38.9348 32.095 39.5638 32.0829 40.1521 31.7176C40.7054 31.3741 41.0906 30.7986 41.3646 30.1065C41.9058 28.7398 42.1812 26.4865 42.1164 23.0058L40.1167 23.0431C40.1808 26.4826 39.891 28.3955 39.5051 29.3702C39.3156 29.8488 39.1467 29.9877 39.0971 30.0185C39.0824 30.0276 39.0595 30.0498 38.944 30.0166C38.7987 29.9748 38.5877 29.8608 38.3243 29.6437C38.0694 29.4336 37.8132 29.1669 37.5765 28.8857C37.3416 28.6067 37.1391 28.3294 36.9903 28.1093C36.8226 27.8611 36.7656 27.7486 36.7798 27.7811L34.9478 28.5836ZM42.1164 23.0058C42.0182 17.7424 39.7294 14.0822 36.4449 11.6266C33.2043 9.20387 29.0385 7.98136 25.1548 7.41941L24.8684 9.3988C28.5876 9.93693 32.3822 11.0864 35.2474 13.2285C38.0686 15.3377 40.0308 18.4352 40.1167 23.0431L42.1164 23.0058ZM22.2094 4.95546V6.37622H24.2094V4.95546H22.2094ZM25.1548 7.41941C24.5981 7.33885 24.2094 6.88051 24.2094 6.37622H22.2094C22.2094 7.93218 23.3862 9.18433 24.8684 9.3988L25.1548 7.41941ZM24.2094 25.5206C24.2094 25.1804 24.4852 24.9046 24.8254 24.9046V22.9046C23.3806 22.9046 22.2094 24.0758 22.2094 25.5206H24.2094ZM19.5103 32.312C21.5009 33.6799 24.2094 32.2548 24.2094 29.8395H22.2094C22.2094 30.6446 21.3065 31.1197 20.643 30.6637L19.5103 32.312ZM20.643 4.1313C21.3065 3.67534 22.2094 4.15038 22.2094 4.95546H24.2094C24.2094 2.54021 21.5009 1.1151 19.5103 2.48297L20.643 4.1313ZM1.40446 14.925C-0.330136 16.117 -0.33013 18.678 1.40446 19.87L2.53717 18.2217C1.95897 17.8243 1.95897 16.9707 2.53716 16.5733L1.40446 14.925Z" fill="#333847" mask="url(#path-1-inside-1_1104_7923)"/>
<mask id="path-3-inside-2_1104_7923" fill="white">
<path fill-rule="evenodd" clip-rule="evenodd" d="M22.2396 2.16042C22.2396 0.550254 20.434 -0.399827 19.1069 0.512092L1.00108 12.9541C-0.155311 13.7488 -0.155309 15.4561 1.00109 16.2508L19.1069 28.6928C20.434 29.6048 22.2396 28.6547 22.2396 27.0445V22.7256C22.2396 21.8331 22.9632 21.1096 23.8557 21.1096V21.1096C28.4608 21.1096 30.4521 22.063 31.9733 22.7914C32.1566 22.8792 32.3331 22.9636 32.5065 23.0428C33.7965 23.6318 34.6791 24.8965 34.8941 25.3873C35.1091 25.8781 40.4048 34.0698 40.1468 20.2294C39.9628 10.3581 31.6447 6.71414 24.0419 5.61406C23.0224 5.46654 22.2396 4.6113 22.2396 3.58117V2.16042Z"/>
</mask>
<path fill-rule="evenodd" clip-rule="evenodd" d="M22.2396 2.16042C22.2396 0.550254 20.434 -0.399827 19.1069 0.512092L1.00108 12.9541C-0.155311 13.7488 -0.155309 15.4561 1.00109 16.2508L19.1069 28.6928C20.434 29.6048 22.2396 28.6547 22.2396 27.0445V22.7256C22.2396 21.8331 22.9632 21.1096 23.8557 21.1096V21.1096C28.4608 21.1096 30.4521 22.063 31.9733 22.7914C32.1566 22.8792 32.3331 22.9636 32.5065 23.0428C33.7965 23.6318 34.6791 24.8965 34.8941 25.3873C35.1091 25.8781 40.4048 34.0698 40.1468 20.2294C39.9628 10.3581 31.6447 6.71414 24.0419 5.61406C23.0224 5.46654 22.2396 4.6113 22.2396 3.58117V2.16042Z" fill="white"/>
<path d="M31.9733 22.7914L32.4052 21.8894L32.4052 21.8894L31.9733 22.7914ZM32.5065 23.0428L32.9218 22.1331L32.9218 22.1331L32.5065 23.0428ZM40.1468 20.2294L39.147 20.2481L40.1468 20.2294ZM19.1069 28.6928L19.6733 27.8687L19.1069 28.6928ZM1.00108 12.9541L0.434733 12.13L1.00108 12.9541ZM1.56744 13.7783L19.6733 1.33626L18.5406 -0.312072L0.434733 12.13L1.56744 13.7783ZM19.6733 27.8687L1.56744 15.4266L0.434736 17.075L18.5406 29.517L19.6733 27.8687ZM21.2396 22.7256V27.0445H23.2396V22.7256H21.2396ZM23.8557 22.1096C26.0879 22.1096 27.6507 22.3405 28.8187 22.645C29.9836 22.9487 30.7888 23.333 31.5415 23.6933L32.4052 21.8894C31.6366 21.5214 30.6856 21.0648 29.3232 20.7097C27.964 20.3553 26.2285 20.1096 23.8557 20.1096V22.1096ZM31.5415 23.6933C31.7232 23.7803 31.908 23.8689 32.0912 23.9525L32.9218 22.1331C32.7582 22.0584 32.5901 21.978 32.4052 21.8894L31.5415 23.6933ZM32.0912 23.9525C32.5761 24.1739 33.0134 24.5382 33.3624 24.9233C33.7182 25.316 33.9243 25.6656 33.9781 25.7885L35.8101 24.9861C35.6489 24.6182 35.3062 24.09 34.8445 23.5804C34.3758 23.0632 33.7269 22.5007 32.9218 22.1331L32.0912 23.9525ZM33.9781 25.7885C34.0461 25.9437 34.2016 26.1946 34.3636 26.4343C34.5446 26.702 34.7891 27.0371 35.0769 27.3788C35.3628 27.7184 35.705 28.0808 36.0826 28.392C36.4517 28.6962 36.9074 28.9958 37.4214 29.1436C37.9651 29.3 38.5941 29.2878 39.1824 28.9226C39.7357 28.579 40.1209 28.0035 40.3949 27.3114C40.9361 25.9448 41.2115 23.6914 41.1466 20.2108L39.147 20.2481C39.2111 23.6876 38.9213 25.6005 38.5354 26.5751C38.3459 27.0537 38.177 27.1927 38.1274 27.2235C38.1127 27.2326 38.0898 27.2548 37.9742 27.2215C37.8289 27.1797 37.618 27.0657 37.3546 26.8486C37.0997 26.6385 36.8435 26.3718 36.6068 26.0906C36.3718 25.8117 36.1694 25.5344 36.0206 25.3143C35.8529 25.0661 35.7958 24.9536 35.8101 24.9861L33.9781 25.7885ZM41.1466 20.2108C41.0485 14.9474 38.7597 11.2872 35.4752 8.8316C32.2346 6.40882 28.0688 5.18632 24.1851 4.62437L23.8987 6.60376C27.6178 7.14189 31.4125 8.29138 34.2776 10.4334C37.0989 12.5427 39.0611 15.6401 39.147 20.2481L41.1466 20.2108ZM21.2396 2.16042V3.58117H23.2396V2.16042H21.2396ZM24.1851 4.62437C23.6283 4.5438 23.2396 4.08547 23.2396 3.58117H21.2396C21.2396 5.13714 22.4165 6.38928 23.8987 6.60376L24.1851 4.62437ZM23.2396 22.7256C23.2396 22.3854 23.5155 22.1096 23.8557 22.1096V20.1096C22.4109 20.1096 21.2396 21.2808 21.2396 22.7256H23.2396ZM18.5406 29.517C20.5311 30.8849 23.2396 29.4598 23.2396 27.0445H21.2396C21.2396 27.8496 20.3368 28.3246 19.6733 27.8687L18.5406 29.517ZM19.6733 1.33626C20.3368 0.880294 21.2396 1.35534 21.2396 2.16042H23.2396C23.2396 -0.254831 20.5311 -1.67995 18.5406 -0.312072L19.6733 1.33626ZM0.434733 12.13C-1.29986 13.322 -1.29986 15.883 0.434736 17.075L1.56744 15.4266C0.989239 15.0293 0.98924 14.1756 1.56744 13.7783L0.434733 12.13Z" fill="#333847" mask="url(#path-3-inside-2_1104_7923)"/>
</svg>
