<svg viewBox="0 0 32 29" fill="none" xmlns="http://www.w3.org/2000/svg">
<path fill-rule="evenodd" clip-rule="evenodd" d="M30.2502 6.20555L12.87 23.5436C12.1976 24.2145 11.1072 24.2145 10.4347 23.5436L0.861084 13.9931V13.3356C0.861084 13.0964 0.954903 12.8666 1.12249 12.6955L5.03341 8.7011C5.39078 8.33611 5.97818 8.33266 6.33983 8.69344L11.003 13.3453C11.3616 13.7031 11.9431 13.7031 12.3018 13.3453L24.5495 1.12723C24.9082 0.769438 25.4897 0.769439 25.8483 1.12723L29.9812 5.25007C30.1534 5.42189 30.2502 5.65492 30.2502 5.89791V6.20555Z" fill="#7D9DEE"/>
<path d="M12.87 23.5436C12.1976 24.2145 11.1072 24.2145 10.4347 23.5436L0.861084 13.9931V16.8203C0.861084 17.0633 0.957845 17.2963 1.13008 17.4681L11.003 27.3171C11.3616 27.6749 11.9431 27.6749 12.3018 27.3171L29.9812 9.68055C30.1534 9.50873 30.2502 9.2757 30.2502 9.03271V6.20555L12.87 23.5436Z" fill="#5271C9"/>
<path fill-rule="evenodd" clip-rule="evenodd" d="M0.861009 16.8203C0.861009 17.0633 0.957769 17.2964 1.13 17.4682L11.0029 27.3172C11.3616 27.675 11.9431 27.675 12.3017 27.3172L29.9811 9.68059C30.1533 9.50877 30.2501 9.27573 30.2501 9.03275V5.89795C30.2501 5.65496 30.1533 5.42193 29.9811 5.25011L25.8483 1.12727C25.4896 0.769476 24.9081 0.769476 24.5494 1.12727L12.3017 13.3453C11.9431 13.7031 11.3616 13.7031 11.0029 13.3453L6.33976 8.69347C5.97811 8.3327 5.3907 8.33615 5.03333 8.70114L1.12241 12.6955C0.954827 12.8666 0.861009 13.0964 0.861009 13.3357V16.8203ZM0.506465 12.0953L4.41739 8.10097C5.10979 7.3938 6.24789 7.38712 6.94858 8.08612L11.6117 12.738C11.6341 12.7603 11.6705 12.7603 11.6929 12.738L23.9406 0.519917C24.6355 -0.173305 25.7622 -0.173307 26.4571 0.519918L30.5899 4.64276C30.9236 4.97566 31.1111 5.42716 31.1111 5.89795V9.03275C31.1111 9.50353 30.9236 9.95504 30.5899 10.2879L12.9106 27.9245C12.2157 28.6178 11.089 28.6178 10.3941 27.9245L0.521179 18.0755C0.187475 17.7426 0 17.2911 0 16.8203V13.3357C0 12.8721 0.181774 12.4269 0.506465 12.0953Z" fill="#333847"/>
</svg>
