<svg viewBox="0 0 16 32" fill="none" xmlns="http://www.w3.org/2000/svg">
<path fill-rule="evenodd" clip-rule="evenodd" d="M0.482716 14.6953C-0.160905 15.4455 -0.160905 16.5545 0.482716 17.3047L12.4904 31.2998C13.6978 32.7069 16 31.8511 16 29.9951V21.2443C16 20.9794 15.8952 20.7253 15.7085 20.5377L12.5994 17.4139C11.8221 16.6329 11.8221 15.3686 12.5994 14.5876L15.7085 11.4637C15.8952 11.2762 16 11.0221 16 10.7572L16 2.00487C16 0.148903 13.6978 -0.706946 12.4904 0.700205L0.482716 14.6953Z" fill="white"/>
<path fill-rule="evenodd" clip-rule="evenodd" d="M1.23943 15.3477C0.917615 15.7227 0.917615 16.2773 1.23943 16.6523L13.2472 30.6475C13.8508 31.351 15.0019 30.9231 15.0019 29.9951V21.2443L11.8928 18.1205C10.7269 16.949 10.7269 15.0525 11.8928 13.881L15.0019 10.7572V2.00487C15.0019 1.07689 13.8508 0.648965 13.2472 1.35254L1.23943 15.3477ZM0.482716 17.3047C-0.160905 16.5545 -0.160905 15.4455 0.482716 14.6953L12.4904 0.700205C13.6978 -0.706946 16 0.148903 16 2.00487L16 10.7572C16 11.0221 15.8952 11.2762 15.7085 11.4637L12.5994 14.5876C11.8221 15.3686 11.8221 16.6329 12.5994 17.4139L15.7085 20.5377C15.8952 20.7253 16 20.9794 16 21.2443V29.9951C16 31.8511 13.6978 32.7069 12.4904 31.2998L0.482716 17.3047Z" fill="#333847"/>
</svg>
