<svg width="34" height="34" viewBox="0 0 34 34" fill="none" xmlns="http://www.w3.org/2000/svg">
<path d="M26.4527 2.36245C26.9364 1.88613 27.6452 1.81171 28.0357 2.19623L32.2784 6.3736C32.6689 6.75811 32.5933 7.45596 32.1095 7.93227L30.3577 9.65717C29.8739 10.1335 29.1652 10.2079 28.7747 9.82338L24.532 5.64602C24.1415 5.2615 24.2171 4.56366 24.7008 4.08734L26.4527 2.36245Z" fill="#6D7793"/>
<path fill-rule="evenodd" clip-rule="evenodd" d="M28.7483 1.49463L32.9909 5.672C33.9099 6.57683 33.5494 7.91783 32.8221 8.63389L31.0703 10.3588C30.343 11.0748 28.9811 11.4298 28.0621 10.525L23.8195 6.34763C22.9005 5.4428 23.261 4.1018 23.9883 3.38575L25.7401 1.66085C26.4674 0.944796 27.8293 0.589806 28.7483 1.49463ZM28.0357 2.19624C27.6452 1.81172 26.9364 1.88614 26.4527 2.36246L24.7008 4.08735C24.2171 4.56367 24.1415 5.26151 24.532 5.64603L28.7747 9.8234C29.1652 10.2079 29.8739 10.1335 30.3577 9.65718L32.1095 7.93228C32.5933 7.45597 32.6689 6.75812 32.2784 6.37361L28.0357 2.19624Z" fill="#333847"/>
<path d="M1.87204 7.92845C1.39042 7.45424 1.31658 6.75811 1.70711 6.3736L5.94975 2.19623C6.34027 1.81171 7.04728 1.88442 7.52889 2.35862L9.27297 4.07586C9.75458 4.55007 9.82842 5.2462 9.4379 5.63071L5.19526 9.80808C4.80473 10.1926 4.09773 10.1199 3.61611 9.64569L1.87204 7.92845Z" fill="#6D7793"/>
<path fill-rule="evenodd" clip-rule="evenodd" d="M0.994625 5.67199L5.23727 1.49462C6.15363 0.592351 7.51323 0.93991 8.24154 1.65702L9.98562 3.37426C10.7139 4.09136 11.0669 5.43005 10.1506 6.33232L5.90791 10.5097C4.99154 11.412 3.63194 11.0644 2.90363 10.3473L1.15956 8.63005C0.431246 7.91294 0.078256 6.57426 0.994625 5.67199ZM1.70719 6.3736C1.31667 6.75811 1.39051 7.45424 1.87212 7.92845L3.6162 9.64569C4.09781 10.1199 4.80482 10.1926 5.19534 9.80808L9.43798 5.63071C9.82851 5.2462 9.75467 4.55007 9.27305 4.07586L7.52898 2.35862C7.04736 1.88442 6.34036 1.81171 5.94983 2.19623L1.70719 6.3736Z" fill="#333847"/>
<path d="M31.5001 24.9148L27 22.5L18.25 28.75L19.2501 33.8454C24.6909 33.0915 29.2532 29.6431 31.5001 24.9148Z" fill="#88250C"/>
<path fill-rule="evenodd" clip-rule="evenodd" d="M33.0001 18.2461C33.0001 20.6297 32.4625 22.8897 31.5001 24.9148L27 22.5L18.25 28.75L19.2501 33.8454C18.5149 33.9473 17.7637 34 17 34C8.16347 34 1 26.9467 1 18.2461C1 15.7744 1.46968 13.6818 2.50003 11.6L6.5 13.75L16.75 7L16.75 2.49229C17.6435 2.3399 16.0624 2.49229 17 2.49229C25.8366 2.49229 33.0001 9.54552 33.0001 18.2461Z" fill="#E45656"/>
<path d="M16.75 7L16.75 2.49229C11.6157 3.36799 4.71175 7.13114 2.50003 11.6L6.5 13.75L16.75 7Z" fill="#FFCDCD"/>
<path fill-rule="evenodd" clip-rule="evenodd" d="M17 33.0154C25.2843 33.0154 32 26.403 32 18.2462C32 10.0893 25.2843 3.47692 17 3.47692C8.71573 3.47692 2 10.0893 2 18.2462C2 26.403 8.71573 33.0154 17 33.0154ZM17 34C25.8366 34 33 26.9468 33 18.2462C33 9.54555 25.8366 2.49231 17 2.49231C8.16344 2.49231 1 9.54555 1 18.2462C1 26.9468 8.16344 34 17 34Z" fill="#333847"/>
<g filter="url(#filter0_ii_1123_10007)">
<path d="M28 18C28 24.0751 22.9632 29 16.75 29C10.5368 29 5.5 24.0751 5.5 18C5.5 11.9249 10.5368 7 16.75 7C22.9632 7 28 11.9249 28 18Z" fill="#F1F1F1"/>
</g>
<path fill-rule="evenodd" clip-rule="evenodd" d="M16.75 28.56C22.7147 28.56 27.55 23.8321 27.55 18C27.55 12.1679 22.7147 7.44 16.75 7.44C10.7853 7.44 5.95 12.1679 5.95 18C5.95 23.8321 10.7853 28.56 16.75 28.56ZM16.75 29C22.9632 29 28 24.0751 28 18C28 11.9249 22.9632 7 16.75 7C10.5368 7 5.5 11.9249 5.5 18C5.5 24.0751 10.5368 29 16.75 29Z" fill="#333847"/>
<path d="M17.5 26.5923C17.5 27.1361 17.0523 27.5769 16.5 27.5769C15.9478 27.5769 15.5 27.1361 15.5 26.5923C15.5 26.0485 15.9478 25.6077 16.5 25.6077C17.0523 25.6077 17.5 26.0485 17.5 26.5923Z" fill="#4F576C"/>
<path d="M16.5 8.75V18.2461L26.2499 18.2461C26.2499 18.2461 26.9553 15.25 23.7053 12C20.4553 8.75003 16.5 8.75 16.5 8.75Z" fill="#4F576C"/>
<ellipse cx="21" cy="24.9846" rx="1" ry="0.984615" fill="#4F576C"/>
<ellipse cx="12.5" cy="24.9846" rx="1" ry="0.984615" fill="#4F576C"/>
<ellipse cx="24.5" cy="21.677" rx="1" ry="0.984615" fill="#4F576C"/>
<ellipse cx="9.5" cy="22.177" rx="1" ry="0.984615" fill="#4F576C"/>
<ellipse cx="8" cy="18.2461" rx="1" ry="0.984615" fill="#4F576C"/>
<ellipse cx="9.5" cy="13.823" rx="1" ry="0.984615" fill="#4F576C"/>
<ellipse cx="12.5" cy="10.3769" rx="1" ry="0.984615" fill="#4F576C"/>
<defs>
<filter id="filter0_ii_1123_10007" x="3.5" y="5" width="26.5" height="26" filterUnits="userSpaceOnUse" color-interpolation-filters="sRGB">
<feFlood flood-opacity="0" result="BackgroundImageFix"/>
<feBlend mode="normal" in="SourceGraphic" in2="BackgroundImageFix" result="shape"/>
<feColorMatrix in="SourceAlpha" type="matrix" values="0 0 0 0 0 0 0 0 0 0 0 0 0 0 0 0 0 0 127 0" result="hardAlpha"/>
<feOffset dx="-2" dy="-3"/>
<feGaussianBlur stdDeviation="1"/>
<feComposite in2="hardAlpha" operator="arithmetic" k2="-1" k3="1"/>
<feColorMatrix type="matrix" values="0 0 0 0 0 0 0 0 0 0 0 0 0 0 0 0 0 0 0.25 0"/>
<feBlend mode="normal" in2="shape" result="effect1_innerShadow_1123_10007"/>
<feColorMatrix in="SourceAlpha" type="matrix" values="0 0 0 0 0 0 0 0 0 0 0 0 0 0 0 0 0 0 127 0" result="hardAlpha"/>
<feOffset dx="2" dy="3"/>
<feGaussianBlur stdDeviation="1"/>
<feComposite in2="hardAlpha" operator="arithmetic" k2="-1" k3="1"/>
<feColorMatrix type="matrix" values="0 0 0 0 1 0 0 0 0 1 0 0 0 0 1 0 0 0 0.6 0"/>
<feBlend mode="normal" in2="effect1_innerShadow_1123_10007" result="effect2_innerShadow_1123_10007"/>
</filter>
</defs>
</svg>
