<svg viewBox="0 0 32 32" fill="none" xmlns="http://www.w3.org/2000/svg">
<g clip-path="url(#clip0_851_10167)">
<path d="M16.3324 7.34871C16.4726 6.05172 16.4207 4.97904 15.6897 4.08725C14.6339 2.79912 13.276 2.40161 11.9433 3.17105C10.611 3.94026 10.51 5.93976 10.0352 6.21387C9.56046 6.48798 7.77837 5.57566 6.44606 6.34487C5.11334 7.11432 4.7788 8.489 5.3663 10.0475C5.78692 11.1633 6.73724 11.7383 7.97425 12.2721C9.62811 12.9857 12.07 13.5269 13.4588 13.7994C14.0803 13.9213 14.6889 13.5708 14.8952 12.972C15.363 11.6143 16.1347 9.17648 16.3324 7.34871Z" fill="#FFD84F"/>
<path fill-rule="evenodd" clip-rule="evenodd" d="M16.9952 7.42037C17.1391 6.08971 17.1168 4.77667 16.2053 3.66462C15.6127 2.94157 14.8957 2.42017 14.0865 2.21191C13.2645 2.00036 12.4136 2.12971 11.61 2.59368C10.7359 3.09834 10.3082 3.97914 10.0484 4.63135C9.98142 4.79941 9.92213 4.96202 9.86997 5.10512C9.81625 5.25249 9.77183 5.37418 9.729 5.47924C9.70997 5.52591 9.69318 5.56439 9.67848 5.59591C9.64383 5.59288 9.60212 5.58818 9.55218 5.58132C9.43977 5.56589 9.31219 5.54351 9.15769 5.51635C9.00769 5.48998 8.83722 5.46001 8.6582 5.43397C7.96344 5.33291 6.98682 5.26285 6.11274 5.76751C5.30911 6.23148 4.77165 6.90375 4.54389 7.72138C4.31969 8.52625 4.41273 9.40786 4.74249 10.2826C5.26709 11.6742 6.4538 12.342 7.71013 12.8842C9.43694 13.6293 11.9432 14.1813 13.3305 14.4535C14.2785 14.6395 15.2108 14.1026 15.5255 13.1892C15.9927 11.8331 16.7885 9.33111 16.9952 7.42037ZM9.80074 5.59874C9.80067 5.59867 9.79894 5.59883 9.79574 5.59939C9.79921 5.59908 9.80081 5.5988 9.80074 5.59874ZM9.62287 5.6992C9.62078 5.70169 9.61978 5.70311 9.61979 5.70321C9.61981 5.7033 9.62086 5.70205 9.62287 5.6992ZM15.6897 4.08723C16.4207 4.97902 16.4726 6.05171 16.3324 7.34869C16.1347 9.17646 15.363 11.6143 14.8952 12.972C14.6889 13.5708 14.0803 13.9213 13.4589 13.7993C12.0701 13.5268 9.62812 12.9857 7.97426 12.272C6.73725 11.7383 5.78693 11.1633 5.36631 10.0475C4.77881 8.48898 5.11335 7.1143 6.44607 6.34486C7.28035 5.86319 8.291 6.04087 9.04657 6.1737C9.49762 6.253 9.85777 6.31632 10.0352 6.21385C10.2127 6.11139 10.338 5.76783 10.4948 5.33756C10.7576 4.61679 11.109 3.6527 11.9433 3.17103C13.276 2.40159 14.6339 2.7991 15.6897 4.08723Z" fill="#5B3303"/>
<path fill-rule="evenodd" clip-rule="evenodd" d="M15.3985 8.83967C15.5791 8.87577 15.6961 9.05138 15.66 9.2319C15.3854 10.6049 14.6385 12.4116 14.3025 13.1396C14.2589 13.2341 14.1737 13.3028 14.0721 13.3253C13.3988 13.475 12.6041 13.3783 11.9114 13.2162C11.2112 13.0523 10.5733 12.8112 10.1935 12.6359C10.0263 12.5588 9.95337 12.3607 10.0305 12.1936C10.1077 12.0264 10.3057 11.9535 10.4729 12.0306C10.8153 12.1887 11.4107 12.4143 12.0633 12.5671C12.6585 12.7064 13.268 12.777 13.7682 12.7037C14.1217 11.9127 14.7648 10.3087 15.0063 9.10116C15.0424 8.92064 15.218 8.80356 15.3985 8.83967Z" fill="#FFF2C5"/>
<path d="M23.4716 17.8438C24.8584 18.4492 25.9069 19.1188 26.3756 20.3673C27.0527 22.1706 26.6568 23.7652 25.102 24.6629C23.5476 25.5603 21.4773 24.5111 20.9234 24.8309C20.3695 25.1507 20.2429 27.4683 18.6886 28.3657C17.1337 29.2634 15.555 28.8087 14.3316 27.3209C13.4557 26.2556 13.4342 24.9688 13.6221 23.4174C13.8832 21.262 14.8301 18.358 15.3611 16.8451C15.5695 16.2517 16.171 15.9034 16.7893 16.0185C18.3876 16.3159 21.4419 16.9578 23.4716 17.8438Z" fill="#F7B307"/>
<path fill-rule="evenodd" clip-rule="evenodd" d="M23.7384 17.2329C25.1556 17.8515 26.4301 18.6155 26.9998 20.133C27.3747 21.1314 27.4742 22.13 27.2172 23.0366C26.9569 23.9553 26.3485 24.7132 25.4354 25.2403C24.4521 25.8081 23.3496 25.7373 22.5445 25.6237C22.3381 25.5946 22.1413 25.5609 21.9666 25.531C21.7875 25.5003 21.6369 25.4746 21.5037 25.4569C21.4036 25.4436 21.3283 25.437 21.2723 25.4352C21.2459 25.4846 21.2139 25.5531 21.1754 25.6464C21.1241 25.7706 21.0711 25.9139 21.0081 26.0844C20.9467 26.2507 20.8775 26.4379 20.7995 26.6312C20.4952 27.3852 20.0054 28.3754 19.022 28.9431C18.1089 29.4703 17.1484 29.6182 16.2226 29.3843C15.309 29.1535 14.494 28.5681 13.8168 27.7443C12.7519 26.4493 12.77 24.9088 12.9604 23.3373C13.2312 21.1012 14.2022 18.1345 14.7322 16.6244C15.0493 15.7208 15.9696 15.1879 16.9113 15.3631C18.5063 15.6599 21.6305 16.3127 23.7384 17.2329ZM21.3188 25.3604C21.3188 25.3604 21.3182 25.3612 21.3169 25.3626C21.3181 25.361 21.3188 25.3603 21.3188 25.3604ZM21.1871 25.4375C21.1853 25.4379 21.1843 25.4381 21.1843 25.438C21.1842 25.438 21.1852 25.4378 21.1871 25.4375ZM26.3757 20.3673C25.907 19.1189 24.8585 18.4492 23.4717 17.8439C21.442 16.9579 18.3877 16.316 16.7894 16.0186C16.171 15.9035 15.5695 16.2518 15.3612 16.8452C14.8302 18.3581 13.8833 21.2621 13.6222 23.4174C13.4343 24.9689 13.4558 26.2557 14.3317 27.3209C15.5551 28.8088 17.1338 29.2635 18.6887 28.3658C19.662 27.8038 20.0754 26.685 20.3845 25.8486C20.5691 25.3492 20.7164 24.9505 20.9235 24.831C21.1305 24.7114 21.5495 24.7832 22.0742 24.8731C22.9531 25.0236 24.1288 25.2249 25.1021 24.663C26.6569 23.7653 27.0527 22.1707 26.3757 20.3673Z" fill="#5B3303"/>
<path fill-rule="evenodd" clip-rule="evenodd" d="M16.2521 16.9915C16.2498 16.9933 16.2326 17.0082 16.2161 17.0558C15.8234 18.1879 15.3078 19.8939 14.9545 21.5829C14.5974 23.2904 14.4207 24.9164 14.6577 25.9236C14.6999 26.1028 14.5888 26.2823 14.4096 26.3244C14.2304 26.3666 14.0509 26.2555 14.0088 26.0763C13.7343 24.9098 13.9454 23.1512 14.302 21.4464C14.6624 19.7233 15.1866 17.9894 15.5862 16.8373C15.6341 16.6992 15.7161 16.5628 15.8458 16.463C15.9801 16.3597 16.1442 16.3128 16.3187 16.325C16.8294 16.3607 18.01 16.5286 20.3986 17.0064C20.5791 17.0425 20.6962 17.2181 20.6601 17.3986C20.624 17.5791 20.4483 17.6962 20.2678 17.6601C17.8791 17.1823 16.7359 17.0225 16.2722 16.9901C16.2592 16.9891 16.2537 16.9908 16.2532 16.9909L16.2532 16.9909C16.2532 16.9909 16.2531 16.9909 16.2531 16.9909C16.253 16.991 16.2529 16.991 16.2521 16.9915Z" fill="#FFEAA0"/>
<path d="M23.6266 16.166C25.0803 16.3145 26.2837 16.2501 27.2882 15.4301C28.7393 14.2455 29.1933 12.7296 28.3383 11.2488C27.4836 9.7685 25.2418 9.668 24.9372 9.14047C24.6326 8.61294 25.6665 6.62116 24.8119 5.14082C23.9569 3.66002 22.4172 3.29541 20.6658 3.9596C19.4118 4.43513 18.7612 5.4978 18.1552 6.87976C17.3249 8.77279 16.6928 11.5868 16.3867 13.114C16.261 13.741 16.6143 14.3552 17.2197 14.5611C18.7152 15.0697 21.528 15.9515 23.6266 16.166Z" fill="#F2A91C"/>
<path fill-rule="evenodd" clip-rule="evenodd" d="M23.5589 16.8292C25.0473 16.9813 26.4876 16.9444 27.71 15.9465C28.5133 15.2907 29.0897 14.5033 29.3227 13.6207C29.5593 12.7246 29.4238 11.7954 28.9158 10.9155C28.367 9.96499 27.4011 9.50095 26.6746 9.21657C26.4877 9.14342 26.3067 9.07868 26.1465 9.02136C25.9819 8.9625 25.8442 8.91322 25.725 8.86547C25.6497 8.83527 25.5918 8.8096 25.548 8.7879C25.5511 8.73911 25.5578 8.67619 25.5694 8.59582C25.5876 8.46875 25.6137 8.32489 25.6451 8.15292C25.6756 7.98546 25.71 7.79634 25.7401 7.59792C25.8571 6.82654 25.9381 5.75804 25.3893 4.8075C24.8814 3.92764 24.1444 3.34571 23.25 3.10254C22.3692 2.86308 21.3991 2.96857 20.4295 3.33627C18.9034 3.915 18.1597 5.20978 17.5448 6.61202C16.6823 8.5787 16.0389 11.4579 15.7332 12.983C15.5418 13.9378 16.0824 14.8785 17.0052 15.1923C18.4982 15.7 21.3764 16.6062 23.5589 16.8292ZM25.5482 8.89194C25.5482 8.89189 25.5481 8.89052 25.5476 8.88798C25.5479 8.89072 25.5481 8.89199 25.5482 8.89194ZM25.4611 8.73826C25.4592 8.73656 25.4581 8.73574 25.458 8.73575C25.4579 8.73577 25.4589 8.73662 25.4611 8.73826ZM27.2884 15.4301C26.2838 16.2501 25.0805 16.3145 23.6267 16.166C21.5281 15.9516 18.7153 15.0697 17.2198 14.5611C16.6144 14.3552 16.2611 13.741 16.3868 13.114C16.693 11.5868 17.3251 8.77281 18.1553 6.87978C18.7614 5.49782 19.412 4.43515 20.6659 3.95962C22.4173 3.29543 23.9571 3.66004 24.812 5.14084C25.3472 6.06781 25.1418 7.19533 24.9883 8.03829C24.8967 8.54149 24.8235 8.94329 24.9373 9.14049C25.0512 9.33768 25.4357 9.47521 25.9174 9.64744C26.7241 9.93596 27.8033 10.3219 28.3385 11.2489C29.1934 12.7297 28.7394 14.2456 27.2884 15.4301Z" fill="#5B3303"/>
<path fill-rule="evenodd" clip-rule="evenodd" d="M15.8447 16.4643C15.9788 16.3607 16.1431 16.3127 16.3186 16.325C16.5148 16.3387 16.8046 16.3715 17.2151 16.4319C17.3972 16.4587 17.5231 16.6281 17.4963 16.8103C17.4695 16.9924 17.3001 17.1183 17.118 17.0915C16.7152 17.0322 16.4441 17.0021 16.2721 16.99C16.2596 16.9892 16.2544 16.9907 16.2539 16.9908L16.2539 16.9909C16.2539 16.9909 16.2539 16.9909 16.2539 16.9909C16.2537 16.9909 16.2535 16.9909 16.2525 16.9917C16.2496 16.994 16.2321 17.0096 16.2156 17.0572C16.0785 17.4525 15.9261 17.9186 15.7708 18.4301C15.7173 18.6063 15.5311 18.7057 15.355 18.6522C15.1788 18.5987 15.0794 18.4126 15.1329 18.2364C15.2906 17.7169 15.4457 17.2426 15.5857 16.8388C15.6336 16.7008 15.7155 16.5643 15.8447 16.4643Z" fill="#FFF8E1"/>
<path d="M12.4013 22.0201C11.8743 23.2135 11.293 24.1164 10.214 24.5233C8.65563 25.1109 7.28089 24.7762 6.51144 23.4435C5.74224 22.1112 6.65456 20.3291 6.38044 19.8543C6.10633 19.3796 4.10683 19.2786 3.33762 17.9463C2.56818 16.6136 2.9658 15.2558 4.25382 14.1999C5.176 13.4439 6.2865 13.4211 7.62466 13.5773C9.41377 13.7862 11.7991 14.5385 13.1381 14.9969C13.7373 15.2021 14.0891 15.8099 13.9684 16.4316C13.6946 17.8413 13.144 20.3384 12.4013 22.0201Z" fill="#FFCF23"/>
<path fill-rule="evenodd" clip-rule="evenodd" d="M13.0112 22.2894C12.4705 23.5137 11.7947 24.6397 10.4493 25.147C9.57456 25.4769 8.69292 25.57 7.88803 25.3457C7.0704 25.1179 6.39812 24.5804 5.93415 23.7768C5.4295 22.9027 5.49955 21.9261 5.60061 21.2314C5.62665 21.0523 5.65662 20.8819 5.68299 20.7319C5.71015 20.5774 5.73253 20.4498 5.74797 20.3374C5.75482 20.2874 5.75953 20.2457 5.76255 20.2111C5.73103 20.1964 5.69256 20.1796 5.64588 20.1606C5.54082 20.1177 5.41913 20.0733 5.27176 20.0196C5.12866 19.9674 4.96605 19.9081 4.79799 19.8412C4.14578 19.5813 3.26498 19.1537 2.76033 18.2796C2.29635 17.476 2.16703 16.625 2.3786 15.8031C2.58687 14.9939 3.10826 14.277 3.83121 13.6843C4.98134 12.7414 6.34296 12.7564 7.70203 12.9151C9.57005 13.1332 12.0165 13.9082 13.3541 14.3662C14.2681 14.6791 14.807 15.6102 14.6229 16.5587C14.3495 17.9666 13.7876 20.5313 13.0112 22.2894ZM5.86985 20.2698C5.86976 20.2698 5.86833 20.2688 5.86584 20.2667C5.86869 20.2687 5.86994 20.2697 5.86985 20.2698ZM5.76604 20.0938C5.76547 20.0906 5.76532 20.0889 5.76538 20.0888C5.76544 20.0888 5.76572 20.0904 5.76604 20.0938ZM10.2141 24.5233C11.293 24.1164 11.8744 23.2134 12.4014 22.0201C13.1441 20.3383 13.6947 17.8413 13.9684 16.4316C14.0892 15.8098 13.7374 15.202 13.1382 14.9969C11.7992 14.5385 9.41383 13.7862 7.62472 13.5773C6.28655 13.421 5.17605 13.4438 4.25387 14.1998C2.96585 15.2558 2.56823 16.6136 3.33768 17.9463C3.81935 18.7806 4.78343 19.132 5.5042 19.3947C5.93447 19.5516 6.27803 19.6768 6.3805 19.8543C6.48296 20.0318 6.41964 20.3919 6.34035 20.843C6.20751 21.5986 6.02983 22.6092 6.5115 23.4435C7.28094 24.7762 8.65569 25.1109 10.2141 24.5233Z" fill="#5B3303"/>
<path fill-rule="evenodd" clip-rule="evenodd" d="M6.67304 13.9347C6.70913 13.7541 6.88474 13.6371 7.06526 13.6732C8.73052 14.0061 11.4418 14.6135 13.4901 15.7058C13.6163 15.7732 13.6855 15.9136 13.662 16.0547C13.4944 17.06 13.1996 18.6208 12.7128 20.1235C12.2315 21.6092 11.5412 23.1089 10.5443 23.9246C10.4018 24.0412 10.1918 24.0202 10.0752 23.8777C9.95863 23.7352 9.97963 23.5252 10.1221 23.4086C10.9585 22.7243 11.6015 21.3907 12.0786 19.9181C12.5139 18.5744 12.7931 17.1737 12.9639 16.1838C11.0378 15.211 8.54274 14.6485 6.93454 14.3269C6.75402 14.2908 6.63694 14.1152 6.67304 13.9347Z" fill="#FFEDAB"/>
<path fill-rule="evenodd" clip-rule="evenodd" d="M18.9352 6.34933C19.1105 6.40567 19.2069 6.59341 19.1506 6.76868C18.6902 8.20096 17.7557 11.3007 17.4053 13.1173C17.3808 13.2445 17.4416 13.3546 17.5415 13.3998C18.4933 13.8297 20.6591 14.5515 24.044 15.0029C24.2264 15.0272 24.3546 15.1948 24.3303 15.3773C24.306 15.5598 24.1383 15.688 23.9559 15.6637C20.522 15.2058 18.2907 14.4697 17.267 14.0073C16.8678 13.827 16.6715 13.4016 16.7507 12.991C17.1095 11.1306 18.0558 7.99616 18.5159 6.56467C18.5722 6.38941 18.76 6.293 18.9352 6.34933Z" fill="#F8CC34"/>
<path d="M18.6667 19.3332C18.6667 20.0696 18.0697 20.6665 17.3333 20.6665C16.597 20.6665 16 20.0696 16 19.3332C16 18.5968 16.597 17.9999 17.3333 17.9999C18.0697 17.9999 18.6667 18.5968 18.6667 19.3332Z" fill="#FBE28C"/>
<path d="M20.9999 11.9998C20.9999 12.7362 20.403 13.3332 19.6666 13.3332C18.9302 13.3332 18.3333 12.7362 18.3333 11.9998C18.3333 11.2635 18.9302 10.6665 19.6666 10.6665C20.403 10.6665 20.9999 11.2635 20.9999 11.9998Z" fill="#FDD442"/>
<path d="M13.9998 10.8332C13.9998 11.4775 13.4775 11.9998 12.8332 11.9998C12.1888 11.9998 11.6665 11.4775 11.6665 10.8332C11.6665 10.1888 12.1888 9.6665 12.8332 9.6665C13.4775 9.6665 13.9998 10.1888 13.9998 10.8332Z" fill="#FFE68C"/>
<path d="M12.3331 17.1665C12.3331 17.8109 11.8108 18.3332 11.1664 18.3332C10.5221 18.3332 9.99976 17.8109 9.99976 17.1665C9.99976 16.5222 10.5221 15.9999 11.1664 15.9999C11.8108 15.9999 12.3331 16.5222 12.3331 17.1665Z" fill="#FFE68C"/>
<path d="M22.6664 22.6666C22.6664 22.8507 22.5172 22.9999 22.3331 22.9999C22.149 22.9999 21.9998 22.8507 21.9998 22.6666C21.9998 22.4825 22.149 22.3333 22.3331 22.3333C22.5172 22.3333 22.6664 22.4825 22.6664 22.6666Z" fill="#DD9F01"/>
<path d="M25.6664 22.3333C25.6664 22.5174 25.5172 22.6667 25.3331 22.6667C25.149 22.6667 24.9998 22.5174 24.9998 22.3333C24.9998 22.1492 25.149 22 25.3331 22C25.5172 22 25.6664 22.1492 25.6664 22.3333Z" fill="#DD9F01"/>
<path d="M24.3332 20.3333C24.3332 20.5174 24.1839 20.6667 23.9998 20.6667C23.8157 20.6667 23.6665 20.5174 23.6665 20.3333C23.6665 20.1492 23.8157 20 23.9998 20C24.1839 20 24.3332 20.1492 24.3332 20.3333Z" fill="#DD9F01"/>
<path d="M22.9999 23.6666C22.9999 23.8507 22.8507 23.9999 22.6666 23.9999C22.4825 23.9999 22.3333 23.8507 22.3333 23.6666C22.3333 23.4825 22.4825 23.3333 22.6666 23.3333C22.8507 23.3333 22.9999 23.4825 22.9999 23.6666Z" fill="#DD9F01"/>
<path d="M21.3332 23.3333C21.3332 23.5174 21.1839 23.6667 20.9998 23.6667C20.8157 23.6667 20.6665 23.5174 20.6665 23.3333C20.6665 23.1492 20.8157 23 20.9998 23C21.1839 23 21.3332 23.1492 21.3332 23.3333Z" fill="#DD9F01"/>
<path d="M24.6665 23.5C24.6665 23.7761 24.4426 24 24.1665 24C23.8904 24 23.6665 23.7761 23.6665 23.5C23.6665 23.2239 23.8904 23 24.1665 23C24.4426 23 24.6665 23.2239 24.6665 23.5Z" fill="#DD9F01"/>
<path d="M24.6665 21.8333C24.6665 22.1094 24.4426 22.3333 24.1665 22.3333C23.8904 22.3333 23.6665 22.1094 23.6665 21.8333C23.6665 21.5571 23.8904 21.3333 24.1665 21.3333C24.4426 21.3333 24.6665 21.5571 24.6665 21.8333Z" fill="#DD9F01"/>
<path d="M25.6665 20.1666C25.6665 20.4428 25.4426 20.6666 25.1665 20.6666C24.8904 20.6666 24.6665 20.4428 24.6665 20.1666C24.6665 19.8905 24.8904 19.6666 25.1665 19.6666C25.4426 19.6666 25.6665 19.8905 25.6665 20.1666Z" fill="#DD9F01"/>
<path d="M5.23003 15.6186C5.19156 15.4989 5.25746 15.3706 5.37722 15.3321C5.49699 15.2937 5.62526 15.3596 5.66374 15.4793C5.70221 15.5991 5.63631 15.7274 5.51655 15.7658C5.39678 15.8043 5.26851 15.7384 5.23003 15.6186Z" fill="#FFE37E"/>
<path d="M3.3482 16.4625C3.30972 16.3427 3.37562 16.2145 3.49539 16.176C3.61515 16.1375 3.74343 16.2034 3.7819 16.3232C3.82037 16.443 3.75447 16.5712 3.63471 16.6097C3.51495 16.6482 3.38667 16.5823 3.3482 16.4625Z" fill="#FFE37E"/>
<path d="M4.6336 17.485C4.59512 17.3652 4.66102 17.2369 4.78079 17.1985C4.90055 17.16 5.02883 17.2259 5.0673 17.3456C5.10577 17.4654 5.03987 17.5937 4.92011 17.6322C4.80035 17.6706 4.67207 17.6047 4.6336 17.485Z" fill="#FFE37E"/>
<path d="M4.80425 15.0378C4.76578 14.9181 4.83168 14.7898 4.95144 14.7513C5.0712 14.7128 5.19948 14.7787 5.23796 14.8985C5.27643 15.0183 5.21053 15.1465 5.09077 15.185C4.971 15.2235 4.84272 15.1576 4.80425 15.0378Z" fill="#FFE37E"/>
<path d="M5.9583 14.9064C5.91983 14.7866 5.98573 14.6583 6.10549 14.6198C6.22526 14.5814 6.35353 14.6473 6.39201 14.767C6.43048 14.8868 6.36458 15.0151 6.24482 15.0535C6.12505 15.092 5.99678 15.0261 5.9583 14.9064Z" fill="#FFE37E"/>
<path d="M3.75496 15.4945C3.69725 15.3149 3.7961 15.1225 3.97575 15.0648C4.15539 15.0071 4.34781 15.1059 4.40552 15.2856C4.46323 15.4652 4.36438 15.6576 4.18473 15.7153C4.00509 15.773 3.81267 15.6742 3.75496 15.4945Z" fill="#FFE37E"/>
<path d="M4.1031 16.5788C4.04539 16.3991 4.14424 16.2067 4.32389 16.149C4.50354 16.0913 4.69595 16.1901 4.75366 16.3698C4.81137 16.5494 4.71252 16.7419 4.53288 16.7996C4.35323 16.8573 4.16081 16.7584 4.1031 16.5788Z" fill="#FFE37E"/>
<path d="M3.80086 17.872C3.74315 17.6923 3.842 17.4999 4.02164 17.4422C4.20129 17.3845 4.3937 17.4834 4.45141 17.663C4.50912 17.8426 4.41028 18.0351 4.23063 18.0928C4.05098 18.1505 3.85857 18.0516 3.80086 17.872Z" fill="#FFE37E"/>
<path d="M24.6667 9.99984C24.6667 10.1839 24.5174 10.3332 24.3333 10.3332C24.1492 10.3332 24 10.1839 24 9.99984C24 9.81574 24.1492 9.6665 24.3333 9.6665C24.5174 9.6665 24.6667 9.81574 24.6667 9.99984Z" fill="#DA930A"/>
<path d="M23.6667 10.6666C23.6667 10.8507 23.5174 10.9999 23.3333 10.9999C23.1492 10.9999 23 10.8507 23 10.6666C23 10.4825 23.1492 10.3333 23.3333 10.3333C23.5174 10.3333 23.6667 10.4825 23.6667 10.6666Z" fill="#DA930A"/>
<path d="M22.6667 7.99984C22.6667 8.18393 22.5174 8.33317 22.3333 8.33317C22.1492 8.33317 22 8.18393 22 7.99984C22 7.81574 22.1492 7.6665 22.3333 7.6665C22.5174 7.6665 22.6667 7.81574 22.6667 7.99984Z" fill="#DA930A"/>
<path d="M24.9999 6.99984C24.9999 7.18393 24.8507 7.33317 24.6666 7.33317C24.4825 7.33317 24.3333 7.18393 24.3333 6.99984C24.3333 6.81574 24.4825 6.6665 24.6666 6.6665C24.8507 6.6665 24.9999 6.81574 24.9999 6.99984Z" fill="#DA930A"/>
<path d="M24.3334 5.33321C24.3334 5.51731 24.1842 5.66654 24.0001 5.66654C23.816 5.66654 23.6667 5.51731 23.6667 5.33321C23.6667 5.14912 23.816 4.99988 24.0001 4.99988C24.1842 4.99988 24.3334 5.14912 24.3334 5.33321Z" fill="#DA930A"/>
<path d="M23.6667 6.66659C23.6667 6.85068 23.5174 6.99992 23.3333 6.99992C23.1492 6.99992 23 6.85068 23 6.66659C23 6.48249 23.1492 6.33325 23.3333 6.33325C23.5174 6.33325 23.6667 6.48249 23.6667 6.66659Z" fill="#DA930A"/>
<path d="M24.3333 8.49988C24.3333 8.77602 24.1094 8.99988 23.8333 8.99988C23.5571 8.99988 23.3333 8.77602 23.3333 8.49988C23.3333 8.22374 23.5571 7.99988 23.8333 7.99988C24.1094 7.99988 24.3333 8.22374 24.3333 8.49988Z" fill="#DA930A"/>
<path d="M26.3333 10.4999C26.3333 10.776 26.1094 10.9999 25.8333 10.9999C25.5571 10.9999 25.3333 10.776 25.3333 10.4999C25.3333 10.2237 25.5571 9.99988 25.8333 9.99988C26.1094 9.99988 26.3333 10.2237 26.3333 10.4999Z" fill="#DA930A"/>
<path d="M23 9.49988C23 9.77602 22.7761 9.99988 22.5 9.99988C22.2239 9.99988 22 9.77602 22 9.49988C22 9.22374 22.2239 8.99988 22.5 8.99988C22.7761 8.99988 23 9.22374 23 9.49988Z" fill="#DA930A"/>
<path d="M11.42 6.18045C11.5586 6.14481 11.6998 6.22827 11.7354 6.36685C11.7711 6.50544 11.6876 6.64667 11.549 6.6823C11.4104 6.71794 11.2692 6.63448 11.2336 6.4959C11.1979 6.35731 11.2814 6.21608 11.42 6.18045Z" fill="#FFE68B"/>
<path d="M12.1153 6.8041C12.2539 6.76847 12.3951 6.85193 12.4307 6.99051C12.4664 7.12909 12.3829 7.27033 12.2443 7.30596C12.1058 7.3416 11.9645 7.25814 11.9289 7.11956C11.8933 6.98097 11.9767 6.83974 12.1153 6.8041Z" fill="#FFE68B"/>
<path d="M10.3016 8.07303C10.4402 8.03739 10.5814 8.12085 10.617 8.25943C10.6527 8.39801 10.5692 8.53925 10.4306 8.57488C10.292 8.61052 10.1508 8.52706 10.1152 8.38848C10.0795 8.24989 10.163 8.10866 10.3016 8.07303Z" fill="#FFE68B"/>
<path d="M9.09698 6.51016C9.23556 6.47452 9.3768 6.55798 9.41243 6.69656C9.44807 6.83515 9.36461 6.97638 9.22603 7.01202C9.08744 7.04765 8.94621 6.96419 8.91058 6.82561C8.87494 6.68703 8.9584 6.54579 9.09698 6.51016Z" fill="#FFE68B"/>
<path d="M7.97149 7.33462C8.11008 7.29899 8.25131 7.38244 8.28694 7.52103C8.32258 7.65961 8.23912 7.80084 8.10054 7.83648C7.96195 7.87211 7.82072 7.78866 7.78509 7.65007C7.74945 7.51149 7.83291 7.37026 7.97149 7.33462Z" fill="#FFE68B"/>
<path d="M9.10406 7.5784C9.24264 7.54276 9.38388 7.62622 9.41951 7.7648C9.45515 7.90339 9.37169 8.04462 9.23311 8.08025C9.09452 8.11589 8.95329 8.03243 8.91766 7.89385C8.88202 7.75526 8.96548 7.61403 9.10406 7.5784Z" fill="#FFE68B"/>
<path d="M10.3552 6.7216C10.5631 6.66815 10.7749 6.79333 10.8284 7.00121C10.8818 7.20908 10.7566 7.42093 10.5488 7.47438C10.3409 7.52784 10.129 7.40265 10.0756 7.19477C10.0221 6.9869 10.1473 6.77505 10.3552 6.7216Z" fill="#FFE68B"/>
<path d="M11.4736 4.8289C11.6815 4.77545 11.8933 4.90063 11.9468 5.10851C12.0002 5.31638 11.875 5.52823 11.6672 5.58168C11.4593 5.63514 11.2474 5.50995 11.194 5.30207C11.1405 5.0942 11.2657 4.88235 11.4736 4.8289Z" fill="#FFE68B"/>
<path d="M11.3662 7.53178C11.574 7.47833 11.7859 7.60351 11.8394 7.81139C11.8928 8.01926 11.7676 8.23111 11.5597 8.28456C11.3519 8.33802 11.14 8.21283 11.0866 8.00496C11.0331 7.79708 11.1583 7.58523 11.3662 7.53178Z" fill="#FFE68B"/>
</g>
<defs>
<clipPath id="clip0_851_10167">
<rect width="32" height="32" fill="white"/>
</clipPath>
</defs>
</svg>
