<svg viewBox="0 0 32 32" fill="none" xmlns="http://www.w3.org/2000/svg">
<g clip-path="url(#clip0_851_10166)">
<path d="M16.3324 7.34883C16.4726 6.05185 16.4207 4.97916 15.6897 4.08737C14.6339 2.79924 13.276 2.40173 11.9433 3.17117C10.611 3.94038 10.51 5.93988 10.0352 6.21399C9.56046 6.48811 7.77837 5.57579 6.44606 6.34499C5.11335 7.11444 4.7788 8.48912 5.3663 10.0476C5.78692 11.1634 6.73724 11.7384 7.97425 12.2722C9.62812 12.9858 12.07 13.527 13.4588 13.7995C14.0803 13.9214 14.6889 13.5709 14.8952 12.9721C15.363 11.6144 16.1347 9.1766 16.3324 7.34883Z" fill="#5BDD9E"/>
<path fill-rule="evenodd" clip-rule="evenodd" d="M16.9952 7.42049C17.1391 6.08983 17.1168 4.77679 16.2053 3.66475C15.6127 2.94169 14.8957 2.42029 14.0865 2.21204C13.2645 2.00048 12.4136 2.12984 11.61 2.59381C10.7359 3.09846 10.3082 3.97926 10.0484 4.63147C9.98142 4.79953 9.92213 4.96214 9.86997 5.10524C9.81625 5.25261 9.77183 5.3743 9.729 5.47936C9.70997 5.52604 9.69318 5.56451 9.67848 5.59603C9.64383 5.59301 9.60212 5.5883 9.55218 5.58145C9.43977 5.56601 9.31219 5.54363 9.15769 5.51647C9.00769 5.4901 8.83722 5.46013 8.6582 5.43409C7.96344 5.33303 6.98682 5.26297 6.11274 5.76763C5.30911 6.2316 4.77165 6.90388 4.54389 7.7215C4.31969 8.52637 4.41273 9.40798 4.74249 10.2827C5.26709 11.6744 6.4538 12.3422 7.71013 12.8843C9.43694 13.6294 11.9432 14.1815 13.3305 14.4537C14.2785 14.6397 15.2108 14.1027 15.5255 13.1893C15.9927 11.8333 16.7885 9.33123 16.9952 7.42049ZM9.80074 5.59886C9.80067 5.5988 9.79894 5.59895 9.79574 5.59952C9.79921 5.5992 9.80081 5.59892 9.80074 5.59886ZM9.62287 5.69932C9.62078 5.70181 9.61978 5.70324 9.61979 5.70333C9.61981 5.70342 9.62086 5.70217 9.62287 5.69932ZM15.6897 4.08735C16.4207 4.97915 16.4726 6.05183 16.3324 7.34881C16.1347 9.17659 15.363 11.6144 14.8952 12.9721C14.6889 13.5709 14.0803 13.9214 13.4589 13.7995C12.0701 13.527 9.62812 12.9858 7.97426 12.2722C6.73725 11.7384 5.78693 11.1634 5.36631 10.0476C4.77881 8.4891 5.11335 7.11442 6.44607 6.34498C7.28035 5.86331 8.291 6.04099 9.04657 6.17383C9.49762 6.25312 9.85777 6.31644 10.0352 6.21398C10.2127 6.11151 10.338 5.76795 10.4948 5.33768C10.7576 4.61691 11.109 3.65283 11.9433 3.17116C13.276 2.40171 14.6339 2.79922 15.6897 4.08735Z" fill="#024525"/>
<path fill-rule="evenodd" clip-rule="evenodd" d="M15.3985 8.83979C15.5791 8.87589 15.6961 9.0515 15.66 9.23202C15.3854 10.605 14.6385 12.4117 14.3025 13.1397C14.2589 13.2342 14.1737 13.3029 14.0721 13.3255C13.3988 13.4751 12.6041 13.3785 11.9114 13.2163C11.2112 13.0524 10.5733 12.8113 10.1935 12.6361C10.0263 12.5589 9.95337 12.3609 10.0305 12.1937C10.1077 12.0266 10.3057 11.9536 10.4729 12.0307C10.8153 12.1888 11.4107 12.4144 12.0633 12.5672C12.6585 12.7065 13.268 12.7771 13.7682 12.7038C14.1217 11.9129 14.7648 10.3088 15.0063 9.10128C15.0424 8.92076 15.218 8.80369 15.3985 8.83979Z" fill="#7CF8BC"/>
<path d="M23.4716 17.8439C24.8584 18.4493 25.9069 19.1189 26.3756 20.3674C27.0527 22.1707 26.6568 23.7654 25.102 24.663C23.5476 25.5604 21.4773 24.5112 20.9234 24.831C20.3695 25.1508 20.2429 27.4684 18.6886 28.3658C17.1337 29.2635 15.555 28.8089 14.3316 27.321C13.4557 26.2557 13.4342 24.9689 13.6221 23.4175C13.8832 21.2621 14.8301 18.3581 15.3611 16.8453C15.5695 16.2518 16.171 15.9036 16.7893 16.0186C18.3876 16.316 21.4419 16.9579 23.4716 17.8439Z" fill="#34AD73"/>
<path fill-rule="evenodd" clip-rule="evenodd" d="M23.7384 17.233C25.1556 17.8517 26.4301 18.6156 26.9998 20.1331C27.3747 21.1315 27.4742 22.1301 27.2172 23.0367C26.9569 23.9554 26.3485 24.7133 25.4354 25.2405C24.4521 25.8082 23.3496 25.7374 22.5445 25.6239C22.3381 25.5947 22.1413 25.5611 21.9666 25.5311C21.7875 25.5005 21.6369 25.4747 21.5037 25.457C21.4036 25.4437 21.3283 25.4371 21.2723 25.4354C21.2459 25.4847 21.2139 25.5532 21.1754 25.6465C21.1241 25.7708 21.0711 25.9141 21.0081 26.0845C20.9467 26.2508 20.8775 26.438 20.7995 26.6314C20.4952 27.3854 20.0054 28.3755 19.022 28.9433C18.1089 29.4704 17.1484 29.6183 16.2226 29.3844C15.309 29.1536 14.494 28.5682 13.8168 27.7445C12.7519 26.4494 12.77 24.9089 12.9604 23.3374C13.2312 21.1013 14.2022 18.1346 14.7322 16.6245C15.0493 15.721 15.9696 15.188 16.9113 15.3633C18.5063 15.6601 21.6305 16.3129 23.7384 17.233ZM21.3188 25.3605C21.3188 25.3605 21.3182 25.3613 21.3169 25.3627C21.3181 25.3612 21.3188 25.3605 21.3188 25.3605ZM21.1871 25.4376C21.1853 25.438 21.1843 25.4382 21.1843 25.4382C21.1842 25.4381 21.1852 25.4379 21.1871 25.4376ZM26.3757 20.3675C25.907 19.119 24.8585 18.4494 23.4717 17.844C21.442 16.958 18.3877 16.3161 16.7894 16.0187C16.171 15.9036 15.5695 16.2519 15.3612 16.8453C14.8302 18.3582 13.8833 21.2622 13.6222 23.4176C13.4343 24.969 13.4558 26.2558 14.3317 27.3211C15.5551 28.8089 17.1338 29.2636 18.6887 28.3659C19.662 27.804 20.0754 26.6851 20.3845 25.8487C20.5691 25.3494 20.7164 24.9507 20.9235 24.8311C21.1305 24.7116 21.5495 24.7833 22.0742 24.8732C22.9531 25.0237 24.1288 25.2251 25.1021 24.6631C26.6569 23.7654 27.0527 22.1708 26.3757 20.3675Z" fill="#024525"/>
<path fill-rule="evenodd" clip-rule="evenodd" d="M16.2521 16.9917C16.2498 16.9935 16.2326 17.0084 16.2161 17.0559C15.8234 18.188 15.3078 19.894 14.9545 21.583C14.5974 23.2905 14.4207 24.9165 14.6577 25.9238C14.6999 26.103 14.5888 26.2824 14.4096 26.3246C14.2304 26.3667 14.0509 26.2556 14.0088 26.0764C13.7343 24.91 13.9454 23.1514 14.302 21.4466C14.6624 19.7234 15.1866 17.9895 15.5862 16.8374C15.6341 16.6994 15.7161 16.5629 15.8458 16.4632C15.9801 16.3599 16.1442 16.3129 16.3187 16.3251C16.8294 16.3608 18.01 16.5288 20.3986 17.0065C20.5791 17.0426 20.6962 17.2182 20.6601 17.3987C20.624 17.5792 20.4483 17.6963 20.2678 17.6602C17.8791 17.1825 16.7359 17.0226 16.2722 16.9902C16.2592 16.9893 16.2537 16.9909 16.2532 16.991L16.2532 16.991C16.2532 16.991 16.2531 16.991 16.2531 16.991C16.253 16.9911 16.2529 16.9911 16.2521 16.9917Z" fill="#63E3A5"/>
<path d="M23.6266 16.1661C25.0803 16.3146 26.2837 16.2502 27.2882 15.4302C28.7393 14.2457 29.1933 12.7298 28.3383 11.249C27.4836 9.76862 25.2418 9.66812 24.9372 9.14059C24.6326 8.61306 25.6665 6.62128 24.8119 5.14094C23.9569 3.66015 22.4172 3.29554 20.6658 3.95972C19.4118 4.43525 18.7612 5.49792 18.1552 6.87988C17.3249 8.77292 16.6928 11.5869 16.3867 13.1141C16.261 13.7411 16.6143 14.3553 17.2197 14.5612C18.7152 15.0698 21.528 15.9517 23.6266 16.1661Z" fill="#1BA965"/>
<path fill-rule="evenodd" clip-rule="evenodd" d="M23.5589 16.8293C25.0473 16.9814 26.4876 16.9445 27.71 15.9466C28.5133 15.2908 29.0897 14.5034 29.3227 13.6209C29.5593 12.7247 29.4238 11.7955 28.9158 10.9156C28.367 9.96511 27.4011 9.50108 26.6746 9.21669C26.4877 9.14354 26.3067 9.0788 26.1465 9.02148C25.9819 8.96262 25.8442 8.91334 25.725 8.86559C25.6497 8.83539 25.5918 8.80972 25.548 8.78802C25.5511 8.73923 25.5578 8.67631 25.5694 8.59595C25.5876 8.46887 25.6137 8.32501 25.6451 8.15305C25.6756 7.98558 25.71 7.79646 25.7401 7.59804C25.8571 6.82666 25.9381 5.75816 25.3893 4.80762C24.8814 3.92776 24.1444 3.34583 23.25 3.10266C22.3692 2.8632 21.3991 2.96869 20.4295 3.33639C18.9034 3.91512 18.1597 5.2099 17.5448 6.61214C16.6823 8.57882 16.0389 11.4581 15.7332 12.9831C15.5418 13.9379 16.0824 14.8786 17.0052 15.1924C18.4982 15.7001 21.3764 16.6063 23.5589 16.8293ZM25.5482 8.89207C25.5482 8.89202 25.5481 8.89064 25.5476 8.8881C25.5479 8.89084 25.5481 8.89212 25.5482 8.89207ZM25.4611 8.73838C25.4592 8.73668 25.4581 8.73586 25.458 8.73587C25.4579 8.73589 25.4589 8.73674 25.4611 8.73838ZM27.2884 15.4302C26.2838 16.2503 25.0805 16.3147 23.6267 16.1661C21.5281 15.9517 18.7153 15.0698 17.2198 14.5612C16.6144 14.3553 16.2612 13.7411 16.3868 13.1141C16.693 11.5869 17.3251 8.77293 18.1553 6.8799C18.7614 5.49794 19.412 4.43527 20.6659 3.95974C22.4173 3.29555 23.9571 3.66016 24.812 5.14096C25.3472 6.06793 25.1418 7.19545 24.9883 8.03841C24.8967 8.54161 24.8235 8.94341 24.9373 9.14061C25.0512 9.33781 25.4357 9.47533 25.9174 9.64757C26.7241 9.93609 27.8033 10.322 28.3385 11.249C29.1934 12.7298 28.7394 14.2457 27.2884 15.4302Z" fill="#024525"/>
<path fill-rule="evenodd" clip-rule="evenodd" d="M15.8447 16.4644C15.9788 16.3608 16.1431 16.3129 16.3186 16.3251C16.5148 16.3388 16.8046 16.3716 17.2151 16.432C17.3972 16.4589 17.5231 16.6283 17.4963 16.8104C17.4695 16.9925 17.3001 17.1184 17.118 17.0916C16.7152 17.0323 16.4441 17.0022 16.2721 16.9902C16.2596 16.9893 16.2544 16.9908 16.2539 16.991L16.2539 16.991C16.2539 16.991 16.2539 16.991 16.2539 16.991C16.2537 16.991 16.2535 16.9911 16.2525 16.9918C16.2496 16.9941 16.2321 17.0097 16.2156 17.0574C16.0785 17.4527 15.9261 17.9187 15.7708 18.4302C15.7173 18.6064 15.5311 18.7058 15.355 18.6523C15.1788 18.5989 15.0794 18.4127 15.1329 18.2365C15.2906 17.717 15.4457 17.2427 15.5857 16.8389C15.6336 16.7009 15.7155 16.5644 15.8447 16.4644Z" fill="#DAFFED"/>
<path d="M12.4013 22.0201C11.8743 23.2135 11.293 24.1164 10.214 24.5233C8.65563 25.1109 7.28089 24.7762 6.51144 23.4435C5.74224 22.1112 6.65456 20.3291 6.38044 19.8543C6.10633 19.3796 4.10683 19.2786 3.33762 17.9463C2.56818 16.6136 2.9658 15.2558 4.25382 14.1999C5.176 13.4439 6.2865 13.4211 7.62466 13.5773C9.41377 13.7862 11.7991 14.5385 13.1381 14.9969C13.7373 15.2021 14.0891 15.8099 13.9684 16.4316C13.6946 17.8413 13.144 20.3384 12.4013 22.0201Z" fill="#4ECC8F"/>
<path fill-rule="evenodd" clip-rule="evenodd" d="M13.0112 22.2895C12.4705 23.5139 11.7947 24.6398 10.4493 25.1472C9.57456 25.477 8.69292 25.5701 7.88803 25.3458C7.0704 25.1181 6.39812 24.5806 5.93415 23.7769C5.4295 22.9029 5.49955 21.9262 5.60061 21.2315C5.62665 21.0525 5.65662 20.882 5.68299 20.732C5.71015 20.5775 5.73253 20.4499 5.74797 20.3375C5.75482 20.2876 5.75953 20.2459 5.76255 20.2112C5.73103 20.1965 5.69256 20.1797 5.64588 20.1607C5.54082 20.1178 5.41913 20.0734 5.27176 20.0197C5.12866 19.9675 4.96605 19.9083 4.79799 19.8413C4.14578 19.5814 3.26498 19.1538 2.76033 18.2797C2.29635 17.4761 2.16703 16.6252 2.3786 15.8032C2.58687 14.9941 3.10826 14.2771 3.83121 13.6844C4.98134 12.7415 6.34296 12.7565 7.70203 12.9152C9.57005 13.1333 12.0165 13.9084 13.3541 14.3663C14.2681 14.6792 14.807 15.6104 14.6229 16.5588C14.3495 17.9667 13.7876 20.5315 13.0112 22.2895ZM5.86985 20.2699C5.86976 20.2699 5.86833 20.2689 5.86584 20.2668C5.86869 20.2688 5.86994 20.2699 5.86985 20.2699ZM5.76604 20.0939C5.76547 20.0907 5.76532 20.089 5.76538 20.0889C5.76544 20.0889 5.76572 20.0905 5.76604 20.0939ZM10.2141 24.5234C11.293 24.1165 11.8744 23.2136 12.4014 22.0202C13.1441 20.3385 13.6947 17.8414 13.9684 16.4317C14.0892 15.81 13.7374 15.2021 13.1382 14.997C11.7992 14.5386 9.41383 13.7863 7.62472 13.5774C6.28655 13.4211 5.17605 13.444 4.25387 14.2C2.96585 15.2559 2.56823 16.6137 3.33768 17.9464C3.81935 18.7807 4.78343 19.1321 5.5042 19.3949C5.93447 19.5517 6.27803 19.677 6.3805 19.8544C6.48296 20.0319 6.41964 20.3921 6.34035 20.8431C6.20751 21.5987 6.02983 22.6093 6.5115 23.4436C7.28094 24.7763 8.65569 25.111 10.2141 24.5234Z" fill="#024525"/>
<path fill-rule="evenodd" clip-rule="evenodd" d="M6.67304 13.9348C6.70913 13.7543 6.88474 13.6372 7.06526 13.6733C8.73052 14.0063 11.4418 14.6136 13.4901 15.7059C13.6163 15.7733 13.6855 15.9137 13.662 16.0549C13.4944 17.0602 13.1996 18.6209 12.7128 20.1236C12.2315 21.6094 11.5412 23.109 10.5443 23.9247C10.4018 24.0413 10.1918 24.0203 10.0752 23.8778C9.95863 23.7353 9.97963 23.5253 10.1221 23.4087C10.9585 22.7245 11.6015 21.3908 12.0786 19.9182C12.5139 18.5745 12.7931 17.1739 12.9639 16.184C11.0378 15.2111 8.54274 14.6486 6.93454 14.327C6.75402 14.2909 6.63694 14.1153 6.67304 13.9348Z" fill="#7CF8BC"/>
<path fill-rule="evenodd" clip-rule="evenodd" d="M18.9352 6.34945C19.1105 6.40579 19.2069 6.59354 19.1506 6.7688C18.6902 8.20109 17.7557 11.3009 17.4053 13.1174C17.3808 13.2446 17.4416 13.3548 17.5415 13.3999C18.4933 13.8298 20.6591 14.5517 24.044 15.003C24.2264 15.0273 24.3546 15.195 24.3303 15.3774C24.306 15.5599 24.1383 15.6881 23.9558 15.6638C20.522 15.2059 18.2907 14.4698 17.267 14.0074C16.8678 13.8271 16.6715 13.4017 16.7507 12.9911C17.1095 11.1307 18.0558 7.99628 18.5159 6.56479C18.5722 6.38953 18.76 6.29312 18.9352 6.34945Z" fill="#36CC84"/>
<path d="M18.6664 19.3333C18.6664 20.0697 18.0695 20.6667 17.3331 20.6667C16.5967 20.6667 15.9998 20.0697 15.9998 19.3333C15.9998 18.597 16.5967 18 17.3331 18C18.0695 18 18.6664 18.597 18.6664 19.3333Z" fill="#6BE0A8"/>
<path d="M20.9999 12C20.9999 12.7363 20.403 13.3333 19.6666 13.3333C18.9302 13.3333 18.3333 12.7363 18.3333 12C18.3333 11.2636 18.9302 10.6666 19.6666 10.6666C20.403 10.6666 20.9999 11.2636 20.9999 12Z" fill="#54CE94"/>
<path d="M13.9998 10.8333C13.9998 11.4776 13.4775 12 12.8332 12C12.1888 12 11.6665 11.4776 11.6665 10.8333C11.6665 10.189 12.1888 9.66663 12.8332 9.66663C13.4775 9.66663 13.9998 10.189 13.9998 10.8333Z" fill="#7CF8BC"/>
<path d="M12.3331 17.1667C12.3331 17.811 11.8108 18.3333 11.1664 18.3333C10.5221 18.3333 9.99976 17.811 9.99976 17.1667C9.99976 16.5223 10.5221 16 11.1664 16C11.8108 16 12.3331 16.5223 12.3331 17.1667Z" fill="#7CF8BC"/>
<path d="M22.6664 22.6667C22.6664 22.8508 22.5172 23 22.3331 23C22.149 23 21.9998 22.8508 21.9998 22.6667C21.9998 22.4826 22.149 22.3334 22.3331 22.3334C22.5172 22.3334 22.6664 22.4826 22.6664 22.6667Z" fill="#21945D"/>
<path d="M25.6664 22.3335C25.6664 22.5176 25.5172 22.6668 25.3331 22.6668C25.149 22.6668 24.9998 22.5176 24.9998 22.3335C24.9998 22.1494 25.149 22.0001 25.3331 22.0001C25.5172 22.0001 25.6664 22.1494 25.6664 22.3335Z" fill="#21945D"/>
<path d="M24.3332 20.3335C24.3332 20.5175 24.1839 20.6668 23.9998 20.6668C23.8157 20.6668 23.6665 20.5175 23.6665 20.3335C23.6665 20.1494 23.8157 20.0001 23.9998 20.0001C24.1839 20.0001 24.3332 20.1494 24.3332 20.3335Z" fill="#21945D"/>
<path d="M22.9999 23.6667C22.9999 23.8508 22.8507 24 22.6666 24C22.4825 24 22.3333 23.8508 22.3333 23.6667C22.3333 23.4826 22.4825 23.3334 22.6666 23.3334C22.8507 23.3334 22.9999 23.4826 22.9999 23.6667Z" fill="#21945D"/>
<path d="M21.3332 23.3335C21.3332 23.5176 21.1839 23.6668 20.9998 23.6668C20.8157 23.6668 20.6665 23.5176 20.6665 23.3335C20.6665 23.1494 20.8157 23.0001 20.9998 23.0001C21.1839 23.0001 21.3332 23.1494 21.3332 23.3335Z" fill="#21945D"/>
<path d="M24.6665 23.5001C24.6665 23.7763 24.4426 24.0001 24.1665 24.0001C23.8904 24.0001 23.6665 23.7763 23.6665 23.5001C23.6665 23.224 23.8904 23.0001 24.1665 23.0001C24.4426 23.0001 24.6665 23.224 24.6665 23.5001Z" fill="#21945D"/>
<path d="M24.6665 21.8334C24.6665 22.1095 24.4426 22.3334 24.1665 22.3334C23.8904 22.3334 23.6665 22.1095 23.6665 21.8334C23.6665 21.5572 23.8904 21.3334 24.1665 21.3334C24.4426 21.3334 24.6665 21.5572 24.6665 21.8334Z" fill="#21945D"/>
<path d="M25.6665 20.1667C25.6665 20.4429 25.4426 20.6667 25.1665 20.6667C24.8904 20.6667 24.6665 20.4429 24.6665 20.1667C24.6665 19.8906 24.8904 19.6667 25.1665 19.6667C25.4426 19.6667 25.6665 19.8906 25.6665 20.1667Z" fill="#21945D"/>
<path d="M5.23003 15.6188C5.19156 15.499 5.25746 15.3707 5.37722 15.3322C5.49699 15.2938 5.62526 15.3597 5.66374 15.4794C5.70221 15.5992 5.63631 15.7275 5.51655 15.766C5.39678 15.8044 5.26851 15.7385 5.23003 15.6188Z" fill="#61EBA9"/>
<path d="M3.3482 16.4625C3.30972 16.3427 3.37562 16.2145 3.49539 16.176C3.61515 16.1375 3.74343 16.2034 3.7819 16.3232C3.82037 16.443 3.75447 16.5712 3.63471 16.6097C3.51495 16.6482 3.38667 16.5823 3.3482 16.4625Z" fill="#61EBA9"/>
<path d="M4.6336 17.4851C4.59512 17.3653 4.66102 17.2371 4.78079 17.1986C4.90055 17.1601 5.02883 17.226 5.0673 17.3458C5.10577 17.4655 5.03987 17.5938 4.92011 17.6323C4.80035 17.6708 4.67207 17.6049 4.6336 17.4851Z" fill="#61EBA9"/>
<path d="M4.80425 15.038C4.76578 14.9182 4.83168 14.7899 4.95144 14.7514C5.0712 14.713 5.19948 14.7789 5.23796 14.8986C5.27643 15.0184 5.21053 15.1467 5.09077 15.1851C4.971 15.2236 4.84272 15.1577 4.80425 15.038Z" fill="#61EBA9"/>
<path d="M5.9583 14.9065C5.91983 14.7867 5.98573 14.6584 6.10549 14.62C6.22526 14.5815 6.35353 14.6474 6.39201 14.7672C6.43048 14.8869 6.36458 15.0152 6.24482 15.0537C6.12505 15.0921 5.99678 15.0262 5.9583 14.9065Z" fill="#61EBA9"/>
<path d="M3.75496 15.4947C3.69725 15.315 3.7961 15.1226 3.97575 15.0649C4.15539 15.0072 4.34781 15.106 4.40552 15.2857C4.46323 15.4653 4.36438 15.6577 4.18473 15.7155C4.00509 15.7732 3.81267 15.6743 3.75496 15.4947Z" fill="#61EBA9"/>
<path d="M4.1031 16.5789C4.04539 16.3993 4.14424 16.2068 4.32389 16.1491C4.50354 16.0914 4.69595 16.1903 4.75366 16.3699C4.81137 16.5496 4.71252 16.742 4.53288 16.7997C4.35323 16.8574 4.16081 16.7585 4.1031 16.5789Z" fill="#61EBA9"/>
<path d="M3.80086 17.8721C3.74315 17.6925 3.842 17.5001 4.02164 17.4423C4.20129 17.3846 4.39371 17.4835 4.45142 17.6631C4.50913 17.8428 4.41028 18.0352 4.23063 18.0929C4.05098 18.1506 3.85857 18.0518 3.80086 17.8721Z" fill="#61EBA9"/>
<path d="M24.6667 9.99996C24.6667 10.1841 24.5174 10.3333 24.3333 10.3333C24.1492 10.3333 24 10.1841 24 9.99996C24 9.81586 24.1492 9.66663 24.3333 9.66663C24.5174 9.66663 24.6667 9.81586 24.6667 9.99996Z" fill="#2C9261"/>
<path d="M23.6667 10.6667C23.6667 10.8508 23.5174 11 23.3333 11C23.1492 11 23 10.8508 23 10.6667C23 10.4826 23.1492 10.3334 23.3333 10.3334C23.5174 10.3334 23.6667 10.4826 23.6667 10.6667Z" fill="#2C9261"/>
<path d="M22.6667 7.99996C22.6667 8.18405 22.5174 8.33329 22.3333 8.33329C22.1492 8.33329 22 8.18405 22 7.99996C22 7.81586 22.1492 7.66663 22.3333 7.66663C22.5174 7.66663 22.6667 7.81586 22.6667 7.99996Z" fill="#2C9261"/>
<path d="M24.9999 6.99996C24.9999 7.18405 24.8507 7.33329 24.6666 7.33329C24.4825 7.33329 24.3333 7.18405 24.3333 6.99996C24.3333 6.81586 24.4825 6.66663 24.6666 6.66663C24.8507 6.66663 24.9999 6.81586 24.9999 6.99996Z" fill="#2C9261"/>
<path d="M24.3334 5.33333C24.3334 5.51743 24.1842 5.66667 24.0001 5.66667C23.816 5.66667 23.6667 5.51743 23.6667 5.33333C23.6667 5.14924 23.816 5 24.0001 5C24.1842 5 24.3334 5.14924 24.3334 5.33333Z" fill="#2C9261"/>
<path d="M23.6667 6.66671C23.6667 6.8508 23.5174 7.00004 23.3333 7.00004C23.1492 7.00004 23 6.8508 23 6.66671C23 6.48261 23.1492 6.33337 23.3333 6.33337C23.5174 6.33337 23.6667 6.48261 23.6667 6.66671Z" fill="#2C9261"/>
<path d="M24.3333 8.5C24.3333 8.77614 24.1094 9 23.8333 9C23.5571 9 23.3333 8.77614 23.3333 8.5C23.3333 8.22386 23.5571 8 23.8333 8C24.1094 8 24.3333 8.22386 24.3333 8.5Z" fill="#2C9261"/>
<path d="M26.3333 10.5C26.3333 10.7761 26.1094 11 25.8333 11C25.5571 11 25.3333 10.7761 25.3333 10.5C25.3333 10.2239 25.5571 10 25.8333 10C26.1094 10 26.3333 10.2239 26.3333 10.5Z" fill="#2C9261"/>
<path d="M23 9.5C23 9.77614 22.7761 10 22.5 10C22.2239 10 22 9.77614 22 9.5C22 9.22386 22.2239 9 22.5 9C22.7761 9 23 9.22386 23 9.5Z" fill="#2C9261"/>
<path d="M11.42 6.18057C11.5586 6.14493 11.6998 6.22839 11.7354 6.36698C11.7711 6.50556 11.6876 6.64679 11.549 6.68243C11.4104 6.71806 11.2692 6.6346 11.2336 6.49602C11.1979 6.35744 11.2814 6.2162 11.42 6.18057Z" fill="#7CFABD"/>
<path d="M12.1153 6.80423C12.2539 6.76859 12.3951 6.85205 12.4307 6.99063C12.4664 7.12922 12.3829 7.27045 12.2443 7.30608C12.1058 7.34172 11.9645 7.25826 11.9289 7.11968C11.8933 6.98109 11.9767 6.83986 12.1153 6.80423Z" fill="#7CFABD"/>
<path d="M10.3013 8.07315C10.4399 8.03751 10.5811 8.12097 10.6168 8.25955C10.6524 8.39814 10.569 8.53937 10.4304 8.575C10.2918 8.61064 10.1506 8.52718 10.1149 8.3886C10.0793 8.25001 10.1627 8.10878 10.3013 8.07315Z" fill="#7CFABD"/>
<path d="M9.09698 6.51028C9.23556 6.47465 9.3768 6.5581 9.41243 6.69669C9.44807 6.83527 9.36461 6.9765 9.22603 7.01214C9.08744 7.04777 8.94621 6.96432 8.91058 6.82573C8.87494 6.68715 8.9584 6.54592 9.09698 6.51028Z" fill="#7CFABD"/>
<path d="M7.97149 7.33474C8.11008 7.29911 8.25131 7.38257 8.28694 7.52115C8.32258 7.65973 8.23912 7.80097 8.10054 7.8366C7.96195 7.87224 7.82072 7.78878 7.78509 7.65019C7.74945 7.51161 7.83291 7.37038 7.97149 7.33474Z" fill="#7CFABD"/>
<path d="M9.10406 7.57852C9.24264 7.54288 9.38388 7.62634 9.41951 7.76492C9.45515 7.90351 9.37169 8.04474 9.23311 8.08037C9.09452 8.11601 8.95329 8.03255 8.91766 7.89397C8.88202 7.75539 8.96548 7.61415 9.10406 7.57852Z" fill="#7CFABD"/>
<path d="M10.3552 6.72172C10.5631 6.66827 10.7749 6.79345 10.8284 7.00133C10.8818 7.2092 10.7566 7.42105 10.5488 7.47451C10.3409 7.52796 10.129 7.40277 10.0756 7.1949C10.0221 6.98702 10.1473 6.77517 10.3552 6.72172Z" fill="#7CFABD"/>
<path d="M11.4736 4.82902C11.6815 4.77557 11.8933 4.90075 11.9468 5.10863C12.0002 5.3165 11.875 5.52835 11.6672 5.58181C11.4593 5.63526 11.2474 5.51007 11.194 5.3022C11.1405 5.09432 11.2657 4.88247 11.4736 4.82902Z" fill="#7CFABD"/>
<path d="M11.3662 7.5319C11.574 7.47845 11.7859 7.60363 11.8394 7.81151C11.8928 8.01939 11.7676 8.23123 11.5597 8.28469C11.3519 8.33814 11.14 8.21295 11.0866 8.00508C11.0331 7.7972 11.1583 7.58535 11.3662 7.5319Z" fill="#7CFABD"/>
</g>
<defs>
<clipPath id="clip0_851_10166">
<rect width="32" height="32" fill="white"/>
</clipPath>
</defs>
</svg>
