<svg viewBox="0 0 27 32" fill="none" xmlns="http://www.w3.org/2000/svg">
<g filter="url(#filter0_i_1280_16302)">
<path fill-rule="evenodd" clip-rule="evenodd" d="M19 0H8C5.79086 0 4 1.79086 4 4V24C4 26.2091 5.79086 28 8 28H23C25.2091 28 27 26.2091 27 24V7.5H21C19.8954 7.5 19 6.60457 19 5.5V0Z" fill="#F1DAA4"/>
<path d="M27 7.5L19 0V5.5C19 6.60457 19.8954 7.5 21 7.5H27Z" fill="#F6E7C3"/>
</g>
<path d="M26.5 8V24C26.5 25.933 24.933 27.5 23 27.5H8C6.067 27.5 4.5 25.933 4.5 24V4C4.5 2.067 6.067 0.5 8 0.5H18.5V5.5C18.5 6.88071 19.6193 8 21 8H26.5ZM25.7356 7H21C20.1716 7 19.5 6.32843 19.5 5.5V1.15412L25.7356 7Z" stroke="#333847"/>
<g filter="url(#filter1_i_1280_16302)">
<path fill-rule="evenodd" clip-rule="evenodd" d="M15 4H4C1.79086 4 0 5.79086 0 8V28C0 30.2091 1.79086 32 4 32H19C21.2091 32 23 30.2091 23 28V11.5H17C15.8954 11.5 15 10.6046 15 9.5V4Z" fill="#BCCEF8"/>
<path d="M23 11.5L15 4V9.5C15 10.6046 15.8954 11.5 17 11.5H23Z" fill="#DDE7FC"/>
</g>
<path d="M22.5 12V28C22.5 29.933 20.933 31.5 19 31.5H4C2.067 31.5 0.5 29.933 0.5 28V8C0.5 6.067 2.067 4.5 4 4.5H14.5V9.5C14.5 10.8807 15.6193 12 17 12H22.5ZM21.7356 11H17C16.1716 11 15.5 10.3284 15.5 9.5V5.15412L21.7356 11Z" stroke="#333847"/>
<rect x="6" y="22" width="11" height="1" rx="0.5" fill="#333847"/>
<rect x="6" y="18" width="11" height="1" rx="0.5" fill="#333847"/>
<rect x="6" y="14" width="11" height="1" rx="0.5" fill="#333847"/>
<defs>
<filter id="filter0_i_1280_16302" x="4" y="0" width="23" height="28" filterUnits="userSpaceOnUse" color-interpolation-filters="sRGB">
<feFlood flood-opacity="0" result="BackgroundImageFix"/>
<feBlend mode="normal" in="SourceGraphic" in2="BackgroundImageFix" result="shape"/>
<feColorMatrix in="SourceAlpha" type="matrix" values="0 0 0 0 0 0 0 0 0 0 0 0 0 0 0 0 0 0 127 0" result="hardAlpha"/>
<feOffset dx="2"/>
<feComposite in2="hardAlpha" operator="arithmetic" k2="-1" k3="1"/>
<feColorMatrix type="matrix" values="0 0 0 0 1 0 0 0 0 1 0 0 0 0 1 0 0 0 0.75 0"/>
<feBlend mode="normal" in2="shape" result="effect1_innerShadow_1280_16302"/>
</filter>
<filter id="filter1_i_1280_16302" x="0" y="4" width="23" height="28" filterUnits="userSpaceOnUse" color-interpolation-filters="sRGB">
<feFlood flood-opacity="0" result="BackgroundImageFix"/>
<feBlend mode="normal" in="SourceGraphic" in2="BackgroundImageFix" result="shape"/>
<feColorMatrix in="SourceAlpha" type="matrix" values="0 0 0 0 0 0 0 0 0 0 0 0 0 0 0 0 0 0 127 0" result="hardAlpha"/>
<feOffset dx="2"/>
<feComposite in2="hardAlpha" operator="arithmetic" k2="-1" k3="1"/>
<feColorMatrix type="matrix" values="0 0 0 0 1 0 0 0 0 1 0 0 0 0 1 0 0 0 0.75 0"/>
<feBlend mode="normal" in2="shape" result="effect1_innerShadow_1280_16302"/>
</filter>
</defs>
</svg>
