<svg viewBox="0 0 33 36" fill="none" xmlns="http://www.w3.org/2000/svg">
<path fill-rule="evenodd" clip-rule="evenodd" d="M8.81814 3.30369C8.43887 2.91275 7.81648 2.89725 7.41821 3.26882L0.678767 9.5567C0.26937 9.93867 0.25334 10.5823 0.643215 10.9842L7.80819 18.3696C8.18669 18.7598 8.18421 19.3809 7.8026 19.768L0.287848 27.3912C-0.105229 27.7899 -0.0943376 28.4337 0.312003 28.8189L6.99981 35.1591C7.39509 35.5339 8.01758 35.5233 8.39996 35.1354L15.5815 27.8503C15.9753 27.4508 16.6207 27.4534 17.0114 27.856L24.0792 35.1414C24.4585 35.5324 25.0809 35.5479 25.4792 35.1763L32.2186 28.8884C32.628 28.5064 32.644 27.8628 32.2542 27.4609L24.8558 19.8349C24.4773 19.4447 24.4798 18.8236 24.8614 18.4365L32.0322 11.1623C32.4252 10.7635 32.4143 10.1198 32.008 9.73455L25.3202 3.39431C24.9249 3.01957 24.3024 3.0301 23.92 3.418L17.0825 10.3542C16.6887 10.7537 16.0433 10.7511 15.6526 10.3485L8.81814 3.30369Z" fill="black"/>
<path fill-rule="evenodd" clip-rule="evenodd" d="M8.81814 0.30369C8.43887 -0.0872523 7.81648 -0.102754 7.41821 0.268823L0.678767 6.5567C0.26937 6.93867 0.25334 7.58232 0.643215 7.98419L7.80819 15.3696C8.18669 15.7598 8.18421 16.3809 7.8026 16.768L0.287848 24.3912C-0.105229 24.7899 -0.0943376 25.4337 0.312003 25.8189L6.99981 32.1591C7.39509 32.5339 8.01758 32.5233 8.39996 32.1354L15.5815 24.8503C15.9753 24.4508 16.6207 24.4534 17.0114 24.856L24.0792 32.1414C24.4585 32.5324 25.0809 32.5479 25.4792 32.1763L32.2186 25.8884C32.628 25.5064 32.644 24.8628 32.2542 24.4609L24.8558 16.8349C24.4773 16.4447 24.4798 15.8236 24.8614 15.4365L32.0322 8.16228C32.4252 7.76353 32.4143 7.11977 32.008 6.73455L25.3202 0.394309C24.9249 0.0195703 24.3024 0.0301012 23.92 0.417997L17.0825 7.35419C16.6887 7.75372 16.0433 7.75115 15.6526 7.34848L8.81814 0.30369Z" fill="white"/>
<path fill-rule="evenodd" clip-rule="evenodd" d="M8.1004 1L1.36095 7.28788L8.52592 14.6733C9.28294 15.4536 9.27798 16.6958 8.51475 17.47L1 25.0932L7.68781 31.4334L14.8693 24.1483C15.657 23.3492 16.9478 23.3544 17.7291 24.1597L24.797 31.4451L31.5364 25.1572L24.138 17.5312C23.381 16.7509 23.386 15.5087 24.1492 14.7345L31.32 7.46026L24.6322 1.12002L17.7947 8.05622C17.007 8.85528 15.7162 8.85012 14.9349 8.04479L8.1004 1ZM7.41821 0.268823C7.81648 -0.102754 8.43887 -0.0872523 8.81814 0.30369L15.6526 7.34848C16.0433 7.75114 16.6887 7.75372 17.0825 7.35419L23.92 0.417997C24.3024 0.0301012 24.9249 0.0195703 25.3202 0.394309L32.008 6.73454C32.4143 7.11977 32.4252 7.76353 32.0322 8.16228L24.8614 15.4365C24.4798 15.8236 24.4773 16.4447 24.8558 16.8349L32.2542 24.4609C32.644 24.8628 32.628 25.5064 32.2186 25.8884L25.4792 32.1763C25.0809 32.5479 24.4585 32.5324 24.0792 32.1414L17.0114 24.856C16.6207 24.4534 15.9753 24.4508 15.5815 24.8503L8.39996 32.1354C8.01758 32.5233 7.39509 32.5339 6.99981 32.1591L0.312003 25.8189C-0.0943376 25.4337 -0.105229 24.7899 0.287848 24.3912L7.8026 16.768C8.18421 16.3809 8.18669 15.7598 7.80819 15.3696L0.643215 7.98419C0.25334 7.58232 0.26937 6.93867 0.678767 6.5567L7.41821 0.268823Z" fill="black" fill-opacity="0.8"/>
</svg>
