<svg viewBox="0 0 31 33" fill="none" xmlns="http://www.w3.org/2000/svg">
<path fill-rule="evenodd" clip-rule="evenodd" d="M8.19218 3.06912C7.83983 2.70593 7.26162 2.69153 6.89163 3.03673L0.630585 8.87826C0.250249 9.23311 0.235356 9.83107 0.597556 10.2044L7.25392 17.0656C7.60556 17.4281 7.60325 18.005 7.24873 18.3647L0.267415 25.4467C-0.0977591 25.8172 -0.087641 26.4152 0.289856 26.7731L6.50292 32.6633C6.87015 33.0114 7.44845 33.0016 7.80368 32.6413L14.4754 25.8733C14.8413 25.5021 15.4409 25.5045 15.8038 25.8786L22.37 32.6468C22.7223 33.01 23.3005 33.0244 23.6705 32.6792L29.9316 26.8377C30.3119 26.4828 30.3268 25.8849 29.9646 25.5115L23.0914 18.4268C22.7397 18.0644 22.7421 17.4874 23.0966 17.1277L29.7583 10.3699C30.1235 9.99942 30.1134 9.40135 29.7359 9.04348L23.5228 3.15331C23.1556 2.80517 22.5773 2.81495 22.2221 3.17531L15.8699 9.61914C15.504 9.99031 14.9044 9.98791 14.5415 9.61383L8.19218 3.06912Z" fill="#333847"/>
<path fill-rule="evenodd" clip-rule="evenodd" d="M8.19218 0.282133C7.83983 -0.0810586 7.26162 -0.0954599 6.89163 0.249741L0.630585 6.09127C0.250249 6.44612 0.235356 7.04408 0.597556 7.41743L7.25392 14.2786C7.60556 14.6411 7.60325 15.2181 7.24873 15.5777L0.267415 22.6597C-0.0977591 23.0302 -0.087641 23.6282 0.289856 23.9861L6.50292 29.8763C6.87015 30.2244 7.44845 30.2146 7.80368 29.8543L14.4754 23.0863C14.8413 22.7151 15.4409 22.7175 15.8038 23.0916L22.37 29.8598C22.7223 30.223 23.3005 30.2374 23.6705 29.8922L29.9316 24.0507C30.3119 23.6959 30.3268 23.0979 29.9646 22.7245L23.0914 15.6398C22.7397 15.2774 22.7421 14.7004 23.0966 14.3408L29.7583 7.58288C30.1235 7.21243 30.1134 6.61437 29.7359 6.25649L23.5228 0.366319C23.1556 0.0181811 22.5773 0.0279645 22.2221 0.388325L15.8699 6.83215C15.504 7.20332 14.9044 7.20093 14.5415 6.82684L8.19218 0.282133Z" fill="white"/>
<path fill-rule="evenodd" clip-rule="evenodd" d="M7.52539 0.929016L1.26435 6.77054L7.92071 13.6317C8.62399 14.3567 8.61937 15.5106 7.91033 16.2299L0.929016 23.3119L7.14208 29.2021L13.8138 22.4341C14.5456 21.6918 15.7448 21.6966 16.4706 22.4447L23.0368 29.213L29.2978 23.3714L22.4246 16.2867C21.7213 15.5618 21.7259 14.4078 22.435 13.6886L29.0967 6.93069L22.8837 1.04052L16.5315 7.48434C15.7997 8.22668 14.6005 8.22189 13.8747 7.47373L7.52539 0.929016ZM6.89163 0.249741C7.26162 -0.0954599 7.83983 -0.0810586 8.19218 0.282133L14.5415 6.82684C14.9044 7.20092 15.504 7.20332 15.8699 6.83215L22.2221 0.388325C22.5773 0.0279644 23.1556 0.0181811 23.5228 0.366319L29.7359 6.25649C30.1134 6.61437 30.1235 7.21243 29.7583 7.58288L23.0966 14.3408C22.7421 14.7004 22.7397 15.2774 23.0914 15.6398L29.9646 22.7245C30.3268 23.0979 30.3119 23.6958 29.9316 24.0507L23.6705 29.8922C23.3005 30.2374 22.7223 30.223 22.37 29.8598L15.8038 23.0916C15.4409 22.7175 14.8413 22.7151 14.4754 23.0863L7.80368 29.8543C7.44845 30.2146 6.87015 30.2244 6.50292 29.8763L0.289856 23.9861C-0.087641 23.6282 -0.0977591 23.0302 0.267415 22.6597L7.24873 15.5777C7.60325 15.2181 7.60556 14.6411 7.25392 14.2786L0.597556 7.41743C0.235356 7.04408 0.250249 6.44612 0.630585 6.09127L6.89163 0.249741Z" fill="#333847"/>
</svg>
