<svg viewBox="0 0 32 31" fill="none" xmlns="http://www.w3.org/2000/svg">
<g clip-path="url(#clip0_818_5801)">
<path d="M14.3305 19.7226C14.1038 18.6376 14.8914 17.5238 15.9999 17.5238C17.1084 17.5238 17.896 18.6376 17.6693 19.7226C17.4566 20.7406 17.3178 21.9274 17.5237 22.8571C18.101 25.4637 20.5713 28.1905 20.5713 28.1905H11.4285C11.4285 28.1905 13.8988 25.4637 14.4761 22.8571C14.682 21.9274 14.5432 20.7406 14.3305 19.7226Z" fill="#D99A60"/>
<path fill-rule="evenodd" clip-rule="evenodd" d="M21.268 28.4994C21.1459 28.7748 20.8729 28.9524 20.5715 28.9524H11.4287C11.1273 28.9524 10.8543 28.7748 10.7322 28.4994C10.61 28.224 10.6617 27.9025 10.8639 27.6792L11.4287 28.1905H20.5715C20.5715 28.1905 20.3122 27.9043 19.942 27.4286C19.1695 26.4362 17.9142 24.6192 17.5239 22.8572C17.318 21.9275 17.4568 20.7406 17.6695 19.7227C17.8962 18.6376 17.1086 17.5239 16.0001 17.5239C14.8916 17.5239 14.104 18.6376 14.3307 19.7227C14.5434 20.7406 14.6822 21.9275 14.4763 22.8572C14.086 24.6192 12.8307 26.4362 12.0582 27.4286C11.688 27.9043 11.4287 28.1905 11.4287 28.1905M10.8639 27.6792L10.8682 27.6743L10.8859 27.6544C10.9021 27.6361 10.9268 27.608 10.9589 27.5708C11.0232 27.4962 11.117 27.3853 11.2322 27.2435C11.4628 26.9595 11.7766 26.554 12.1073 26.0709C12.78 25.0883 13.4756 23.8518 13.7324 22.6924C13.9015 21.9288 13.7932 20.8757 13.5849 19.8785C13.2742 18.3912 14.3382 16.762 16.0001 16.762C17.662 16.762 18.726 18.3912 18.4153 19.8785C18.207 20.8757 18.0987 21.9288 18.2678 22.6924C18.5246 23.8518 19.2202 25.0883 19.8929 26.0709C20.2236 26.554 20.5374 26.9595 20.768 27.2435C20.8831 27.3853 20.977 27.4962 21.0413 27.5708C21.0734 27.608 21.0981 27.6361 21.1143 27.6544L21.132 27.6743L21.1362 27.679C21.3384 27.9023 21.3901 28.224 21.268 28.4994" fill="#333847"/>
<path fill-rule="evenodd" clip-rule="evenodd" d="M19.0476 28.1905H20.5714C20.5714 28.1905 18.1011 25.4637 17.5238 22.8571C17.3179 21.9274 17.4567 20.7406 17.6694 19.7226C17.8961 18.6376 17.1084 17.5238 16 17.5238C15.7494 17.5238 15.5152 17.5807 15.3054 17.6814C15.8639 17.9465 16.1456 18.5695 16.1456 19.7226C16.1456 21.1735 16.175 23.2608 16.3809 24.1905C16.9583 26.797 19.0476 28.1905 19.0476 28.1905Z" fill="#AC6B2F"/>
<path fill-rule="evenodd" clip-rule="evenodd" d="M14.759 24.2019C14.9631 24.2529 15.0872 24.4598 15.0362 24.6639C14.8328 25.4776 14.4303 26.2794 14.0312 26.878C13.9145 27.0531 13.678 27.1004 13.5029 26.9837C13.3279 26.867 13.2806 26.6305 13.3973 26.4554C13.7601 25.9112 14.1195 25.1891 14.297 24.4791C14.3481 24.275 14.5549 24.1509 14.759 24.2019Z" fill="#F6B981"/>
<path fill-rule="evenodd" clip-rule="evenodd" d="M27.0477 11.4286C29.362 11.4286 31.2381 9.55242 31.2381 7.23808C31.2381 4.92375 29.362 3.04761 27.0477 3.04761C24.7333 3.04761 22.8572 4.92375 22.8572 7.23808C22.8572 9.55242 24.7333 11.4286 27.0477 11.4286ZM27.0477 9.5238C28.31 9.5238 29.3334 8.50045 29.3334 7.23808C29.3334 5.97572 28.31 4.95237 27.0477 4.95237C25.7853 4.95237 24.7619 5.97572 24.7619 7.23808C24.7619 8.50045 25.7853 9.5238 27.0477 9.5238Z" fill="#D99A60"/>
<path fill-rule="evenodd" clip-rule="evenodd" d="M32 7.23815C32 9.97327 29.7827 12.1905 27.0476 12.1905C24.3125 12.1905 22.0952 9.97327 22.0952 7.23815C22.0952 4.50302 24.3125 2.28577 27.0476 2.28577C29.7827 2.28577 32 4.50302 32 7.23815ZM27.0476 8.76196C27.8892 8.76196 28.5714 8.07972 28.5714 7.23815C28.5714 6.39657 27.8892 5.71434 27.0476 5.71434C26.206 5.71434 25.5238 6.39657 25.5238 7.23815C25.5238 8.07972 26.206 8.76196 27.0476 8.76196ZM31.2381 7.23815C31.2381 9.55248 29.3619 11.4286 27.0476 11.4286C24.7333 11.4286 22.8571 9.55248 22.8571 7.23815C22.8571 4.92381 24.7333 3.04767 27.0476 3.04767C29.3619 3.04767 31.2381 4.92381 31.2381 7.23815ZM29.3333 7.23815C29.3333 8.50051 28.31 9.52386 27.0476 9.52386C25.7852 9.52386 24.7619 8.50051 24.7619 7.23815C24.7619 5.97578 25.7852 4.95243 27.0476 4.95243C28.31 4.95243 29.3333 5.97578 29.3333 7.23815Z" fill="#333847"/>
<path fill-rule="evenodd" clip-rule="evenodd" d="M30.8572 6.47614C30.8572 8.79048 28.9811 10.6666 26.6667 10.6666C25.1775 10.6666 23.8697 9.88975 23.1265 8.71917C23.7248 10.3026 25.2548 11.4285 27.0477 11.4285C29.362 11.4285 31.2382 9.55239 31.2382 7.23805C31.2382 6.41296 30.9997 5.64357 30.5879 4.99503C30.762 5.45553 30.8572 5.95471 30.8572 6.47614ZM24.8477 7.86044C24.7919 7.66257 24.762 7.4538 24.762 7.23805C24.762 5.97568 25.7853 4.95233 27.0477 4.95233C27.7897 4.95233 28.4491 5.3059 28.8667 5.85375C28.5957 4.89387 27.7133 4.19043 26.6667 4.19043C25.4044 4.19043 24.381 5.21378 24.381 6.47614C24.381 6.9965 24.5549 7.47625 24.8477 7.86044Z" fill="#B6783F"/>
<path fill-rule="evenodd" clip-rule="evenodd" d="M4.95244 11.4286C7.26677 11.4286 9.14291 9.55242 9.14291 7.23808C9.14291 4.92375 7.26677 3.04761 4.95244 3.04761C2.6381 3.04761 0.761963 4.92375 0.761963 7.23808C0.761963 9.55242 2.6381 11.4286 4.95244 11.4286ZM4.95244 9.5238C6.2148 9.5238 7.23815 8.50045 7.23815 7.23808C7.23815 5.97572 6.2148 4.95237 4.95244 4.95237C3.69007 4.95237 2.66672 5.97572 2.66672 7.23808C2.66672 8.50045 3.69007 9.5238 4.95244 9.5238Z" fill="#D99A60"/>
<path fill-rule="evenodd" clip-rule="evenodd" d="M9.90476 7.23815C9.90476 9.97327 7.68751 12.1905 4.95238 12.1905C2.21726 12.1905 0 9.97327 0 7.23815C0 4.50302 2.21726 2.28577 4.95238 2.28577C7.68751 2.28577 9.90476 4.50302 9.90476 7.23815ZM4.95238 8.76196C5.79396 8.76196 6.47619 8.07972 6.47619 7.23815C6.47619 6.39657 5.79396 5.71434 4.95238 5.71434C4.1108 5.71434 3.42857 6.39657 3.42857 7.23815C3.42857 8.07972 4.1108 8.76196 4.95238 8.76196ZM9.14286 7.23815C9.14286 9.55248 7.26672 11.4286 4.95238 11.4286C2.63804 11.4286 0.761905 9.55248 0.761905 7.23815C0.761905 4.92381 2.63804 3.04767 4.95238 3.04767C7.26672 3.04767 9.14286 4.92381 9.14286 7.23815ZM7.2381 7.23815C7.2381 8.50051 6.21475 9.52386 4.95238 9.52386C3.69002 9.52386 2.66667 8.50051 2.66667 7.23815C2.66667 5.97578 3.69002 4.95243 4.95238 4.95243C6.21475 4.95243 7.2381 5.97578 7.2381 7.23815Z" fill="#333847"/>
<path fill-rule="evenodd" clip-rule="evenodd" d="M8.09994 10.0046C7.36189 10.6539 6.39362 11.0476 5.33339 11.0476C3.01906 11.0476 1.14292 9.17146 1.14292 6.85712C1.14292 5.79689 1.53666 4.82863 2.18589 4.09058C1.31287 4.85853 0.761963 5.98397 0.761963 7.23808C0.761963 9.55241 2.6381 11.4286 4.95244 11.4286C6.20655 11.4286 7.33198 10.8776 8.09994 10.0046ZM3.53787 5.44255C3.927 5.13556 4.41832 4.95236 4.95244 4.95236C6.2148 4.95236 7.23815 5.97571 7.23815 7.23808C7.23815 7.77219 7.05495 8.26352 6.74796 8.65265C7.27853 8.23408 7.61911 7.58537 7.61911 6.85712C7.61911 5.59476 6.59576 4.57141 5.33339 4.57141C4.60514 4.57141 3.95644 4.91199 3.53787 5.44255Z" fill="#B6783F"/>
<path d="M5.33325 5.33339C5.33325 3.65023 6.69772 2.28577 8.38087 2.28577H23.619C25.3021 2.28577 26.6666 3.65023 26.6666 5.33339V9.90482C26.6666 15.7959 21.891 20.5715 15.9999 20.5715C10.1089 20.5715 5.33325 15.7959 5.33325 9.90482V5.33339Z" fill="#E3A872"/>
<path fill-rule="evenodd" clip-rule="evenodd" d="M8.38106 1.5238H23.6192C25.7231 1.5238 27.4287 3.22939 27.4287 5.33333V9.90476C27.4287 16.2166 22.3119 21.3333 16.0001 21.3333C9.68828 21.3333 4.57153 16.2166 4.57153 9.90476V5.33333C4.57153 3.22939 6.27712 1.5238 8.38106 1.5238ZM8.38106 2.28571C6.6979 2.28571 5.33344 3.65017 5.33344 5.33333V9.90476C5.33344 15.7958 10.1091 20.5714 16.0001 20.5714C21.8911 20.5714 26.6668 15.7958 26.6668 9.90476V5.33333C26.6668 3.65017 25.3023 2.28571 23.6192 2.28571H8.38106Z" fill="#333847"/>
<path fill-rule="evenodd" clip-rule="evenodd" d="M13.3333 20.2354C14.1856 20.4548 15.0791 20.5715 15.9999 20.5715C21.891 20.5715 26.6666 15.7959 26.6666 9.90482V2.28577H21.3333V9.90482C21.3333 14.8751 17.9339 19.0513 13.3333 20.2354Z" fill="#D99A60"/>
<path d="M5.33325 2.28577V9.90481C5.33325 13.5413 7.153 16.7528 9.93155 18.6783C11.2532 19.5941 13.7626 16.4532 13.7212 14.8457C13.7164 14.6593 13.7142 14.4724 13.7142 14.2858V2.28577H5.33325Z" fill="#F6B981"/>
<path fill-rule="evenodd" clip-rule="evenodd" d="M10.4893 19.0395C12.0976 20.0119 13.9835 20.5715 16 20.5715C21.8911 20.5715 26.6667 15.7959 26.6667 9.90482V2.28577H25.1428V9.14291C25.1428 15.0339 20.3672 19.8096 14.4761 19.8096C13.0666 19.8096 11.7209 19.5362 10.4893 19.0395Z" fill="#B6783F"/>
<path d="M26.6666 2.28577H5.33325V3.80958H26.6666V2.28577Z" fill="#8F5A29"/>
<path fill-rule="evenodd" clip-rule="evenodd" d="M6.85712 3.42859C7.27791 3.42859 7.61902 3.76971 7.61902 4.19049C7.61902 6.78061 7.6206 8.86431 7.85006 10.5395C8.07863 12.2081 8.51938 13.3467 9.30059 14.1279C9.59813 14.4255 9.59812 14.9079 9.30058 15.2054C9.00303 15.503 8.52062 15.503 8.22308 15.2054C7.09958 14.0819 6.58796 12.5539 6.34035 10.7463C6.0952 8.95659 6.0952 6.77093 6.09521 4.23863L6.09522 4.19049C6.09522 3.76971 6.43633 3.42859 6.85712 3.42859Z" fill="#FFCA99"/>
<path fill-rule="evenodd" clip-rule="evenodd" d="M6.85718 4.57141C7.06758 4.57141 7.23814 4.74197 7.23814 4.95236C7.23814 5.4532 7.23391 5.75103 7.23048 5.993C7.22526 6.36128 7.22188 6.60013 7.23801 7.2283C7.24341 7.43862 7.07728 7.6135 6.86696 7.6189C6.65663 7.62431 6.48175 7.45818 6.47635 7.24786C6.45992 6.6079 6.4635 6.34877 6.46879 5.9664C6.47216 5.72231 6.47623 5.42801 6.47623 4.95236C6.47623 4.74197 6.64679 4.57141 6.85718 4.57141Z" fill="white"/>
<path d="M8.38086 28.9523C8.38086 28.5315 8.72198 28.1904 9.14276 28.1904H22.857C23.2778 28.1904 23.619 28.5315 23.619 28.9523C23.619 29.3731 23.2778 29.7142 22.857 29.7142H9.14276C8.72198 29.7142 8.38086 29.3731 8.38086 28.9523Z" fill="#F6B981"/>
<path fill-rule="evenodd" clip-rule="evenodd" d="M9.14295 27.4286H22.8572C23.6988 27.4286 24.381 28.1108 24.381 28.9524C24.381 29.794 23.6988 30.4762 22.8572 30.4762H9.14295C8.30137 30.4762 7.61914 29.794 7.61914 28.9524C7.61914 28.1108 8.30137 27.4286 9.14295 27.4286ZM9.14295 28.1905C8.72216 28.1905 8.38105 28.5316 8.38105 28.9524C8.38105 29.3732 8.72216 29.7143 9.14295 29.7143H22.8572C23.278 29.7143 23.6191 29.3732 23.6191 28.9524C23.6191 28.5316 23.278 28.1905 22.8572 28.1905H9.14295Z" fill="#333847"/>
<path d="M2.28564 1.52387C2.28564 1.10308 2.62676 0.761963 3.04755 0.761963H28.9523C29.3731 0.761963 29.7142 1.10308 29.7142 1.52387C29.7142 1.94466 29.3731 2.28577 28.9523 2.28577H3.04755C2.62676 2.28577 2.28564 1.94466 2.28564 1.52387Z" fill="#F6B981"/>
<path fill-rule="evenodd" clip-rule="evenodd" d="M3.04774 0H28.9525C29.7941 0 30.4763 0.682232 30.4763 1.52381C30.4763 2.36539 29.7941 3.04762 28.9525 3.04762H3.04774C2.20616 3.04762 1.52393 2.36539 1.52393 1.52381C1.52393 0.682233 2.20616 0 3.04774 0ZM3.04774 0.761905C2.62695 0.761905 2.28583 1.10302 2.28583 1.52381C2.28583 1.9446 2.62695 2.28571 3.04774 2.28571H28.9525C29.3733 2.28571 29.7144 1.9446 29.7144 1.52381C29.7144 1.10302 29.3733 0.761905 28.9525 0.761905H3.04774Z" fill="#333847"/>
<path fill-rule="evenodd" clip-rule="evenodd" d="M3.04761 1.33334C3.04761 1.12295 3.21817 0.952393 3.42856 0.952393H22.8571C23.0675 0.952393 23.2381 1.12295 23.2381 1.33334C23.2381 1.54374 23.0675 1.7143 22.8571 1.7143H3.42856C3.21817 1.7143 3.04761 1.54374 3.04761 1.33334Z" fill="#FFCA99"/>
<path fill-rule="evenodd" clip-rule="evenodd" d="M8.76196 28.5714C8.76196 28.361 8.93252 28.1904 9.14292 28.1904H20.1905C20.4009 28.1904 20.5715 28.361 20.5715 28.5714C20.5715 28.7818 20.4009 28.9523 20.1905 28.9523H9.14292C8.93252 28.9523 8.76196 28.7818 8.76196 28.5714Z" fill="#FFCA99"/>
<path fill-rule="evenodd" clip-rule="evenodd" d="M5.33325 1.33334C5.33325 1.12295 5.50381 0.952393 5.7142 0.952393H7.99992C8.21031 0.952393 8.38087 1.12295 8.38087 1.33334C8.38087 1.54374 8.21031 1.7143 7.99992 1.7143H5.7142C5.50381 1.7143 5.33325 1.54374 5.33325 1.33334Z" fill="white"/>
<path d="M19.8094 17.7143C19.8094 18.0298 19.5535 18.2857 19.2379 18.2857C18.9223 18.2857 18.6665 18.0298 18.6665 17.7143C18.6665 17.3987 18.9223 17.1428 19.2379 17.1428C19.5535 17.1428 19.8094 17.3987 19.8094 17.7143Z" fill="#C6874D"/>
<path d="M21.7143 16.381C21.7143 16.5913 21.5437 16.7619 21.3333 16.7619C21.123 16.7619 20.9524 16.5913 20.9524 16.381C20.9524 16.1706 21.123 16 21.3333 16C21.5437 16 21.7143 16.1706 21.7143 16.381Z" fill="#C6874D"/>
<path d="M18.6667 19.0476C18.6667 19.258 18.4961 19.4285 18.2857 19.4285C18.0753 19.4285 17.9048 19.258 17.9048 19.0476C17.9048 18.8372 18.0753 18.6666 18.2857 18.6666C18.4961 18.6666 18.6667 18.8372 18.6667 19.0476Z" fill="#C6874D"/>
<path d="M17.5239 17.9048C17.5239 18.1152 17.3533 18.2857 17.1429 18.2857C16.9325 18.2857 16.762 18.1152 16.762 17.9048C16.762 17.6944 16.9325 17.5238 17.1429 17.5238C17.3533 17.5238 17.5239 17.6944 17.5239 17.9048Z" fill="#C6874D"/>
<path d="M15.9999 19.0476C15.9999 19.258 15.8294 19.4285 15.619 19.4285C15.4086 19.4285 15.238 19.258 15.238 19.0476C15.238 18.8372 15.4086 18.6666 15.619 18.6666C15.8294 18.6666 15.9999 18.8372 15.9999 19.0476Z" fill="#C6874D"/>
<path d="M25.1428 13.7143C25.1428 13.9247 24.9722 14.0953 24.7618 14.0953C24.5514 14.0953 24.3809 13.9247 24.3809 13.7143C24.3809 13.5039 24.5514 13.3334 24.7618 13.3334C24.9722 13.3334 25.1428 13.5039 25.1428 13.7143Z" fill="#C6874D"/>
<path d="M21.7143 14.8571C21.7143 15.0675 21.5437 15.2381 21.3333 15.2381C21.123 15.2381 20.9524 15.0675 20.9524 14.8571C20.9524 14.6468 21.123 14.4762 21.3333 14.4762C21.5437 14.4762 21.7143 14.6468 21.7143 14.8571Z" fill="#C6874D"/>
<path d="M25.5239 11.8095C25.5239 12.0199 25.3533 12.1905 25.1429 12.1905C24.9325 12.1905 24.762 12.0199 24.762 11.8095C24.762 11.5991 24.9325 11.4286 25.1429 11.4286C25.3533 11.4286 25.5239 11.5991 25.5239 11.8095Z" fill="#C6874D"/>
<path d="M19.8095 15.6191C19.8095 15.8295 19.639 16.0001 19.4286 16.0001C19.2182 16.0001 19.0476 15.8295 19.0476 15.6191C19.0476 15.4087 19.2182 15.2382 19.4286 15.2382C19.639 15.2382 19.8095 15.4087 19.8095 15.6191Z" fill="#C6874D"/>
<path d="M21.3332 17.9048C21.3332 18.1152 21.1626 18.2857 20.9522 18.2857C20.7418 18.2857 20.5713 18.1152 20.5713 17.9048C20.5713 17.6944 20.7418 17.5238 20.9522 17.5238C21.1626 17.5238 21.3332 17.6944 21.3332 17.9048Z" fill="#C6874D"/>
<path d="M23.6191 16.381C23.6191 16.5913 23.4485 16.7619 23.2381 16.7619C23.0277 16.7619 22.8572 16.5913 22.8572 16.381C22.8572 16.1706 23.0277 16 23.2381 16C23.4485 16 23.6191 16.1706 23.6191 16.381Z" fill="#C6874D"/>
<path d="M22.8571 14.8571C22.8571 15.0675 22.6866 15.2381 22.4762 15.2381C22.2658 15.2381 22.0952 15.0675 22.0952 14.8571C22.0952 14.6468 22.2658 14.4762 22.4762 14.4762C22.6866 14.4762 22.8571 14.6468 22.8571 14.8571Z" fill="#C6874D"/>
<path d="M24.381 14.6667C24.381 14.7719 24.2957 14.8571 24.1905 14.8571C24.0853 14.8571 24 14.7719 24 14.6667C24 14.5615 24.0853 14.4762 24.1905 14.4762C24.2957 14.4762 24.381 14.5615 24.381 14.6667Z" fill="#C6874D"/>
<path d="M23.9998 13.1429C23.9998 13.2481 23.9146 13.3333 23.8094 13.3333C23.7042 13.3333 23.6189 13.2481 23.6189 13.1429C23.6189 13.0377 23.7042 12.9524 23.8094 12.9524C23.9146 12.9524 23.9998 13.0377 23.9998 13.1429Z" fill="#C6874D"/>
<path d="M22.857 13.5239C22.857 13.629 22.7717 13.7143 22.6666 13.7143C22.5614 13.7143 22.4761 13.629 22.4761 13.5239C22.4761 13.4187 22.5614 13.3334 22.6666 13.3334C22.7717 13.3334 22.857 13.4187 22.857 13.5239Z" fill="#C6874D"/>
<path d="M23.9998 12C23.9998 12.1052 23.9146 12.1905 23.8094 12.1905C23.7042 12.1905 23.6189 12.1052 23.6189 12C23.6189 11.8948 23.7042 11.8096 23.8094 11.8096C23.9146 11.8096 23.9998 11.8948 23.9998 12Z" fill="#C6874D"/>
<path d="M21.7142 13.5239C21.7142 13.629 21.6289 13.7143 21.5237 13.7143C21.4185 13.7143 21.3333 13.629 21.3333 13.5239C21.3333 13.4187 21.4185 13.3334 21.5237 13.3334C21.6289 13.3334 21.7142 13.4187 21.7142 13.5239Z" fill="#C6874D"/>
<path d="M15.619 17.7143C15.619 17.8195 15.5337 17.9048 15.4285 17.9048C15.3233 17.9048 15.238 17.8195 15.238 17.7143C15.238 17.6091 15.3233 17.5238 15.4285 17.5238C15.5337 17.5238 15.619 17.6091 15.619 17.7143Z" fill="#C6874D"/>
<path d="M23.619 15.0477C23.619 15.1529 23.5337 15.2381 23.4285 15.2381C23.3233 15.2381 23.238 15.1529 23.238 15.0477C23.238 14.9425 23.3233 14.8572 23.4285 14.8572C23.5337 14.8572 23.619 14.9425 23.619 15.0477Z" fill="#C6874D"/>
<path d="M22.4762 17.3333C22.4762 17.4385 22.3909 17.5238 22.2857 17.5238C22.1805 17.5238 22.0952 17.4385 22.0952 17.3333C22.0952 17.2281 22.1805 17.1428 22.2857 17.1428C22.3909 17.1428 22.4762 17.2281 22.4762 17.3333Z" fill="#C6874D"/>
<path d="M20.5714 16.5715C20.5714 16.6767 20.4861 16.7619 20.3809 16.7619C20.2757 16.7619 20.1904 16.6767 20.1904 16.5715C20.1904 16.4663 20.2757 16.381 20.3809 16.381C20.4861 16.381 20.5714 16.4663 20.5714 16.5715Z" fill="#C6874D"/>
<path d="M18.6666 16.5715C18.6666 16.6767 18.5813 16.7619 18.4761 16.7619C18.3709 16.7619 18.2856 16.6767 18.2856 16.5715C18.2856 16.4663 18.3709 16.381 18.4761 16.381C18.5813 16.381 18.6666 16.4663 18.6666 16.5715Z" fill="#C6874D"/>
<path d="M17.1429 19.2381C17.1429 19.3433 17.0576 19.4286 16.9524 19.4286C16.8472 19.4286 16.762 19.3433 16.762 19.2381C16.762 19.1329 16.8472 19.0476 16.9524 19.0476C17.0576 19.0476 17.1429 19.1329 17.1429 19.2381Z" fill="#C6874D"/>
<path fill-rule="evenodd" clip-rule="evenodd" d="M3.95982 3.8297C4.0539 4.01788 3.97762 4.24671 3.78943 4.34079C3.44122 4.51488 2.97214 4.81496 2.59045 5.32387C2.2127 5.82753 1.90473 6.55636 1.90473 7.6191C1.90473 7.8295 1.73417 8.00005 1.52377 8.00005C1.31338 8.00005 1.14282 7.8295 1.14282 7.6191C1.14282 6.39613 1.50152 5.50592 1.98093 4.86672C2.4564 4.23277 3.03496 3.86618 3.44872 3.65931C3.63691 3.56523 3.86573 3.64151 3.95982 3.8297Z" fill="#FFCA99"/>
<path d="M12.1904 9.75242L14.5714 9.26988L15.2857 8.06353L16 6.85718L17.4285 9.26988L19.8095 9.75242L17.9047 11.6826L18.3809 14.0953L16 12.8889L13.619 14.0953L14.0952 11.6826L12.1904 9.75242Z" fill="#FFCA99"/>
<path fill-rule="evenodd" clip-rule="evenodd" d="M14.5713 9.26982L15.9999 6.85712L17.4285 9.26982L19.8094 9.75236L17.9047 11.6825L18.3809 14.0952L15.9999 12.8889L13.619 14.0952L14.0952 11.6825L12.1904 9.75236L14.5713 9.26982ZM13.2696 11.9306L11.6481 10.2875C11.4516 10.0884 11.38 9.79765 11.4616 9.53009C11.5432 9.26253 11.7649 9.0612 12.0391 9.00563L14.0882 8.59034L15.3443 6.46894C15.4815 6.23729 15.7307 6.09521 15.9999 6.09521C16.2691 6.09521 16.5184 6.23729 16.6555 6.46894L17.9116 8.59034L19.9608 9.00563C20.2349 9.0612 20.4566 9.26253 20.5382 9.53009C20.6198 9.79765 20.5482 10.0884 20.3517 10.2875L18.7303 11.9306L19.1284 13.9477C19.1848 14.2336 19.0732 14.5266 18.841 14.7025C18.6087 14.8785 18.2964 14.9066 18.0365 14.7749L15.9999 13.743L13.9633 14.7749C13.7034 14.9066 13.3911 14.8785 13.1589 14.7025C12.9266 14.5266 12.8151 14.2336 12.8715 13.9477L13.2696 11.9306Z" fill="#333847"/>
<path fill-rule="evenodd" clip-rule="evenodd" d="M16.1704 8.04018C16.3585 8.13427 16.4348 8.3631 16.3407 8.55128L15.5788 10.0751C15.521 10.1907 15.4086 10.2691 15.2802 10.2833L13.5659 10.4738C13.3568 10.4971 13.1684 10.3464 13.1452 10.1373C13.122 9.92816 13.2726 9.73981 13.4817 9.71658L14.99 9.54899L15.6593 8.21055C15.7534 8.02236 15.9822 7.94609 16.1704 8.04018Z" fill="white"/>
</g>
<defs>
<clipPath id="clip0_818_5801">
<rect width="32" height="30.4762" fill="white"/>
</clipPath>
</defs>
</svg>
