<svg viewBox="0 0 32 32" fill="none" xmlns="http://www.w3.org/2000/svg">
<path d="M0 9.10559C0 6.89646 1.79086 5.10559 4 5.10559H22.7233C24.9324 5.10559 26.7233 6.89645 26.7233 9.10559V28C26.7233 30.2092 24.9324 32 22.7233 32H4C1.79086 32 0 30.2092 0 28V9.10559Z" fill="#7D9DEE"/>
<path fill-rule="evenodd" clip-rule="evenodd" d="M22.7233 6.10559H4C2.34315 6.10559 1 7.44874 1 9.10559V28C1 29.6569 2.34314 31 4 31H22.7233C24.3801 31 25.7233 29.6569 25.7233 28V9.10559C25.7233 7.44874 24.3801 6.10559 22.7233 6.10559ZM4 5.10559C1.79086 5.10559 0 6.89646 0 9.10559V28C0 30.2092 1.79086 32 4 32H22.7233C24.9324 32 26.7233 30.2092 26.7233 28V9.10559C26.7233 6.89645 24.9324 5.10559 22.7233 5.10559H4Z" fill="#333847"/>
<rect x="4.94873" y="10.0861" width="14.8463" height="0.99609" rx="0.498045" fill="#333847"/>
<rect x="4.94873" y="13.0743" width="13.8565" height="0.99609" rx="0.498045" fill="#333847"/>
<rect x="4.94873" y="16.0625" width="10.8873" height="0.99609" rx="0.498045" fill="#333847"/>
<path fill-rule="evenodd" clip-rule="evenodd" d="M23.7795 2.83741C25.3366 1.27033 27.8612 1.27033 29.4183 2.83741L29.4632 2.88262L25.4066 6.72622L22.8397 3.78331L23.7795 2.83741Z" fill="#FE6A16"/>
<path d="M28.2407 9.21898L29.4632 7.98864C30.8642 6.57865 30.8642 4.29261 29.4632 2.88262L-nan -nanL29.4632 2.88262L25.4066 6.72622L28.2407 9.21898Z" fill="#D55B16"/>
<path fill-rule="evenodd" clip-rule="evenodd" d="M7.81991 18.8993L10.5235 21.6202L5.42427 26.2518L7.81991 18.8993Z" fill="#DCE1EB"/>
<path d="M5.42427 26.2518L13.221 24.3349L10.5235 21.6202L5.42427 26.2518Z" fill="#A7A8AB"/>
<path fill-rule="evenodd" clip-rule="evenodd" d="M13.8565 23.6953L27.5849 9.87897L24.7437 7.3896L11.1821 20.961L13.8565 23.6953Z" fill="#D6AD04"/>
<path fill-rule="evenodd" clip-rule="evenodd" d="M8.49808 18.2167L11.1821 20.961L24.7437 7.3896L22.1325 4.49495L8.49808 18.2167Z" fill="#FFCE00"/>
<path d="M7.81991 18.8993L10.5235 21.6202L11.1821 20.961L8.49808 18.2167L7.81991 18.8993Z" fill="#333847"/>
<path d="M10.5235 21.6202L13.221 24.3349L13.8565 23.6953L11.1821 20.961L10.5235 21.6202Z" fill="#333847"/>
<path fill-rule="evenodd" clip-rule="evenodd" d="M25.4066 6.72631L28.2406 9.21907L29.4631 7.98873C30.7448 6.6989 30.854 4.67596 29.7908 3.26118C29.7351 3.18703 29.6761 3.11456 29.614 3.04394C29.5656 2.98904 29.5154 2.93527 29.4631 2.88272L29.4182 2.8375C29.3141 2.7327 29.2056 2.63491 29.0934 2.54412C27.5278 1.27743 25.2324 1.37522 23.7795 2.8375L22.8396 3.78341L25.4066 6.72631ZM22.1325 4.49504L7.81982 18.8994L5.42419 26.2519L13.2209 24.335L27.5849 9.87906L24.7437 7.38969L22.1325 4.49504ZM6.94677 18.3593L3.91803 27.6548L13.7285 25.2429L30.168 8.6981C31.9583 6.89634 31.9583 3.97511 30.168 2.17336L30.1231 2.12814C28.1767 0.169295 25.021 0.169294 23.0746 2.12814L6.94677 18.3593Z" fill="#333847"/>
</svg>
