<svg viewBox="0 0 31 32" fill="none" xmlns="http://www.w3.org/2000/svg">
<path fill-rule="evenodd" clip-rule="evenodd" d="M15.25 0.000258236C15.9918 0.00830073 16.732 0.204199 17.3966 0.587953L28.2105 5.08078C29.5683 5.86472 30.4047 7.3135 30.4047 8.88137L27.8195 23.667C27.8195 24.407 27.6331 25.1204 27.2936 25.75L24 22.75L15.25 27V31.9997C14.4765 32.0081 13.7012 31.8122 13.0081 31.4121L4.38854 27.4675C3.03072 26.6836 2.19427 25.2348 2.19427 23.667L0 8.88137C0 8.02181 0.251404 7.19804 0.702294 6.5L4.38854 8.5L15.25 3.5V0.000258236Z" fill="#EEF3FE"/>
<path d="M17.3966 31.4121L25.6252 27.4675C26.3422 27.0536 26.9137 26.4543 27.2936 25.75L24 22.75L15.25 27V31.9997C15.9918 31.9917 16.732 31.7958 17.3966 31.4121Z" fill="#8891A8"/>
<path d="M13.0081 0.587953L2.19427 5.08078C1.58085 5.43494 1.07385 5.92479 0.702294 6.5L4.38854 8.5L15.25 3.5V0.000258236C14.4765 -0.00812857 13.7012 0.18777 13.0081 0.587953Z" fill="white"/>
<path d="M13.6262 3.93178C14.631 3.35607 15.869 3.35607 16.8738 3.93178L24.8762 7.2312C25.881 7.8069 26.5 8.87085 26.5 10.0223L24.5869 20.8804C24.5869 22.0318 23.9679 23.0958 22.9631 23.6715L16.8738 26.5682C15.869 27.1439 14.631 27.1439 13.6262 26.5682L7.24759 23.6715C6.24279 23.0958 5.6238 22.0318 5.6238 20.8804L4 10.0223C4 8.87085 4.61899 7.8069 5.6238 7.2312L13.6262 3.93178Z" fill="#5F83E7"/>
<path fill-rule="evenodd" clip-rule="evenodd" d="M13.6262 3.93178L5.6238 7.2312C4.61899 7.8069 4 8.87085 4 10.0223L5.6238 20.8804C5.6238 22.0318 6.24279 23.0958 7.24759 23.6715L13.6262 26.5682C14.631 27.1439 15.869 27.1439 16.8738 26.5682L22.9631 23.6715C23.9679 23.0958 24.5869 22.0318 24.5869 20.8804L26.5 10.0223C26.5 8.87085 25.881 7.8069 24.8762 7.2312L16.8738 3.93178C15.869 3.35607 14.631 3.35607 13.6262 3.93178ZM24.6545 7.68061L16.6533 4.3817L16.6252 4.36562C15.7744 3.87813 14.7256 3.87813 13.8748 4.36562L13.8467 4.3817L5.84554 7.68061C5.02131 8.16521 4.51269 9.03964 4.50023 9.98664L6.1238 20.8432V20.8804C6.1238 21.8439 6.63777 22.7366 7.47665 23.2264L13.8544 26.1227L13.8748 26.1344C14.7256 26.6219 15.7744 26.6219 16.6252 26.1344L16.6418 26.1249L22.7303 23.2285C23.5714 22.7392 24.0869 21.8453 24.0869 20.8804V20.8367L25.9997 9.98039C25.9851 9.03579 25.4769 8.16414 24.6545 7.68061Z" fill="#384F8F"/>
<path fill-rule="evenodd" clip-rule="evenodd" d="M13.0081 0.587953L2.19427 5.08078C0.836452 5.86472 0 7.3135 0 8.88137L2.19427 23.6669C2.19427 25.2348 3.03072 26.6836 4.38854 27.4675L13.0081 31.412C14.3659 32.196 16.0388 32.196 17.3966 31.412L25.6252 27.4675C26.983 26.6836 27.8195 25.2348 27.8195 23.6669L30.4047 8.88137C30.4047 7.3135 29.5683 5.86472 28.2105 5.08078L17.3966 0.587953C16.0388 -0.195984 14.3659 -0.195985 13.0081 0.587953ZM27.7629 5.9777L16.9529 1.48648L16.8966 1.45398C15.8482 0.848674 14.5565 0.848674 13.5081 1.45398L13.4518 1.48648L2.64186 5.9777C1.64408 6.57781 1.02434 7.64858 1.0007 8.8123L3.19427 23.5931V23.6669C3.19427 24.8628 3.82448 25.9689 4.8504 26.5792L13.4672 30.5224L13.5081 30.546C14.5565 31.1513 15.8482 31.1513 16.8966 30.546L16.9298 30.5269L25.1562 26.5834C26.1863 25.9741 26.8195 24.8656 26.8195 23.6669V23.5802L29.4038 8.80015C29.3761 7.64113 28.7572 6.57572 27.7629 5.9777Z" fill="#333847"/>
</svg>
