<svg viewBox="0 0 32 19" fill="none" xmlns="http://www.w3.org/2000/svg">
<path d="M32 9.5C32 11.5357 24.8366 19 16 19C7.16344 19 0 11.5357 0 9.5C0 7.46429 7.16344 0 16 0C24.8366 0 32 7.46429 32 9.5Z" fill="white"/>
<path fill-rule="evenodd" clip-rule="evenodd" d="M30.9997 9.49999C30.9987 9.49082 30.9934 9.44936 30.9672 9.36957C30.935 9.27121 30.8796 9.14072 30.7929 8.97856C30.6191 8.6532 30.346 8.24955 29.9698 7.7914C29.219 6.87698 28.1104 5.80962 26.7228 4.79338C23.9393 2.75476 20.1422 1 16 1C11.8578 1 8.06074 2.75476 5.27715 4.79338C3.88955 5.80962 2.78104 6.87698 2.03021 7.7914C1.65402 8.24955 1.3809 8.6532 1.20707 8.97856C1.12043 9.14072 1.06505 9.27121 1.03278 9.36957C1.00659 9.44938 1.00131 9.49085 1.00026 9.5C1.00131 9.50916 1.00659 9.55062 1.03278 9.63043C1.06505 9.72879 1.12043 9.85928 1.20707 10.0214C1.3809 10.3468 1.65402 10.7504 2.03021 11.2086C2.78104 12.123 3.88955 13.1904 5.27715 14.2066C8.06074 16.2452 11.8578 18 16 18C20.1422 18 23.9393 16.2452 26.7228 14.2066C28.1104 13.1904 29.219 12.123 29.9698 11.2086C30.346 10.7504 30.6191 10.3468 30.7929 10.0214C30.8796 9.85928 30.935 9.72879 30.9672 9.63043C30.9934 9.55059 30.9987 9.50912 30.9997 9.49999ZM16 19C24.8366 19 32 11.5357 32 9.5C32 7.46429 24.8366 0 16 0C7.16344 0 0 7.46429 0 9.5C0 11.5357 7.16344 19 16 19Z" fill="#333847"/>
<path d="M25 9.5C25 14.1944 21.1944 18 16.5 18C11.8056 18 8 14.1944 8 9.5C8 4.80558 11.8056 1 16.5 1C21.1944 1 25 4.80558 25 9.5Z" fill="#7D9DEE"/>
<path fill-rule="evenodd" clip-rule="evenodd" d="M26 9.5C26 14.7467 21.7467 19 16.5 19C11.2533 19 7 14.7467 7 9.5C7 4.25329 11.2533 0 16.5 0C21.7467 0 26 4.25329 26 9.5ZM16.5 18C21.1944 18 25 14.1944 25 9.5C25 4.80558 21.1944 1 16.5 1C11.8056 1 8 4.80558 8 9.5C8 14.1944 11.8056 18 16.5 18Z" fill="#333847"/>
<path d="M12.4521 7.53425C11.9973 8.47076 11.8813 9.53599 12.1239 10.5484C12.3665 11.5609 12.9526 12.4579 13.7824 13.0867C14.6122 13.7154 15.6343 14.037 16.6746 13.9966C17.7149 13.9562 18.7091 13.5564 19.4876 12.8652C20.2662 12.174 20.781 11.2342 20.9443 10.206C21.1077 9.17782 20.9094 8.12479 20.3834 7.22635C19.8574 6.32792 19.0361 5.63966 18.0596 5.27886C17.083 4.91806 16.0115 4.90704 15.0277 5.24768L16.5001 9.49999L12.4521 7.53425Z" fill="#333847"/>
</svg>
