<svg width="32" height="24" viewBox="0 0 32 24" fill="none" xmlns="http://www.w3.org/2000/svg">
<path d="M32 12C32 14.5714 24.8366 24 16 24C7.16344 24 0 14.5714 0 12C0 9.42857 7.16344 0 16 0C24.8366 0 32 9.42857 32 12Z" fill="white"/>
<path fill-rule="evenodd" clip-rule="evenodd" d="M30.7539 12.8644C30.9474 12.407 31 12.1239 31 12C31 11.8761 30.9474 11.593 30.7539 11.1356C30.5691 10.6988 30.2856 10.172 29.9042 9.58519C29.1419 8.41245 28.0247 7.05573 26.6346 5.76978C23.8358 3.18059 20.0678 1 16 1C11.9322 1 8.16418 3.18059 5.36537 5.76978C3.97531 7.05573 2.85811 8.41245 2.09579 9.58519C1.71437 10.172 1.43086 10.6988 1.24607 11.1356C1.05262 11.593 1 11.8761 1 12C1 12.1239 1.05262 12.407 1.24607 12.8644C1.43086 13.3013 1.71437 13.828 2.09579 14.4148C2.85811 15.5876 3.97531 16.9443 5.36537 18.2302C8.16418 20.8194 11.9322 23 16 23C20.0678 23 23.8358 20.8194 26.6346 18.2302C28.0247 16.9443 29.1419 15.5876 29.9042 14.4148C30.2856 13.828 30.5691 13.3013 30.7539 12.8644ZM16 24C24.8366 24 32 14.5714 32 12C32 9.42857 24.8366 0 16 0C7.16344 0 0 9.42857 0 12C0 14.5714 7.16344 24 16 24Z" fill="#333847"/>
<path d="M27 12C27 18.0751 22.0751 23 16 23C9.92487 23 5 18.0751 5 12C5 5.92487 9.92487 1 16 1C22.0751 1 27 5.92487 27 12Z" fill="#7D9DEE"/>
<path fill-rule="evenodd" clip-rule="evenodd" d="M28 12C28 18.6274 22.6274 24 16 24C9.37258 24 4 18.6274 4 12C4 5.37258 9.37258 0 16 0C22.6274 0 28 5.37258 28 12ZM16 23C22.0751 23 27 18.0751 27 12C27 5.92487 22.0751 1 16 1C9.92487 1 5 5.92487 5 12C5 18.0751 9.92487 23 16 23Z" fill="#333847"/>
<path d="M10.5769 9.3065C9.98073 10.5342 9.82868 11.9306 10.1467 13.2578C10.4646 14.5851 11.233 15.761 12.3208 16.5852C13.4086 17.4095 14.7485 17.831 16.1123 17.7781C17.476 17.7251 18.7793 17.201 19.7999 16.2949C20.8205 15.3888 21.4954 14.1569 21.7095 12.809C21.9236 11.4611 21.6638 10.0806 20.9742 8.90287C20.2846 7.72509 19.208 6.82285 17.9278 6.34988C16.6476 5.8769 15.243 5.86245 13.9533 6.30899L15.8834 11.8834L10.5769 9.3065Z" fill="#333847"/>
</svg>
