<svg width="31" height="32" viewBox="0 0 31 32" fill="none" xmlns="http://www.w3.org/2000/svg">
<path fill-rule="evenodd" clip-rule="evenodd" d="M13.0523 1.91003C12.5702 1.91003 12.1615 2.26487 12.0933 2.74259L11.7457 5.17819C10.7895 5.44484 9.88053 5.82505 9.03427 6.30338L7.06712 4.82657C6.68144 4.53703 6.14176 4.57542 5.80086 4.91665L3.00356 7.71668C2.66267 8.05791 2.62431 8.59812 2.91357 8.98418L4.38897 10.9533C3.91115 11.8003 3.53134 12.7101 3.26497 13.6672L0.831749 14.0151C0.354495 14.0834 5.7742e-07 14.4925 5.19678e-07 14.9751L0 18.9349C-5.7742e-08 19.4175 0.354494 19.8266 0.831748 19.8949L3.26497 20.2428C3.53136 21.2 3.91119 22.1098 4.38906 22.9569L2.91369 24.926C2.62443 25.312 2.66279 25.8522 3.00368 26.1935L5.80098 28.9935C6.14188 29.3347 6.68156 29.3731 7.06724 29.0836L9.03444 27.6067C9.88064 28.085 10.7895 28.4652 11.7457 28.7318L12.0933 31.1674C12.1615 31.6452 12.5702 32 13.0523 32H17.0083C17.4904 32 17.8991 31.6452 17.9673 31.1674L18.3149 28.7318C19.2711 28.4652 20.1801 28.085 21.0263 27.6067L22.9935 29.0835C23.3792 29.373 23.9188 29.3346 24.2597 28.9934L27.057 26.1933C27.3979 25.8521 27.4363 25.3119 27.147 24.9259L25.6716 22.9567C26.1495 22.1097 26.5293 21.1999 26.7956 20.2428L29.2289 19.8949C29.7061 19.8266 30.0606 19.4175 30.0606 18.9349V14.9751C30.0606 14.4925 29.7061 14.0834 29.2289 14.0151L26.7956 13.6672C26.5292 12.71 26.1494 11.8002 25.6715 10.9531L27.1469 8.98406C27.4362 8.598 27.3978 8.05779 27.0569 7.71656L24.2596 4.91653C23.9187 4.5753 23.379 4.53691 22.9934 4.82645L21.0262 6.30329C20.18 5.825 19.2711 5.44483 18.3149 5.17819L17.9673 2.74259C17.8991 2.26487 17.4904 1.91003 17.0083 1.91003H13.0523ZM15.0303 23.5372C18.662 23.5372 21.6061 20.5903 21.6061 16.955C21.6061 13.3198 18.662 10.3728 15.0303 10.3728C11.3986 10.3728 8.45455 13.3198 8.45455 16.955C8.45455 20.5903 11.3986 23.5372 15.0303 23.5372Z" fill="#333847"/>
<path fill-rule="evenodd" clip-rule="evenodd" d="M12.6791 4.39511C12.6248 4.77495 12.3511 5.08675 11.9815 5.18972C11.1036 5.43429 10.2689 5.78307 9.49144 6.22206C9.15723 6.41078 8.74303 6.38393 8.43598 6.15365L6.4728 4.68126L3.68114 7.47292L5.15355 9.43614C5.38384 9.74319 5.41069 10.1574 5.22198 10.4916C4.78302 11.269 4.43428 12.1036 4.18972 12.9815C4.08675 13.3511 3.77495 13.6248 3.39511 13.6791L0.966797 14.026L0.966797 17.974L3.39511 18.3209C3.77495 18.3752 4.08675 18.6489 4.18972 19.0185C4.43429 19.8964 4.78307 20.7312 5.22206 21.5086C5.41078 21.8428 5.38393 22.257 5.15365 22.564L3.68126 24.5272L6.47292 27.3189L8.43614 25.8464C8.74319 25.6162 9.15738 25.5893 9.49159 25.778C10.269 26.217 11.1036 26.5657 11.9815 26.8103C12.3511 26.9133 12.6248 27.2251 12.6791 27.6049L13.026 30.0332L16.974 30.0332L17.3209 27.6049C17.3752 27.2251 17.6489 26.9133 18.0185 26.8103C18.8964 26.5657 19.7312 26.2169 20.5086 25.7779C20.8428 25.5892 21.257 25.6161 21.564 25.8464L23.5272 27.3187L26.3189 24.5271L24.8464 22.5639C24.6162 22.2568 24.5893 21.8426 24.778 21.5084C25.217 20.731 25.5657 19.8964 25.8103 19.0185C25.9133 18.6489 26.2251 18.3752 26.6049 18.3209L29.0332 17.974L29.0332 14.026L26.6049 13.6791C26.2251 13.6248 25.9132 13.3511 25.8103 12.9815C25.5657 12.1036 25.2169 11.2689 24.7779 10.4914C24.5892 10.1572 24.6161 9.74303 24.8464 9.43598L26.3187 7.4728L23.5271 4.68114L21.5639 6.15356C21.2568 6.38384 20.8426 6.41069 20.5084 6.22198C19.731 5.78302 18.8964 5.43428 18.0185 5.18972C17.6489 5.08675 17.3752 4.77495 17.3209 4.39511L16.974 1.9668L13.026 1.9668L12.6791 4.39511ZM24.2107 3.99751C23.8705 3.6573 23.3319 3.61902 22.947 3.9077L20.9838 5.38012C20.1393 4.90326 19.2322 4.52422 18.278 4.25839L17.9311 1.83007C17.863 1.35378 17.4551 1 16.974 1H13.026C12.5449 1 12.137 1.35378 12.0689 1.83007L11.722 4.25839C10.7677 4.52424 9.8606 4.90331 9.01606 5.38021L7.05287 3.90782C6.66797 3.61914 6.12937 3.65742 5.78917 3.99763L2.99751 6.78929C2.6573 7.1295 2.61902 7.66809 2.9077 8.053L4.38012 10.0162C3.90326 10.8607 3.52422 11.7678 3.25839 12.722L0.830072 13.0689C0.353781 13.137 5.76256e-07 13.5449 5.1863e-07 14.026L0 17.974C-5.76256e-08 18.4551 0.353779 18.863 0.830071 18.9311L3.25839 19.278C3.52424 20.2323 3.90331 21.1394 4.38021 21.9839L2.90782 23.9471C2.61914 24.332 2.65742 24.8706 2.99763 25.2108L5.78929 28.0025C6.1295 28.3427 6.66809 28.381 7.05299 28.0923L9.01622 26.6199C9.86072 27.0967 10.7678 27.4758 11.722 27.7416L12.0689 30.1699C12.137 30.6462 12.5449 31 13.026 31H16.974C17.4551 31 17.863 30.6462 17.9311 30.1699L18.278 27.7416C19.2323 27.4758 20.1394 27.0967 20.9839 26.6198L22.9471 28.0922C23.332 28.3809 23.8706 28.3426 24.2108 28.0024L27.0025 25.2107C27.3427 24.8705 27.381 24.3319 27.0923 23.947L25.6199 21.9838C26.0967 21.1393 26.4758 20.2322 26.7416 19.278L29.1699 18.9311C29.6462 18.863 30 18.4551 30 17.974V14.026C30 13.5449 29.6462 13.137 29.1699 13.0689L26.7416 12.722C26.4758 11.7677 26.0967 10.8606 25.6198 10.0161L27.0922 8.05288C27.3809 7.66797 27.3426 7.12938 27.0024 6.78917L24.2107 3.99751ZM22.5293 16C22.5293 20.1583 19.1583 23.5293 15 23.5293C10.8417 23.5293 7.4707 20.1583 7.4707 16C7.4707 11.8417 10.8417 8.4707 15 8.4707C19.1583 8.4707 22.5293 11.8417 22.5293 16ZM21.5625 16C21.5625 19.6244 18.6244 22.5625 15 22.5625C11.3756 22.5625 8.4375 19.6244 8.4375 16C8.4375 12.3756 11.3756 9.4375 15 9.4375C18.6244 9.4375 21.5625 12.3756 21.5625 16Z" fill="#333847"/>
<path fill-rule="evenodd" clip-rule="evenodd" d="M13.0523 0C12.5702 0 12.1615 0.35484 12.0933 0.83256L11.7457 3.26816C10.7895 3.53481 9.88052 3.91501 9.03427 4.39334L7.06712 2.91654C6.68144 2.627 6.14176 2.66539 5.80086 3.00662L3.00356 5.80665C2.66267 6.14788 2.62431 6.68809 2.91357 7.07414L4.38897 9.04326C3.91115 9.89029 3.53134 10.8001 3.26497 11.7572L0.831749 12.1051C0.354495 12.1734 5.7742e-07 12.5825 5.19678e-07 13.0651L0 17.0249C-5.7742e-08 17.5075 0.354494 17.9166 0.831747 17.9849L3.26497 18.3328C3.53136 19.29 3.91119 20.1998 4.38906 21.0469L2.91369 23.0159C2.62443 23.402 2.66279 23.9422 3.00368 24.2834L5.80098 27.0835C6.14188 27.4247 6.68156 27.4631 7.06724 27.1735L9.03443 25.6967C9.88064 26.175 10.7895 26.5552 11.7457 26.8218L12.0933 29.2574C12.1615 29.7351 12.5702 30.09 13.0523 30.09H17.0083C17.4904 30.09 17.8991 29.7351 17.9673 29.2574L18.3149 26.8218C19.2711 26.5552 20.1801 26.175 21.0263 25.6966L22.9935 27.1734C23.3792 27.463 23.9188 27.4246 24.2597 27.0833L27.057 24.2833C27.3979 23.9421 27.4363 23.4019 27.147 23.0158L25.6716 21.0467C26.1495 20.1997 26.5293 19.2899 26.7956 18.3328L29.2289 17.9849C29.7061 17.9166 30.0606 17.5075 30.0606 17.0249V13.0651C30.0606 12.5825 29.7061 12.1734 29.2289 12.1051L26.7956 11.7572C26.5292 10.8 26.1494 9.89017 25.6715 9.0431L27.1469 7.07402C27.4362 6.68797 27.3978 6.14776 27.0569 5.80653L24.2596 3.0065C23.9187 2.66527 23.379 2.62688 22.9934 2.91642L21.0262 4.39325C20.18 3.91497 19.2711 3.53479 18.3149 3.26816L17.9673 0.83256C17.8991 0.354841 17.4904 0 17.0083 0H13.0523ZM15.0303 21.6272C18.662 21.6272 21.6061 18.6802 21.6061 15.045C21.6061 11.4097 18.662 8.4628 15.0303 8.4628C11.3986 8.4628 8.45455 11.4097 8.45455 15.045C8.45455 18.6802 11.3986 21.6272 15.0303 21.6272Z" fill="white"/>
<path fill-rule="evenodd" clip-rule="evenodd" d="M12.7047 3.40529C12.6503 3.78627 12.376 4.099 12.0057 4.20228C11.126 4.44759 10.2896 4.79741 9.51061 5.23772C9.17573 5.42701 8.76069 5.40008 8.45302 5.1691L6.48587 3.6923L3.68857 6.49233L5.16397 8.46144C5.39472 8.76941 5.42162 9.18484 5.23252 9.52005C4.79269 10.2998 4.44323 11.1369 4.19818 12.0174C4.095 12.3881 3.78257 12.6627 3.40197 12.7171L0.968751 13.0651L0.96875 17.0249L3.40197 17.3728C3.78257 17.4273 4.09501 17.7018 4.19818 18.0726C4.44325 18.9531 4.79273 19.7903 5.23261 20.5701C5.42171 20.9053 5.39481 21.3207 5.16406 21.6287L3.68869 23.5978L6.48599 26.3978L8.45318 24.921C8.76085 24.69 9.17588 24.663 9.51076 24.8523C10.2897 25.2926 11.126 25.6424 12.0057 25.8877C12.376 25.991 12.6503 26.3037 12.7047 26.6847L13.0523 29.1203L17.0083 29.1203L17.3559 26.6847C17.4103 26.3037 17.6846 25.991 18.0549 25.8877C18.9346 25.6424 19.771 25.2926 20.55 24.8522C20.8849 24.663 21.2999 24.6899 21.6076 24.9209L23.5747 26.3977L26.372 23.5976L24.8966 21.6285C24.6659 21.3206 24.639 20.9051 24.8281 20.5699C25.2679 19.7902 25.6174 18.9531 25.8624 18.0726C25.9656 17.7018 26.278 17.4273 26.6586 17.3728L29.0919 17.0249L29.0919 13.0651L26.6586 12.7171C26.278 12.6627 25.9656 12.3881 25.8624 12.0174C25.6174 11.1369 25.2679 10.2996 24.828 9.5199C24.6389 9.18469 24.6658 8.76925 24.8965 8.46128L26.3719 6.49221L23.5746 3.69218L21.6074 5.16901C21.2998 5.39998 20.8847 5.42692 20.5498 5.23764C19.7709 4.79737 18.9346 4.44757 18.0549 4.20228C17.6846 4.099 17.4103 3.78627 17.3559 3.40529L17.0083 0.969694L13.0523 0.969696L12.7047 3.40529ZM24.2596 3.0065C23.9187 2.66527 23.379 2.62688 22.9934 2.91642L21.0262 4.39325C20.18 3.91497 19.2711 3.53479 18.3149 3.26816L17.9673 0.83256C17.8991 0.354841 17.4904 0 17.0083 0H13.0523C12.5702 0 12.1615 0.35484 12.0933 0.83256L11.7457 3.26816C10.7895 3.53481 9.88052 3.91501 9.03427 4.39334L7.06712 2.91654C6.68144 2.627 6.14176 2.66539 5.80086 3.00662L3.00356 5.80665C2.66267 6.14788 2.62431 6.68809 2.91357 7.07414L4.38897 9.04326C3.91115 9.89029 3.53134 10.8001 3.26497 11.7572L0.831749 12.1051C0.354495 12.1734 5.7742e-07 12.5825 5.19678e-07 13.0651L0 17.0249C-5.7742e-08 17.5075 0.354494 17.9166 0.831747 17.9849L3.26497 18.3328C3.53136 19.29 3.91119 20.1998 4.38906 21.0469L2.91369 23.0159C2.62443 23.402 2.66279 23.9422 3.00368 24.2834L5.80098 27.0835C6.14188 27.4247 6.68156 27.4631 7.06724 27.1735L9.03443 25.6967C9.88064 26.175 10.7895 26.5552 11.7457 26.8218L12.0933 29.2574C12.1615 29.7351 12.5702 30.09 13.0523 30.09H17.0083C17.4904 30.09 17.8991 29.7351 17.9673 29.2574L18.3149 26.8218C19.2711 26.5552 20.1801 26.175 21.0263 25.6966L22.9935 27.1734C23.3792 27.463 23.9188 27.4246 24.2597 27.0833L27.057 24.2833C27.3979 23.9421 27.4363 23.4019 27.147 23.0158L25.6716 21.0467C26.1495 20.1997 26.5293 19.2899 26.7956 18.3328L29.2289 17.9849C29.7061 17.9166 30.0606 17.5075 30.0606 17.0249V13.0651C30.0606 12.5825 29.7061 12.1734 29.2289 12.1051L26.7956 11.7572C26.5292 10.8 26.1494 9.89017 25.6715 9.0431L27.1469 7.07402C27.4362 6.68797 27.3978 6.14776 27.0569 5.80653L24.2596 3.0065ZM22.5748 15.045C22.5748 19.2158 19.197 22.5969 15.0303 22.5969C10.8636 22.5969 7.4858 19.2158 7.4858 15.045C7.4858 10.8742 10.8636 7.49311 15.0303 7.49311C19.197 7.49311 22.5748 10.8742 22.5748 15.045ZM21.6061 15.045C21.6061 18.6802 18.662 21.6272 15.0303 21.6272C11.3986 21.6272 8.45455 18.6802 8.45455 15.045C8.45455 11.4097 11.3986 8.4628 15.0303 8.4628C18.662 8.4628 21.6061 11.4097 21.6061 15.045Z" fill="#333847"/>
</svg>
