<svg width="32" height="32" viewBox="0 0 32 32" fill="none" xmlns="http://www.w3.org/2000/svg">
<g clip-path="url(#clip0_2043_17339)">
<path fill-rule="evenodd" clip-rule="evenodd" d="M6.88492 16.0001C6.88492 14.9839 7.05369 14.0097 7.35492 13.0959L2.08238 9.06958C1.05478 11.156 0.47583 13.5069 0.47583 16.0001C0.47583 18.4911 1.05407 20.8406 2.08024 22.9256L7.34994 18.8914C7.05156 17.9819 6.88492 17.0113 6.88492 16.0001Z" fill="#FBBC05"/>
<path fill-rule="evenodd" clip-rule="evenodd" d="M16.1424 6.75559C18.35 6.75559 20.3439 7.53781 21.9106 8.81781L26.4682 4.2667C23.6909 1.84892 20.1303 0.355591 16.1424 0.355591C9.95121 0.355591 4.63025 3.89621 2.08228 9.06955L7.35482 13.0959C8.5697 9.40804 12.0327 6.75559 16.1424 6.75559Z" fill="#EB4335"/>
<path fill-rule="evenodd" clip-rule="evenodd" d="M16.1424 25.2444C12.0327 25.2444 8.5697 22.592 7.35482 18.9042L2.08228 22.9298C4.63024 28.1038 9.95121 31.6444 16.1424 31.6444C19.9636 31.6444 23.6118 30.2876 26.3499 27.7454L21.3452 23.8763C19.933 24.7659 18.1548 25.2444 16.1424 25.2444Z" fill="#34A853"/>
<path fill-rule="evenodd" clip-rule="evenodd" d="M31.0971 16.0001C31.0971 15.0756 30.9547 14.0801 30.7411 13.1556H16.1426V19.2001H24.5456C24.1255 21.2609 22.9818 22.8452 21.3453 23.8763L26.3501 27.7455C29.2264 25.076 31.0971 21.0995 31.0971 16.0001Z" fill="#4285F4"/>
</g>
<defs>
<clipPath id="clip0_2043_17339">
<rect width="32" height="32" fill="white"/>
</clipPath>
</defs>
</svg>
