<svg width="26" height="32" viewBox="0 0 26 32" fill="none" xmlns="http://www.w3.org/2000/svg">
<path d="M0 16.3125C0 14.1034 1.79086 12.3125 4 12.3125H22C24.2091 12.3125 26 14.1034 26 16.3125V24C26 28.4183 22.4183 32 18 32H8C3.58172 32 0 28.4183 0 24V16.3125Z" fill="#333847"/>
<path fill-rule="evenodd" clip-rule="evenodd" d="M22 13.3125H4C2.34315 13.3125 1 14.6556 1 16.3125V24C1 27.866 4.13401 31 8 31H18C21.866 31 25 27.866 25 24V16.3125C25 14.6556 23.6569 13.3125 22 13.3125ZM4 12.3125C1.79086 12.3125 0 14.1034 0 16.3125V24C0 28.4183 3.58172 32 8 32H18C22.4183 32 26 28.4183 26 24V16.3125C26 14.1034 24.2091 12.3125 22 12.3125H4Z" fill="#333847"/>
<path d="M2.78564 12.3125C2.78564 10.9582 3.03783 9.61724 3.52782 8.36607C4.0178 7.1149 4.73598 5.97806 5.64135 5.02046C6.54672 4.06285 7.62156 3.30324 8.80448 2.78499C9.9874 2.26674 11.2553 2 12.5356 2C13.816 2 15.0839 2.26674 16.2668 2.78499C17.4497 3.30324 18.5246 4.06286 19.4299 5.02046C20.3353 5.97807 21.0535 7.11491 21.5435 8.36608C22.0335 9.61725 22.2856 10.9582 22.2856 12.3125L17.2253 12.3125C17.2253 11.6611 17.104 11.0161 16.8684 10.4143C16.6327 9.81248 16.2872 9.26567 15.8518 8.80507C15.4163 8.34446 14.8993 7.97909 14.3303 7.72982C13.7613 7.48054 13.1515 7.35224 12.5356 7.35224C11.9198 7.35224 11.31 7.48054 10.741 7.72982C10.172 7.97909 9.655 8.34446 9.21953 8.80506C8.78405 9.26567 8.43861 9.81248 8.20293 10.4143C7.96725 11.0161 7.84594 11.6611 7.84594 12.3125L2.78564 12.3125Z" fill="#333847"/>
<path fill-rule="evenodd" clip-rule="evenodd" d="M4.45896 8.73073C4.13568 9.55623 3.92627 10.4258 3.83625 11.3125L6.92656 11.3125C6.99667 10.8808 7.11217 10.4572 7.27178 10.0496C7.55336 9.33064 7.96741 8.67383 8.49288 8.11805C9.01846 7.56215 9.64547 7.11801 10.3397 6.81386C11.0341 6.50965 11.7804 6.35224 12.5356 6.35224C13.2909 6.35224 14.0372 6.50965 14.7316 6.81386C15.4258 7.11801 16.0528 7.56216 16.5784 8.11805C17.1039 8.67384 17.5179 9.33064 17.7995 10.0496C17.9591 10.4572 18.0746 10.8808 18.1447 11.3125L21.235 11.3125C21.145 10.4258 20.9356 9.55623 20.6123 8.73073C20.1682 7.59675 19.5187 6.5699 18.7033 5.70747C17.888 4.84516 16.9232 4.16433 15.8655 3.70094C14.808 3.23763 13.6767 3 12.5356 3C11.3946 3 10.2633 3.23763 9.20577 3.70094C8.14808 4.16433 7.18327 4.84516 6.368 5.70747C5.55261 6.5699 4.90305 7.59675 4.45896 8.73073ZM22.2397 11.3125C22.2703 11.6443 22.2856 11.978 22.2856 12.3125L17.2253 12.3125C17.2253 11.6611 17.104 11.0161 16.8684 10.4143C16.6327 9.81248 16.2872 9.26567 15.8518 8.80507C15.4163 8.34446 14.8993 7.97909 14.3303 7.72982C13.7613 7.48054 13.1515 7.35224 12.5356 7.35224C11.9198 7.35224 11.31 7.48054 10.741 7.72982C10.172 7.97909 9.655 8.34446 9.21953 8.80506C8.78405 9.26567 8.43861 9.81248 8.20293 10.4143C7.96725 11.0161 7.84594 11.6611 7.84594 12.3125L2.78564 12.3125C2.78564 11.978 2.80103 11.6443 2.83159 11.3125C2.92474 10.3012 3.15887 9.30818 3.52782 8.36607C4.0178 7.1149 4.73598 5.97806 5.64135 5.02046C6.54672 4.06286 7.62156 3.30324 8.80448 2.78499C9.98741 2.26674 11.2553 2 12.5356 2C13.816 2 15.0839 2.26674 16.2668 2.78499C17.4497 3.30324 18.5246 4.06286 19.4299 5.02046C20.3353 5.97807 21.0535 7.11491 21.5435 8.36608C21.9124 9.30818 22.1465 10.3012 22.2397 11.3125Z" fill="#333847"/>
<path d="M0 14.3125C0 12.1034 1.79086 10.3125 4 10.3125H22C24.2091 10.3125 26 12.1034 26 14.3125V22C26 26.4183 22.4183 30 18 30H8C3.58172 30 0 26.4183 0 22V14.3125Z" fill="#F7E172"/>
<path fill-rule="evenodd" clip-rule="evenodd" d="M22 11.3125H4C2.34315 11.3125 1 12.6556 1 14.3125V22C1 25.866 4.13401 29 8 29H18C21.866 29 25 25.866 25 22V14.3125C25 12.6556 23.6569 11.3125 22 11.3125ZM4 10.3125C1.79086 10.3125 0 12.1034 0 14.3125V22C0 26.4183 3.58172 30 8 30H18C22.4183 30 26 26.4183 26 22V14.3125C26 12.1034 24.2091 10.3125 22 10.3125H4Z" fill="#333847"/>
<path d="M2.78564 10.3125C2.78564 8.95824 3.03783 7.61724 3.52782 6.36607C4.0178 5.1149 4.73598 3.97806 5.64135 3.02046C6.54672 2.06285 7.62156 1.30324 8.80448 0.784991C9.9874 0.26674 11.2553 -9.73579e-07 12.5356 -8.60568e-07C13.816 -7.47557e-07 15.0839 0.26674 16.2668 0.784992C17.4497 1.30324 18.5246 2.06286 19.4299 3.02046C20.3353 3.97807 21.0535 5.11491 21.5435 6.36608C22.0335 7.61725 22.2856 8.95824 22.2856 10.3125L17.2253 10.3125C17.2253 9.66111 17.104 9.0161 16.8684 8.41429C16.6327 7.81248 16.2872 7.26567 15.8518 6.80507C15.4163 6.34446 14.8993 5.97909 14.3303 5.72982C13.7613 5.48054 13.1515 5.35224 12.5356 5.35224C11.9198 5.35224 11.31 5.48054 10.741 5.72982C10.172 5.97909 9.655 6.34446 9.21953 6.80506C8.78405 7.26567 8.43861 7.81248 8.20293 8.41429C7.96725 9.0161 7.84594 9.66111 7.84594 10.3125L2.78564 10.3125Z" fill="#F7E172"/>
<path fill-rule="evenodd" clip-rule="evenodd" d="M4.45896 6.73073C4.13568 7.55623 3.92627 8.42581 3.83625 9.3125L6.92656 9.3125C6.99667 8.8808 7.11217 8.45721 7.27178 8.04963C7.55336 7.33064 7.96741 6.67383 8.49288 6.11805C9.01846 5.56215 9.64547 5.11801 10.3397 4.81386C11.0341 4.50965 11.7804 4.35224 12.5356 4.35224C13.2909 4.35224 14.0372 4.50965 14.7316 4.81386C15.4258 5.11801 16.0528 5.56216 16.5784 6.11805C17.1039 6.67384 17.5179 7.33064 17.7995 8.04964C17.9591 8.45721 18.0746 8.8808 18.1447 9.3125L21.235 9.3125C21.145 8.42582 20.9356 7.55623 20.6123 6.73073C20.1682 5.59675 19.5187 4.5699 18.7033 3.70747C17.888 2.84516 16.9232 2.16433 15.8655 1.70094C14.808 1.23763 13.6767 0.999999 12.5356 0.999999C11.3946 0.999999 10.2633 1.23763 9.20577 1.70094C8.14808 2.16433 7.18327 2.84516 6.368 3.70747C5.55261 4.5699 4.90305 5.59675 4.45896 6.73073ZM22.2397 9.3125C22.2703 9.64425 22.2856 9.97797 22.2856 10.3125L17.2253 10.3125C17.2253 9.66111 17.104 9.0161 16.8684 8.41429C16.6327 7.81248 16.2872 7.26567 15.8518 6.80507C15.4163 6.34446 14.8993 5.97909 14.3303 5.72982C13.7613 5.48054 13.1515 5.35224 12.5356 5.35224C11.9198 5.35224 11.31 5.48054 10.741 5.72982C10.172 5.97909 9.655 6.34446 9.21953 6.80506C8.78405 7.26567 8.43861 7.81248 8.20293 8.41429C7.96725 9.01609 7.84594 9.66111 7.84594 10.3125L2.78564 10.3125C2.78564 9.97797 2.80103 9.64425 2.83159 9.3125C2.92474 8.30122 3.15887 7.30818 3.52782 6.36607C4.0178 5.1149 4.73598 3.97806 5.64135 3.02046C6.54672 2.06286 7.62156 1.30324 8.80448 0.784991C9.98741 0.26674 11.2553 -9.73579e-07 12.5356 -8.60568e-07C13.816 -7.47557e-07 15.0839 0.26674 16.2668 0.784992C17.4497 1.30324 18.5246 2.06286 19.4299 3.02046C20.3353 3.97807 21.0535 5.11491 21.5435 6.36608C21.9124 7.30818 22.1465 8.30122 22.2397 9.3125Z" fill="#333847"/>
<path fill-rule="evenodd" clip-rule="evenodd" d="M14.4419 20.2195C15.2474 19.7266 15.7858 18.833 15.7858 17.8125C15.7858 16.2592 14.5386 15 13.0001 15C11.4616 15 10.2144 16.2592 10.2144 17.8125C10.2144 18.8213 10.7405 19.7061 11.5308 20.2024L11.5177 23.4375H14.4419V20.2195Z" fill="#191C25"/>
</svg>
