<svg viewBox="0 0 37 32" fill="none" xmlns="http://www.w3.org/2000/svg">
<path d="M26.6372 27.2061C27.0104 27.0196 27.438 26.9726 27.8428 27.0738L33.9676 28.605C34.9915 28.861 35.966 28.0403 35.8878 26.9878L29.2753 25.2712L28.0001 24.9401C27.7679 24.8799 27.5277 24.8685 27.2942 24.9045C27.123 24.931 26.9553 24.9829 26.797 25.0598L22.9743 26.9175L19.1515 28.7751C18.8992 28.8976 18.6249 28.9561 18.3516 28.9505C18.1005 28.9453 17.8503 28.8861 17.6189 28.7728L10.0452 25.064C9.81586 24.9517 9.56654 24.8919 9.31501 24.8863C9.15377 24.8828 8.99162 24.9015 8.83325 24.9431L0.878339 27.0291C0.801732 28.0613 1.75735 28.8661 2.76146 28.6151L8.92647 27.0738C9.33123 26.9726 9.75883 27.0196 10.132 27.2061L17.603 30.9416C18.095 31.1877 18.6742 31.1877 19.1663 30.9416L26.6372 27.2061Z" fill="#FBDFBF"/>
<path d="M29.2753 25.2712L35.8878 26.9878L35.5063 21.8473C31.7833 22.146 30.4698 22.9466 29.2753 25.2712Z" fill="#57C034"/>
<path d="M9.73802 3.55923L3.6553 5.24692C2.9446 5.44411 2.43418 6.0662 2.37959 6.80172L1.84665 13.9823C4.99462 13.7502 7.65318 13.7287 9.91438 13.955L10.4866 3.5184C10.2394 3.47808 9.98397 3.49099 9.73802 3.55923Z" fill="#77BFD6"/>
<path d="M0.878339 27.0291L8.83325 24.9431C8.99162 24.9015 9.15377 24.8828 9.31501 24.8863L9.91438 13.955C7.65318 13.7287 4.99462 13.7502 1.84665 13.9823L0.878339 27.0291Z" fill="#4B9E2F"/>
<path fill-rule="evenodd" clip-rule="evenodd" d="M18.3517 17.3387C16.3626 15.4036 13.6934 14.3333 9.91438 13.955L10.4866 3.5184C10.6836 3.55053 10.8755 3.61646 11.0534 3.71514L17.5366 7.31276C17.7904 7.45361 18.0705 7.52668 18.3516 7.53198L18.3517 17.3387ZM27.2942 24.9045C27.5277 24.8685 27.7679 24.8799 28.0001 24.9401L29.2753 25.2712C30.4698 22.9466 31.7833 22.146 35.5063 21.8473L34.9874 14.8562C31.2353 15.9785 28.7067 15.9142 26.7553 14.2137L27.2942 24.9045Z" fill="#85E2FF"/>
<path d="M22.9743 26.9175L26.797 25.0598C26.9553 24.9829 27.123 24.931 27.2942 24.9045L26.7553 14.2137C25.0245 12.7055 23.7478 9.9101 22.4743 5.51395L19.2327 7.31276C18.959 7.46462 18.6548 7.53769 18.3516 7.53198L18.3517 17.3387C20.5105 19.4391 21.8682 22.5583 22.9743 26.9175Z" fill="#77BFD6"/>
<path fill-rule="evenodd" clip-rule="evenodd" d="M9.31501 24.8863L9.91438 13.955C13.6934 14.3333 16.3626 15.4036 18.3517 17.3387L18.3516 28.9505C18.1005 28.9453 17.8503 28.8861 17.6189 28.7728L10.0452 25.064C9.81586 24.9517 9.56654 24.8919 9.31501 24.8863Z" fill="#57C034"/>
<path d="M19.1515 28.7751L22.9743 26.9175C21.8682 22.5583 20.5105 19.4391 18.3517 17.3387L18.3516 28.9505C18.6249 28.9561 18.8992 28.8976 19.1515 28.7751Z" fill="#4B9E2F"/>
<path fill-rule="evenodd" clip-rule="evenodd" d="M27.0312 3.55923L33.1139 5.24692C33.8246 5.44411 34.3351 6.0662 34.3896 6.80172L34.9874 14.8562C31.2353 15.9785 28.7067 15.9142 26.7553 14.2137L26.2167 3.53045C26.4843 3.47621 26.7633 3.48491 27.0312 3.55923Z" fill="#57C034"/>
<path d="M25.7159 3.71514L22.4743 5.51395C23.7478 9.9101 25.0245 12.7055 26.7553 14.2137L26.2167 3.53045C26.0428 3.56569 25.8738 3.6275 25.7159 3.71514Z" fill="#4B9E2F"/>
<path fill-rule="evenodd" clip-rule="evenodd" d="M0.878294 27.0291L2.37954 6.80172C2.43413 6.0662 2.94456 5.4441 3.65525 5.24692L9.73798 3.55922C10.1799 3.43661 10.6523 3.49261 11.0533 3.71513L17.5365 7.31276C18.064 7.60546 18.7051 7.60546 19.2326 7.31276L25.7158 3.71513C26.1169 3.49261 26.5893 3.43661 27.0312 3.55923L33.1139 5.24692C33.8246 5.4441 34.335 6.0662 34.3896 6.80171L35.8878 26.9878C35.9659 28.0403 34.9915 28.861 33.9676 28.605L27.8427 27.0738C27.438 26.9726 27.0104 27.0195 26.6372 27.2061L19.1662 30.9416C18.6742 31.1876 18.095 31.1876 17.6029 30.9416L10.132 27.2061C9.75879 27.0195 9.33118 26.9726 8.92642 27.0738L2.76142 28.615C1.7573 28.8661 0.801687 28.0613 0.878294 27.0291ZM3.42161 4.40484L9.50434 2.71714C10.1672 2.53322 10.8758 2.61722 11.4773 2.951L17.9605 6.54863C18.2243 6.69498 18.5449 6.69498 18.8086 6.54863L25.2918 2.951C25.8933 2.61722 26.6019 2.53323 27.2648 2.71714L33.3475 4.40484C34.4136 4.70062 35.1792 5.63375 35.2611 6.73703L36.7593 26.9231C36.8815 28.5695 35.3572 29.8532 33.7556 29.4528L27.6308 27.9216C27.4284 27.871 27.2146 27.8945 27.028 27.9878L19.557 31.7233C18.8189 32.0923 17.9502 32.0923 17.2121 31.7233L9.74114 27.9878C9.55455 27.8945 9.34075 27.871 9.13837 27.9216L2.97337 29.4628C1.39154 29.8583 -0.113884 28.5904 0.0067988 26.9644L1.50805 6.73703C1.58993 5.63376 2.35557 4.70062 3.42161 4.40484Z" fill="black"/>
<path d="M24.0061 8.12243C24.1793 7.61804 24.7681 7.39492 25.232 7.65785L31.7458 11.3491C32.1158 11.5587 32.2186 12.0451 31.9651 12.3865V12.3865C31.7583 12.6649 31.3802 12.7525 31.0721 12.5933L24.4208 9.15604C24.0454 8.96202 23.8689 8.52213 24.0061 8.12243V8.12243Z" fill="white"/>
<path d="M25.3193 13.3559C24.9986 13.0348 24.9762 12.5219 25.2679 12.1741L30.118 6.39107C30.3449 6.12053 30.7435 6.07409 31.0265 6.28523V6.28523C31.3216 6.50537 31.3821 6.92318 31.1615 7.21797L26.6403 13.2616C26.3206 13.6888 25.6964 13.7334 25.3193 13.3559V13.3559Z" fill="white"/>
<path d="M28.894 9.17585L33.4348 1.31082C33.603 1.01952 33.582 0.691813 33.4348 0.436928L28.1371 2.62166V9.61279C28.4314 9.61282 28.7258 9.46718 28.894 9.17585Z" fill="#8F191B"/>
<path fill-rule="evenodd" clip-rule="evenodd" d="M28.1371 9.61279C27.8428 9.61276 27.5485 9.46711 27.3803 9.17585L22.8395 1.31082C22.6713 1.01952 22.6923 0.691813 22.8395 0.436928L28.1371 2.62166V9.61279Z" fill="#EF2A2D"/>
<path d="M32.678 -1.78218e-05L23.5963 -1.78218e-05C23.2599 -1.78218e-05 22.9866 0.182043 22.8395 0.436928L28.1371 2.62166L33.4348 0.436928C33.2877 0.182043 33.0144 -1.78218e-05 32.678 -1.78218e-05Z" fill="#F79496"/>
</svg>
