<svg viewBox="0 0 41 32" fill="none" xmlns="http://www.w3.org/2000/svg">
<path d="M29.0144 26.7783C29.4209 26.5751 29.8867 26.524 30.3275 26.6342L36.9989 28.302C38.1142 28.5809 39.1756 27.6869 39.0905 26.5405L31.8879 24.6707L30.4989 24.3101C30.246 24.2445 29.9844 24.2321 29.7301 24.2713C29.5435 24.3001 29.3609 24.3567 29.1885 24.4405L25.0246 26.4639L20.8606 28.4873C20.5859 28.6208 20.2871 28.6845 19.9894 28.6783C19.7159 28.6727 19.4434 28.6082 19.1913 28.4847L10.9418 24.445C10.6919 24.3227 10.4204 24.2575 10.1464 24.2515C9.97077 24.2476 9.79415 24.2681 9.62164 24.3133L0.956849 26.5855C0.873406 27.7098 1.9143 28.5864 3.00802 28.313L9.72318 26.6342C10.1641 26.524 10.6298 26.5751 11.0363 26.7783L19.174 30.8472C19.7099 31.1151 20.3408 31.1151 20.8767 30.8472L29.0144 26.7783Z" fill="#FBDFBF"/>
<path d="M31.8879 24.6707L39.0905 26.5405L38.675 20.9413C34.6197 21.2666 33.189 22.1387 31.8879 24.6707Z" fill="#57C034"/>
<path d="M10.6072 1.02121L3.98162 2.85951C3.2075 3.07429 2.65153 3.7519 2.59207 4.55305L2.01158 12.3744C5.44046 12.1216 8.33626 12.0982 10.7992 12.3447L11.4226 0.97673C11.1532 0.93281 10.875 0.946881 10.6072 1.02121Z" fill="#77BFD6"/>
<path d="M0.956849 26.5855L9.62164 24.3133C9.79415 24.2681 9.97077 24.2476 10.1464 24.2515L10.7992 12.3447C8.33626 12.0982 5.44046 12.1216 2.01158 12.3744L0.956849 26.5855Z" fill="#4B9E2F"/>
<path fill-rule="evenodd" clip-rule="evenodd" d="M19.9895 16.0304C17.8229 13.9225 14.9155 12.7567 10.7992 12.3447L11.4226 0.97673C11.6372 1.01173 11.8462 1.08354 12.0399 1.19103L19.1016 5.1097C19.3781 5.26312 19.6832 5.34271 19.9894 5.34848L19.9895 16.0304ZM29.7301 24.2713C29.9844 24.2321 30.246 24.2445 30.4989 24.3101L31.8879 24.6707C33.189 22.1387 34.6197 21.2666 38.675 20.9413L38.1098 13.3263C34.0228 14.5488 31.2685 14.4787 29.143 12.6265L29.7301 24.2713Z" fill="#85E2FF"/>
<path d="M25.0246 26.4639L29.1885 24.4405C29.3609 24.3567 29.5435 24.3001 29.7301 24.2713L29.143 12.6265C27.2578 10.9836 25.8672 7.93882 24.48 3.15036L20.9491 5.1097C20.651 5.27511 20.3196 5.3547 19.9894 5.34848L19.9895 16.0304C22.341 18.3182 23.8199 21.7157 25.0246 26.4639Z" fill="#77BFD6"/>
<path fill-rule="evenodd" clip-rule="evenodd" d="M10.1464 24.2515L10.7992 12.3447C14.9155 12.7567 17.8229 13.9225 19.9895 16.0304L19.9894 28.6783C19.7159 28.6727 19.4434 28.6082 19.1913 28.4847L10.9418 24.445C10.6919 24.3227 10.4204 24.2575 10.1464 24.2515Z" fill="#57C034"/>
<path d="M20.8606 28.4873L25.0246 26.4639C23.8199 21.7157 22.341 18.3182 19.9895 16.0304L19.9894 28.6783C20.2871 28.6845 20.5859 28.6208 20.8606 28.4873Z" fill="#4B9E2F"/>
<path fill-rule="evenodd" clip-rule="evenodd" d="M29.4436 1.02121L36.0691 2.85951C36.8432 3.07429 37.3992 3.7519 37.4587 4.55305L38.1098 13.3263C34.0228 14.5488 31.2685 14.4787 29.143 12.6265L28.5563 0.989861C28.8478 0.93078 29.1518 0.940253 29.4436 1.02121Z" fill="#57C034"/>
<path d="M28.0109 1.19103L24.48 3.15036C25.8672 7.93882 27.2578 10.9836 29.143 12.6265L28.5563 0.989861C28.367 1.02825 28.1829 1.09557 28.0109 1.19103Z" fill="#4B9E2F"/>
<path fill-rule="evenodd" clip-rule="evenodd" d="M0.956671 26.5854L2.59189 4.55303C2.65135 3.75187 3.20732 3.07427 3.98144 2.85948L10.607 1.02118C11.0883 0.887629 11.6029 0.94862 12.0397 1.191L19.1015 5.10967C19.676 5.4285 20.3744 5.4285 20.9489 5.10967L28.0107 1.191C28.4475 0.94862 28.962 0.887629 29.4434 1.02118L36.0689 2.85948C36.843 3.07427 37.399 3.75187 37.4585 4.55303L39.0904 26.5405C39.1754 27.6869 38.114 28.5808 36.9988 28.302L30.3274 26.6342C29.8865 26.5239 29.4207 26.5751 29.0143 26.7783L20.8766 30.8471C20.3406 31.1151 19.7098 31.1151 19.1738 30.8471L11.0361 26.7783C10.6296 26.5751 10.1639 26.5239 9.723 26.6342L3.00784 28.3129C1.91412 28.5864 0.873228 27.7097 0.956671 26.5854ZM3.72695 1.94226L10.3525 0.103957C11.0745 -0.0963749 11.8464 -0.00488757 12.5015 0.358686L19.5633 4.27736C19.8506 4.43677 20.1998 4.43677 20.487 4.27736L27.5488 0.358686C28.204 -0.00488837 28.9759 -0.0963742 29.6979 0.103958L36.3234 1.94226C37.4846 2.26443 38.3186 3.28084 38.4077 4.48257L40.0396 26.47C40.1727 28.2633 38.5124 29.6616 36.7679 29.2255L30.0965 27.5576C29.8761 27.5025 29.6432 27.5281 29.4399 27.6297L21.3023 31.6985C20.4983 32.1005 19.552 32.1005 18.7481 31.6985L10.6104 27.6297C10.4072 27.5281 10.1743 27.5025 9.95387 27.5576L3.2387 29.2364C1.51572 29.6672 -0.124047 28.2861 0.00740551 26.515L1.64262 4.48258C1.73182 3.28084 2.56578 2.26443 3.72695 1.94226Z" fill="#333847"/>
</svg>
