<svg viewBox="0 0 22 32" fill="none" xmlns="http://www.w3.org/2000/svg">
<path d="M18 0H4V0.5H18V0Z" fill="#333847"/>
<path fill-rule="evenodd" clip-rule="evenodd" d="M18 0.5V6.5H4V0.5H18Z" fill="#BCCEF8"/>
<path d="M4 7H18V6.5H4V7Z" fill="#333847"/>
<path d="M0.246446 5.33977L4.44447 15L10 13.6364L4.00003 0L0.397164 4.29887C0.153787 4.58927 0.0954332 4.99227 0.246446 5.33977Z" fill="#7D9DEE"/>
<path fill-rule="evenodd" clip-rule="evenodd" d="M0.397164 4.29887C0.153787 4.58927 0.0954332 4.99227 0.246446 5.33977L4.44447 15L10 13.6364L4.00003 0L0.397164 4.29887ZM3.86642 0.937834L0.780376 4.62004C0.658687 4.76524 0.629511 4.96674 0.705017 5.14049L4.73493 14.4139L9.30256 13.2927L3.86642 0.937834Z" fill="#333847"/>
<path d="M21.7536 5.33977L17.5555 15L12 13.6364L18 0L21.6028 4.29887C21.8462 4.58927 21.9046 4.99227 21.7536 5.33977Z" fill="#7D9DEE"/>
<path fill-rule="evenodd" clip-rule="evenodd" d="M21.6028 4.29887C21.8462 4.58927 21.9046 4.99227 21.7536 5.33977L17.5555 15L12 13.6364L18 0L21.6028 4.29887ZM18.1336 0.937834L21.2196 4.62004C21.3413 4.76524 21.3705 4.96674 21.295 5.14049L17.2651 14.4139L12.6974 13.2927L18.1336 0.937834Z" fill="#333847"/>
<path d="M21 22C21 27.5228 16.5228 32 11 32C5.47715 32 1 27.5228 1 22C1 16.4772 5.47715 12 11 12C16.5228 12 21 16.4772 21 22Z" fill="#F7E172"/>
<mask id="mask0_1633_9265" style="mask-type:alpha" maskUnits="userSpaceOnUse" x="1" y="12" width="20" height="20">
<path d="M21 22C21 27.5228 16.5228 32 11 32C5.47715 32 1 27.5228 1 22C1 16.4772 5.47715 12 11 12C16.5228 12 21 16.4772 21 22Z" fill="#F9E99A"/>
</mask>
<g mask="url(#mask0_1633_9265)">
<path d="M0 19.7209L10.2439 8L11.5 19.7209L10.2439 22L0 19.7209Z" fill="white" fill-opacity="0.7"/>
<path d="M21.6354 23.9228L10.1153 21.7926L14.5499 31.4341L16.0232 30.8602L21.6354 23.9228Z" fill="black" fill-opacity="0.3"/>
</g>
<path fill-rule="evenodd" clip-rule="evenodd" d="M11 31.5C16.2467 31.5 20.5 27.2467 20.5 22C20.5 16.7533 16.2467 12.5 11 12.5C5.75329 12.5 1.5 16.7533 1.5 22C1.5 27.2467 5.75329 31.5 11 31.5ZM11 32C16.5228 32 21 27.5228 21 22C21 16.4772 16.5228 12 11 12C5.47715 12 1 16.4772 1 22C1 27.5228 5.47715 32 11 32Z" fill="#333847"/>
<path d="M18 22C18 25.866 14.866 29 11 29C7.13401 29 4 25.866 4 22C4 18.134 7.13401 15 11 15C14.866 15 18 18.134 18 22Z" fill="#F5D83A"/>
<path fill-rule="evenodd" clip-rule="evenodd" d="M11 28.5C14.5899 28.5 17.5 25.5899 17.5 22C17.5 18.4101 14.5899 15.5 11 15.5C7.41015 15.5 4.5 18.4101 4.5 22C4.5 25.5899 7.41015 28.5 11 28.5ZM11 29C14.866 29 18 25.866 18 22C18 18.134 14.866 15 11 15C7.13401 15 4 18.134 4 22C4 25.866 7.13401 29 11 29Z" fill="#333847"/>
<path d="M10.5643 17.7728C10.7556 17.4335 11.2442 17.4335 11.4355 17.7728L12.4746 19.6163C12.5459 19.7429 12.6688 19.8322 12.8112 19.8609L14.8856 20.2795C15.2674 20.3565 15.4184 20.8212 15.1548 21.108L13.7226 22.6659C13.6243 22.7729 13.5773 22.9173 13.594 23.0617L13.837 25.1639C13.8817 25.5508 13.4864 25.838 13.1322 25.6759L11.208 24.7952C11.0759 24.7348 10.924 24.7348 10.7918 24.7952L8.8676 25.6759C8.51342 25.838 8.1181 25.5508 8.16282 25.1639L8.40578 23.0617C8.42246 22.9173 8.37552 22.7729 8.27718 22.6659L6.84499 21.108C6.58137 20.8212 6.73237 20.3565 7.11419 20.2795L9.18857 19.8609C9.33101 19.8322 9.4539 19.7429 9.52525 19.6163L10.5643 17.7728Z" fill="#FBF1BD"/>
<path fill-rule="evenodd" clip-rule="evenodd" d="M12.1261 19.8127L11.087 17.9692C11.0488 17.9013 10.951 17.9013 10.9128 17.9692L9.87371 19.8127C9.74528 20.0406 9.52407 20.2013 9.26768 20.253L7.1933 20.6716C7.11694 20.687 7.08674 20.7799 7.13946 20.8373L8.57165 22.3952C8.74867 22.5877 8.83316 22.8478 8.80313 23.1076L8.56018 25.2098C8.55124 25.2872 8.6303 25.3446 8.70113 25.3122L10.6254 24.4315C10.8632 24.3227 11.1366 24.3227 11.3745 24.4315L13.2987 25.3122C13.3695 25.3446 13.4486 25.2872 13.4396 25.2098L13.1967 23.1076C13.1666 22.8478 13.2511 22.5877 13.4282 22.3952L14.8603 20.8373C14.9131 20.7799 14.8829 20.687 14.8065 20.6716L12.7321 20.253C12.4757 20.2013 12.2545 20.0406 12.1261 19.8127ZM11.4355 17.7728C11.2442 17.4335 10.7556 17.4335 10.5643 17.7728L9.52525 19.6163C9.4539 19.7429 9.33101 19.8322 9.18857 19.8609L7.11419 20.2795C6.73237 20.3565 6.58137 20.8212 6.84499 21.108L8.27718 22.6659C8.37552 22.7729 8.42246 22.9173 8.40578 23.0617L8.16282 25.1639C8.1181 25.5508 8.51342 25.838 8.8676 25.6759L10.7918 24.7952C10.924 24.7348 11.0759 24.7348 11.208 24.7952L13.1322 25.6759C13.4864 25.838 13.8817 25.5508 13.837 25.1639L13.594 23.0617C13.5773 22.9173 13.6243 22.7729 13.7226 22.6659L15.1548 21.108C15.4184 20.8212 15.2674 20.3565 14.8856 20.2795L12.8112 19.8609C12.6688 19.8322 12.5459 19.7429 12.4746 19.6163L11.4355 17.7728Z" fill="#333847"/>
</svg>
