<svg viewBox="0 0 43 34" fill="none" xmlns="http://www.w3.org/2000/svg">
<path fill-rule="evenodd" clip-rule="evenodd" d="M13.872 33V12.9494H1.16163L2.42352 32.0659C2.45821 32.5914 2.89463 33 3.42134 33H13.872Z" fill="#9AC2DD"/>
<path d="M13.872 10.5H3.13632C1.97991 10.5 1.06449 11.4778 1.14066 12.6317L1.16163 12.9494H13.872V10.5Z" fill="#333847"/>
<path fill-rule="evenodd" clip-rule="evenodd" d="M1.14071 12.6317C1.06454 11.4778 1.97995 10.5 3.13636 10.5H13.872V33H3.42139C2.89467 33 2.45825 32.5914 2.42356 32.0659L1.14071 12.6317ZM14.872 9.5V34H3.42139C2.36796 34 1.49512 33.1829 1.42573 32.1317L0.142878 12.6976C0.0286242 10.9668 1.40175 9.5 3.13636 9.5H14.872Z" fill="#333847"/>
<mask id="mask0_847_10824" style="mask-type:alpha" maskUnits="userSpaceOnUse" x="1" y="13" width="13" height="20">
<path d="M1.1639 15.6519C1.07547 14.4908 1.9937 13.5 3.15812 13.5H13.872V33H2.48523L1.1639 15.6519Z" fill="url(#paint0_linear_847_10824)"/>
</mask>
<g mask="url(#mask0_847_10824)">
<path d="M32.9324 7.5C19.8129 13.75 -6.9213 26.35 -8.90161 26.75L-6.42622 39.75L37.3881 20.25C35.9029 19.9167 32.9324 19.15 32.9324 18.75V7.5Z" fill="white" fill-opacity="0.5"/>
</g>
<path d="M5.28015 18.4468C5.28015 18.1908 5.37215 17.9788 5.55615 17.8108C5.74015 17.6348 5.99215 17.5028 6.31215 17.4148C6.63215 17.3268 7.00415 17.2828 7.42815 17.2828C8.03615 17.2828 8.54415 17.3788 8.95215 17.5708C9.36815 17.7548 9.68015 18.0148 9.88815 18.3508C10.1042 18.6788 10.2122 19.0548 10.2122 19.4788C10.2122 19.9028 10.0922 20.3188 9.85215 20.7268C9.61215 21.1268 9.24015 21.5348 8.73615 21.9508L7.09215 23.3308H10.1162C10.1562 23.4028 10.1962 23.5028 10.2362 23.6308C10.2762 23.7508 10.2962 23.8828 10.2962 24.0268C10.2962 24.2828 10.2402 24.4668 10.1282 24.5788C10.0162 24.6908 9.86415 24.7468 9.67215 24.7468H5.49615C5.33615 24.6428 5.21215 24.5068 5.12415 24.3388C5.04415 24.1708 5.00415 23.9788 5.00415 23.7628C5.00415 23.5148 5.05215 23.3068 5.14815 23.1388C5.25215 22.9708 5.36415 22.8348 5.48415 22.7308L7.24815 21.1708C7.68015 20.7948 7.97615 20.4908 8.13615 20.2588C8.29615 20.0188 8.37615 19.7908 8.37615 19.5748C8.37615 19.3188 8.27615 19.1148 8.07615 18.9628C7.88415 18.8108 7.60815 18.7348 7.24815 18.7348C6.92015 18.7348 6.62415 18.7868 6.36015 18.8908C6.10415 18.9948 5.89215 19.1068 5.72415 19.2268C5.60415 19.1388 5.50015 19.0308 5.41215 18.9028C5.32415 18.7748 5.28015 18.6228 5.28015 18.4468Z" fill="white"/>
<path fill-rule="evenodd" clip-rule="evenodd" d="M5.29771 18.6298C5.31809 18.7305 5.35624 18.8215 5.41215 18.9028C5.50015 19.0308 5.60415 19.1388 5.72415 19.2268C5.89215 19.1068 6.10415 18.9948 6.36015 18.8908C6.62415 18.7868 6.92015 18.7348 7.24815 18.7348C7.60815 18.7348 7.88415 18.8108 8.07615 18.9628C8.27615 19.1148 8.37615 19.3188 8.37615 19.5748C8.37615 19.7908 8.29615 20.0188 8.13615 20.2588C7.97615 20.4908 7.68015 20.7948 7.24815 21.1708L5.48415 22.7308C5.36415 22.8348 5.25215 22.9708 5.14815 23.1388C5.05215 23.3068 5.00415 23.5148 5.00415 23.7628C5.00415 23.7679 5.00417 23.7729 5.00422 23.7779C5.006 23.9844 5.04473 24.1687 5.12038 24.3308C5.12163 24.3335 5.12288 24.3362 5.12415 24.3388C5.21215 24.5068 5.33615 24.6428 5.49615 24.7468H9.67215C9.86415 24.7468 10.0162 24.6908 10.1282 24.5788C10.2402 24.4668 10.2962 24.2828 10.2962 24.0268C10.2962 23.8828 10.2762 23.7508 10.2362 23.6308C10.1962 23.5028 10.1562 23.4028 10.1162 23.3308H7.09215L8.73615 21.9508C9.24015 21.5348 9.61215 21.1268 9.85215 20.7268C10.0922 20.3188 10.2122 19.9028 10.2122 19.4788C10.2122 19.0548 10.1042 18.6788 9.88815 18.3508C9.68015 18.0148 9.36815 17.7548 8.95215 17.5708C8.54415 17.3788 8.03615 17.2828 7.42815 17.2828C7.00415 17.2828 6.63215 17.3268 6.31215 17.4148C5.99215 17.5028 5.74015 17.6348 5.55615 17.8108C5.40473 17.9491 5.31561 18.1172 5.2888 18.315C5.28303 18.3576 5.28015 18.4015 5.28015 18.4468C5.28015 18.511 5.286 18.572 5.29771 18.6298ZM4.8731 17.0804C5.20633 16.7649 5.61766 16.5687 6.04699 16.4506C6.47342 16.3334 6.93804 16.2828 7.42815 16.2828C8.13037 16.2828 8.79065 16.3921 9.36725 16.661C9.92991 16.912 10.4038 17.2898 10.731 17.8125C11.0579 18.314 11.2122 18.8803 11.2122 19.4788C11.2122 20.1013 11.0337 20.6905 10.7141 21.2339L10.7097 21.2414C10.4808 21.6229 10.1766 21.9851 9.81455 22.3308H10.7046L10.9903 22.8452C11.0759 22.9993 11.1391 23.1687 11.1881 23.3245C11.2641 23.5563 11.2962 23.7933 11.2962 24.0268C11.2962 24.3914 11.2222 24.899 10.8353 25.2859C10.4972 25.6241 10.0693 25.7468 9.67215 25.7468H5.19971L4.95116 25.5853C4.64824 25.3884 4.40645 25.1238 4.23832 24.8028L4.22948 24.786L4.22129 24.7688C4.06782 24.4465 4.00415 24.1038 4.00415 23.7628C4.00415 23.3888 4.07652 22.9986 4.27991 22.6427L4.28863 22.6274L4.29789 22.6125C4.44166 22.3802 4.61458 22.1621 4.82495 21.9789L6.59161 20.4165C6.96595 20.0907 7.17849 19.8674 7.28059 19.7352C7.27023 19.735 7.25942 19.7348 7.24815 19.7348C7.02877 19.7348 6.861 19.769 6.73105 19.8195C6.52783 19.9025 6.39171 19.9789 6.30539 20.0406L5.71644 20.4613L5.13279 20.0332C4.9184 19.876 4.73685 19.6857 4.58811 19.4694C4.37066 19.1531 4.28015 18.7972 4.28015 18.4468C4.28015 17.9225 4.48099 17.4428 4.8731 17.0804ZM7.37687 19.562C7.37697 19.5613 7.37704 19.5609 7.37705 19.5609L7.37687 19.562Z" fill="#333847"/>
<path fill-rule="evenodd" clip-rule="evenodd" d="M29.2195 19.0253V33H39.6385C40.178 33 40.6203 32.572 40.638 32.0328L41.0377 19.8354L29.2195 19.0253Z" fill="url(#paint1_linear_847_10824)"/>
<path d="M41.0595 18.8478C41.083 17.789 40.2771 16.8955 39.2215 16.81L29.2195 16V19.0253L41.0377 19.8354L41.0595 18.8478Z" fill="#333847"/>
<path fill-rule="evenodd" clip-rule="evenodd" d="M29.2195 33H39.6385C40.178 33 40.6203 32.572 40.638 32.0328L41.0377 19.8355L41.0595 18.8478C41.083 17.7891 40.2771 16.8955 39.2215 16.8101L29.2195 16V33ZM28.2195 14.9158L39.3022 15.8133C40.8856 15.9415 42.0945 17.2818 42.0593 18.87L42.0372 19.8682L41.6374 32.0655C41.6021 33.144 40.7176 34 39.6385 34H28.2195V14.9158Z" fill="#333847"/>
<mask id="mask1_847_10824" style="mask-type:alpha" maskUnits="userSpaceOnUse" x="29" y="19" width="13" height="14">
<path d="M29.2195 19.75L39.1516 20.3769C40.2357 20.4454 41.067 21.3667 41.024 22.4521L40.6063 33H29.2195V19.75Z" fill="url(#paint2_linear_847_10824)"/>
</mask>
<g mask="url(#mask1_847_10824)">
<path d="M23.2786 41.5L53.4783 26.5L46.2997 21L23.2786 32V41.5Z" fill="white" fill-opacity="0.5"/>
</g>
<path d="M13.8719 33H29.2193L30.0967 4.64557H13.2139L13.8719 33Z" fill="url(#paint3_linear_847_10824)"/>
<path d="M30.1457 3.06185C30.1806 1.93359 29.2755 1 28.1467 1H15.1763C14.0535 1 13.1508 1.92397 13.1768 3.0464L13.2139 4.64557H30.0967L30.1457 3.06185Z" fill="#333847"/>
<path fill-rule="evenodd" clip-rule="evenodd" d="M13.1768 3.0464C13.1508 1.92397 14.0536 1 15.1763 1H28.1467C29.2755 1 30.1806 1.93359 30.1457 3.06185L29.2193 33H13.872L13.1768 3.0464ZM30.1889 34H12.8949L12.1771 3.0696C12.138 1.38595 13.4922 0 15.1763 0H28.1467C29.8399 0 31.1976 1.40038 31.1452 3.09278L30.1889 34Z" fill="#333847"/>
<mask id="mask2_847_10824" style="mask-type:alpha" maskUnits="userSpaceOnUse" x="13" y="1" width="18" height="32">
<path d="M13.1769 3.0464C13.1508 1.92397 14.0536 1 15.1763 1H28.1467C29.2755 1 30.1807 1.93359 30.1458 3.06186L29.2194 33H13.872L13.1769 3.0464Z" fill="url(#paint4_linear_847_10824)"/>
</mask>
<g mask="url(#mask2_847_10824)">
<path d="M37.6358 1.81018C22.9485 7.89351 -6.47564 20.1602 -6.67367 20.5602L-13.8523 36.8102L37.6358 17.0602V1.81018Z" fill="white" fill-opacity="0.5"/>
</g>
<path d="M23.6718 15.886H21.5578V11.504L20.0738 12.022C19.9338 11.938 19.7985 11.8213 19.6678 11.672C19.5465 11.5227 19.4858 11.3127 19.4858 11.042C19.4858 10.5473 19.7892 10.1973 20.3958 9.99201L22.0478 9.39001H22.5098C22.8645 9.39001 23.1445 9.49268 23.3498 9.69801C23.5645 9.90335 23.6718 10.1833 23.6718 10.538V15.886ZM21.5578 14.304H23.6718V17.986C23.5785 18.014 23.4432 18.042 23.2658 18.07C23.0978 18.098 22.9158 18.112 22.7198 18.112C22.3185 18.112 22.0245 18.042 21.8378 17.902C21.6512 17.7527 21.5578 17.4913 21.5578 17.118V14.304Z" fill="white"/>
<path fill-rule="evenodd" clip-rule="evenodd" d="M23.6718 10.538C23.6718 10.1833 23.5645 9.90335 23.3498 9.69801C23.1445 9.49268 22.8645 9.39001 22.5098 9.39001H22.0478L20.3958 9.99201C19.7892 10.1973 19.4858 10.5473 19.4858 11.042C19.4858 11.3127 19.5465 11.5227 19.6678 11.672C19.7985 11.8213 19.9338 11.938 20.0738 12.022L21.5578 11.504V17.118C21.5578 17.4913 21.6512 17.7527 21.8378 17.902C22.0245 18.042 22.3185 18.112 22.7198 18.112C22.9158 18.112 23.0978 18.098 23.2658 18.07C23.4432 18.042 23.5785 18.014 23.6718 17.986V10.538ZM23.4258 19.0572C23.1974 19.0949 22.9613 19.112 22.7198 19.112C22.242 19.112 21.6834 19.0362 21.2378 18.702L21.2253 18.6926L21.2131 18.6829C20.6814 18.2575 20.5578 17.6231 20.5578 17.118V12.9122L19.9611 13.1205L19.5593 12.8795C19.3133 12.7319 19.1002 12.5419 18.9153 12.3305L18.9032 12.3168L18.8917 12.3026C18.5766 11.9148 18.4858 11.4505 18.4858 11.042C18.4858 10.5718 18.6372 10.1234 18.9577 9.75358C19.2591 9.40572 19.6574 9.18783 20.0634 9.04883L21.8713 8.39001H22.5098C23.0639 8.39001 23.6173 8.55601 24.049 8.98305C24.4929 9.41219 24.6718 9.97096 24.6718 10.538V18.73L23.9592 18.9438C23.8021 18.991 23.6158 19.0271 23.4258 19.0572Z" fill="#333847"/>
<path d="M34.9001 22.1316C35.7721 22.1316 36.4481 22.3196 36.9281 22.6956C37.4161 23.0636 37.6601 23.5676 37.6601 24.2076C37.6601 24.4796 37.6081 24.7236 37.5041 24.9396C37.4001 25.1476 37.2681 25.3236 37.1081 25.4676C36.9481 25.6116 36.7761 25.7236 36.5921 25.8036C36.8161 25.8756 37.0201 25.9876 37.2041 26.1396C37.3961 26.2916 37.5481 26.4876 37.6601 26.7276C37.7801 26.9596 37.8401 27.2476 37.8401 27.5916C37.8401 28.0476 37.7161 28.4436 37.4681 28.7796C37.2201 29.1076 36.8761 29.3596 36.4361 29.5356C35.9961 29.7036 35.4921 29.7876 34.9241 29.7876C34.3961 29.7876 33.9481 29.7356 33.5801 29.6316C33.2201 29.5356 32.9441 29.3996 32.7521 29.2236C32.5601 29.0396 32.4641 28.8356 32.4641 28.6116C32.4641 28.4196 32.5081 28.2516 32.5961 28.1076C32.6921 27.9636 32.8121 27.8556 32.9561 27.7836C33.1241 27.8956 33.3441 28.0156 33.6161 28.1436C33.8961 28.2716 34.2561 28.3356 34.6961 28.3356C35.1201 28.3356 35.4441 28.2556 35.6681 28.0956C35.9001 27.9276 36.0161 27.7076 36.0161 27.4356C36.0161 27.1636 35.9201 26.9556 35.7281 26.8116C35.5441 26.6596 35.2401 26.5836 34.8161 26.5836H33.7241C33.6681 26.5036 33.6201 26.4076 33.5801 26.2956C33.5481 26.1756 33.5321 26.0396 33.5321 25.8876C33.5321 25.7196 33.5481 25.5756 33.5801 25.4556C33.6201 25.3356 33.6681 25.2396 33.7241 25.1676H34.8041C35.1641 25.1676 35.4241 25.0996 35.5841 24.9636C35.7521 24.8276 35.8361 24.6356 35.8361 24.3876C35.8361 24.1396 35.7321 23.9436 35.5241 23.7996C35.3161 23.6556 35.0161 23.5836 34.6241 23.5836C34.2881 23.5836 33.9881 23.6276 33.7241 23.7156C33.4681 23.7956 33.2561 23.8956 33.0881 24.0156C32.9681 23.9276 32.8641 23.8196 32.7761 23.6916C32.6961 23.5636 32.6561 23.4116 32.6561 23.2356C32.6561 22.9956 32.7481 22.7956 32.9321 22.6356C33.1161 22.4756 33.3761 22.3516 33.7121 22.2636C34.0561 22.1756 34.4521 22.1316 34.9001 22.1316Z" fill="white"/>
<path fill-rule="evenodd" clip-rule="evenodd" d="M35.5841 24.9636C35.7521 24.8276 35.8361 24.6356 35.8361 24.3876C35.8361 24.1396 35.7321 23.9436 35.5241 23.7996C35.3161 23.6556 35.0161 23.5836 34.6241 23.5836C34.2881 23.5836 33.9881 23.6276 33.7241 23.7156C33.4681 23.7956 33.2561 23.8956 33.0881 24.0156C32.9681 23.9276 32.8641 23.8196 32.7761 23.6916C32.7287 23.6157 32.6953 23.5314 32.676 23.4386C32.6627 23.3749 32.6561 23.3073 32.6561 23.2356C32.6561 23.1875 32.6598 23.141 32.6672 23.0961C32.6967 22.917 32.785 22.7635 32.9321 22.6356C33.1161 22.4756 33.3761 22.3516 33.7121 22.2636C34.0561 22.1756 34.4521 22.1316 34.9001 22.1316C35.7721 22.1316 36.4481 22.3196 36.9281 22.6956C37.4161 23.0636 37.6601 23.5676 37.6601 24.2076C37.6601 24.4796 37.6081 24.7236 37.5041 24.9396C37.4794 24.989 37.4532 25.0365 37.4253 25.0823C37.3359 25.2293 37.2301 25.3578 37.1081 25.4676C36.9481 25.6116 36.7761 25.7236 36.5921 25.8036C36.8161 25.8756 37.0201 25.9876 37.2041 26.1396C37.3125 26.2254 37.4082 26.3253 37.4911 26.4392C37.555 26.527 37.6114 26.6231 37.6601 26.7276C37.7801 26.9596 37.8401 27.2476 37.8401 27.5916C37.8401 28.0476 37.7161 28.4436 37.4681 28.7796C37.2201 29.1076 36.8761 29.3596 36.4361 29.5356C35.9961 29.7036 35.4921 29.7876 34.9241 29.7876C34.3961 29.7876 33.9481 29.7356 33.5801 29.6316C33.2201 29.5356 32.9441 29.3996 32.7521 29.2236C32.5733 29.0522 32.4777 28.8635 32.4655 28.6574C32.4646 28.6423 32.4641 28.627 32.4641 28.6116C32.4641 28.579 32.4654 28.5471 32.4679 28.5159C32.4803 28.3632 32.5231 28.2271 32.5961 28.1076C32.6921 27.9636 32.8121 27.8556 32.9561 27.7836C33.1241 27.8956 33.3441 28.0156 33.6161 28.1436C33.8961 28.2716 34.2561 28.3356 34.6961 28.3356C35.1201 28.3356 35.4441 28.2556 35.6681 28.0956C35.9001 27.9276 36.0161 27.7076 36.0161 27.4356C36.0161 27.1636 35.9201 26.9556 35.7281 26.8116C35.5441 26.6596 35.2401 26.5836 34.8161 26.5836H33.7241C33.6681 26.5036 33.6201 26.4076 33.5801 26.2956C33.5481 26.1756 33.5321 26.0396 33.5321 25.8876C33.5321 25.7196 33.5481 25.5756 33.5801 25.4556C33.6201 25.3356 33.6681 25.2396 33.7241 25.1676H34.8041C35.1641 25.1676 35.4241 25.0996 35.5841 24.9636ZM32.702 26.7926C32.6786 26.7392 32.6575 26.6855 32.6384 26.6319L32.6245 26.5931L32.6139 26.5533C32.5551 26.3329 32.5321 26.1079 32.5321 25.8876C32.5321 25.661 32.5532 25.4256 32.6139 25.1979L32.6218 25.1684L32.6314 25.1394C32.65 25.0836 32.6713 25.0261 32.6958 24.968L32.4967 24.822C32.2824 24.6648 32.1008 24.4745 31.9521 24.2581L31.9397 24.2401L31.9281 24.2216C31.7332 23.9098 31.6561 23.5674 31.6561 23.2356C31.6561 22.7009 31.8775 22.2274 32.2759 21.881C32.6146 21.5865 33.0328 21.4078 33.4588 21.2962L33.4643 21.2948L33.4643 21.2948C33.9071 21.1815 34.3892 21.1316 34.9001 21.1316C35.8987 21.1316 36.8208 21.3447 37.5375 21.9027C38.2847 22.4695 38.6601 23.2741 38.6601 24.2076C38.6601 24.6095 38.5825 25.0049 38.4051 25.3734L38.4019 25.3801L38.3985 25.3868C38.34 25.5039 38.2743 25.6165 38.2012 25.7239C38.343 25.8952 38.4616 26.0841 38.5579 26.287C38.7637 26.6938 38.8401 27.1434 38.8401 27.5916C38.8401 28.2406 38.6594 28.8495 38.2727 29.3734L38.2658 29.3827L38.2658 29.3827C37.8921 29.8769 37.3903 30.2309 36.8075 30.4641L36.8002 30.467L36.7928 30.4698C36.2181 30.6892 35.5896 30.7876 34.9241 30.7876C34.3393 30.7876 33.7965 30.7309 33.3154 30.5959C32.8648 30.475 32.4255 30.2807 32.0764 29.9607L32.0682 29.9533L32.0602 29.9456C31.7112 29.6111 31.4641 29.1588 31.4641 28.6116C31.4641 28.2615 31.5462 27.9079 31.7428 27.5861L31.7531 27.5693L31.7641 27.5529C31.9491 27.2753 32.1976 27.0448 32.5089 26.8892L32.702 26.7926ZM35.1458 27.6185C35.1466 27.6188 35.1469 27.6189 35.1469 27.6189L35.1458 27.6185Z" fill="#333847"/>
<defs>
<linearGradient id="paint0_linear_847_10824" x1="7.43601" y1="13.5" x2="7.43601" y2="33" gradientUnits="userSpaceOnUse">
<stop stop-color="#9AC2DD"/>
<stop offset="1" stop-color="#83AAC4"/>
</linearGradient>
<linearGradient id="paint1_linear_847_10824" x1="35.1604" y1="16" x2="35.1604" y2="33" gradientUnits="userSpaceOnUse">
<stop stop-color="#CA7E69"/>
<stop offset="1" stop-color="#B06F5D"/>
</linearGradient>
<linearGradient id="paint2_linear_847_10824" x1="35.1604" y1="19.75" x2="35.1604" y2="33" gradientUnits="userSpaceOnUse">
<stop stop-color="#CA7E69"/>
<stop offset="1" stop-color="#B06F5D"/>
</linearGradient>
<linearGradient id="paint3_linear_847_10824" x1="21.6694" y1="1" x2="21.6694" y2="33" gradientUnits="userSpaceOnUse">
<stop stop-color="#FFE15C"/>
<stop offset="0.53" stop-color="#EACE51"/>
</linearGradient>
<linearGradient id="paint4_linear_847_10824" x1="21.6695" y1="1" x2="21.6695" y2="33" gradientUnits="userSpaceOnUse">
<stop stop-color="#FFE15C"/>
<stop offset="0.53" stop-color="#EACE51"/>
</linearGradient>
</defs>
</svg>
