<svg viewBox="0 0 34 34" fill="none" xmlns="http://www.w3.org/2000/svg">
<path d="M12.1785 3.03244C12.1785 1.90995 13.0884 1 14.2109 1H33.5191V30.017H14.2109C13.0884 30.017 12.1785 29.107 12.1785 27.9845V3.03244Z" fill="#AA7569"/>
<path fill-rule="evenodd" clip-rule="evenodd" d="M32.5029 2.01622H14.2109C13.6497 2.01622 13.1947 2.4712 13.1947 3.03244V27.9845C13.1947 28.5458 13.6497 29.0007 14.2109 29.0007H32.5029V2.01622ZM14.2109 1C13.0884 1 12.1785 1.90995 12.1785 3.03244V27.9845C12.1785 29.107 13.0884 30.017 14.2109 30.017H33.5191V1H14.2109Z" fill="#333847"/>
<path d="M19.1104 18.1892V16.0672C19.1104 15.5909 18.7333 15.2123 18.2706 15.1865L8.6424 14.6493C8.4862 14.6406 8.37938 14.5169 8.37938 14.3854V11.7658C8.37938 10.9717 7.43079 10.6067 6.87821 11.125L1.16808 16.4809C0.790924 16.8346 0.798267 17.4318 1.18322 17.7764L6.89336 22.8889C7.45085 23.388 8.37938 23.0182 8.37938 22.2342V19.871C8.37938 19.7395 8.4862 19.6159 8.6424 19.6071L18.2706 19.0699C18.7333 19.0441 19.1104 18.6655 19.1104 18.1892Z" fill="#333847" stroke="#333847"/>
<path d="M19.1104 17.1892V15.0672C19.1104 14.5909 18.7333 14.2123 18.2706 14.1865L8.6424 13.6493C8.4862 13.6406 8.37938 13.5169 8.37938 13.3854V10.7658C8.37938 9.97171 7.43079 9.60668 6.87821 10.125L1.16808 15.4809C0.790924 15.8346 0.798267 16.4318 1.18322 16.7764L6.89336 21.8889C7.45085 22.388 8.37938 22.0182 8.37938 21.2342V18.871C8.37938 18.7395 8.4862 18.6159 8.6424 18.6071L18.2706 18.0699C18.7333 18.0441 19.1104 17.6655 19.1104 17.1892Z" fill="#F26D5B" stroke="#333847"/>
<g filter="url(#filter0_d_1297_20272)">
<path d="M18.2756 6.1205C18.2756 5.17334 18.9299 4.35174 19.853 4.13966L33.5189 1V30.017L20.7632 32.9475C19.4901 33.24 18.2756 32.2729 18.2756 30.9667V6.1205Z" fill="#D9B3AF"/>
</g>
<g filter="url(#filter1_d_1297_20272)">
<path fill-rule="evenodd" clip-rule="evenodd" d="M32.5027 2.27616L20.0805 5.13008C19.619 5.23612 19.2919 5.64692 19.2919 6.1205V30.9667C19.2919 31.6198 19.8991 32.1033 20.5356 31.9571L32.5027 29.2077V2.27616ZM19.853 4.13966C18.9299 4.35174 18.2756 5.17334 18.2756 6.1205V30.9667C18.2756 32.2729 19.4901 33.24 20.7632 32.9475L33.5189 30.017V1L19.853 4.13966Z" fill="#333847"/>
</g>
<path d="M24.3731 17.5097C24.3731 18.3386 23.6907 19.0105 22.8488 19.0105C22.0069 19.0105 21.3245 18.3386 21.3245 17.5097C21.3245 16.6808 22.0069 16.0088 22.8488 16.0088C23.6907 16.0088 24.3731 16.6808 24.3731 17.5097Z" fill="#AA7569"/>
<path fill-rule="evenodd" clip-rule="evenodd" d="M22.8488 17.9943C23.1443 17.9943 23.3569 17.7625 23.3569 17.5097C23.3569 17.2568 23.1443 17.025 22.8488 17.025C22.5533 17.025 22.3407 17.2568 22.3407 17.5097C22.3407 17.7625 22.5533 17.9943 22.8488 17.9943ZM22.8488 19.0105C23.6907 19.0105 24.3731 18.3386 24.3731 17.5097C24.3731 16.6808 23.6907 16.0088 22.8488 16.0088C22.0069 16.0088 21.3245 16.6808 21.3245 17.5097C21.3245 18.3386 22.0069 19.0105 22.8488 19.0105Z" fill="#333847"/>
<defs>
<filter id="filter0_d_1297_20272" x="15.2756" y="0" width="18.2434" height="34" filterUnits="userSpaceOnUse" color-interpolation-filters="sRGB">
<feFlood flood-opacity="0" result="BackgroundImageFix"/>
<feColorMatrix in="SourceAlpha" type="matrix" values="0 0 0 0 0 0 0 0 0 0 0 0 0 0 0 0 0 0 127 0" result="hardAlpha"/>
<feOffset dx="-2"/>
<feGaussianBlur stdDeviation="0.5"/>
<feComposite in2="hardAlpha" operator="out"/>
<feColorMatrix type="matrix" values="0 0 0 0 0 0 0 0 0 0 0 0 0 0 0 0 0 0 0.25 0"/>
<feBlend mode="normal" in2="BackgroundImageFix" result="effect1_dropShadow_1297_20272"/>
<feBlend mode="normal" in="SourceGraphic" in2="effect1_dropShadow_1297_20272" result="shape"/>
</filter>
<filter id="filter1_d_1297_20272" x="15.2756" y="0" width="18.2434" height="34" filterUnits="userSpaceOnUse" color-interpolation-filters="sRGB">
<feFlood flood-opacity="0" result="BackgroundImageFix"/>
<feColorMatrix in="SourceAlpha" type="matrix" values="0 0 0 0 0 0 0 0 0 0 0 0 0 0 0 0 0 0 127 0" result="hardAlpha"/>
<feOffset dx="-2"/>
<feGaussianBlur stdDeviation="0.5"/>
<feComposite in2="hardAlpha" operator="out"/>
<feColorMatrix type="matrix" values="0 0 0 0 0 0 0 0 0 0 0 0 0 0 0 0 0 0 0.25 0"/>
<feBlend mode="normal" in2="BackgroundImageFix" result="effect1_dropShadow_1297_20272"/>
<feBlend mode="normal" in="SourceGraphic" in2="effect1_dropShadow_1297_20272" result="shape"/>
</filter>
</defs>
</svg>
