<svg viewBox="0 0 33 32" fill="none" xmlns="http://www.w3.org/2000/svg">
<path d="M29.7834 31.2151L0.784995 2.21661C0.145936 1.57756 0.598544 0.484863 1.50231 0.484863H15.9403C16.2043 0.484863 16.458 0.587802 16.6473 0.771812L31.2078 14.9221C31.4043 15.1131 31.5152 15.3755 31.5152 15.6496V30.4978C31.5152 31.4015 30.4225 31.8541 29.7834 31.2151Z" fill="#D4E1EB"/>
<path fill-rule="evenodd" clip-rule="evenodd" d="M1.50228 0.969667C1.03045 0.969667 0.794159 1.54012 1.12779 1.87376L30.1262 30.8722C30.4599 31.2058 31.0303 30.9696 31.0303 30.4977V15.6496C31.0303 15.5065 30.9724 15.3695 30.8698 15.2698L16.3094 1.11947C16.2105 1.02341 16.0781 0.969667 15.9403 0.969667H1.50228ZM0.442132 2.55941C-0.502356 1.61493 0.166569 0 1.50228 0H15.9403C16.3305 0 16.7053 0.152137 16.9852 0.424091L16.6473 0.771782L16.9852 0.424091L31.5456 14.5744C31.8361 14.8567 32 15.2445 32 15.6496V30.4977C32 31.8334 30.3851 32.5024 29.4406 31.5579L0.442132 2.55941Z" fill="black"/>
<path d="M28.0435 21.878C27.7613 21.5958 27.7613 21.1383 28.0435 20.8561C28.3257 20.5739 28.7832 20.5739 29.0654 20.8561C29.3476 21.1383 29.3476 21.5958 29.0654 21.878C28.7832 22.1602 28.3257 22.1602 28.0435 21.878Z" fill="black" fill-opacity="0.2"/>
<path d="M25.9998 23.922C25.7176 23.6398 25.7176 23.1822 25.9998 22.9C26.282 22.6178 26.7395 22.6178 27.0217 22.9C27.3039 23.1822 27.3039 23.6398 27.0217 23.922C26.7395 24.2042 26.282 24.2042 25.9998 23.922Z" fill="black" fill-opacity="0.2"/>
<path d="M23.4451 16.2573C23.1629 15.9751 23.1629 15.5176 23.4451 15.2354C23.7273 14.9532 24.1849 14.9532 24.4671 15.2354C24.7493 15.5176 24.7493 15.9751 24.4671 16.2573C24.1849 16.5395 23.7273 16.5395 23.4451 16.2573Z" fill="black" fill-opacity="0.2"/>
<path d="M22.4229 11.1476C22.1407 10.8654 22.1407 10.4078 22.4229 10.1256C22.7051 9.84342 23.1626 9.84342 23.4448 10.1256C23.727 10.4078 23.727 10.8654 23.4448 11.1476C23.1626 11.4298 22.7051 11.4298 22.4229 11.1476Z" fill="black" fill-opacity="0.2"/>
<path d="M28.5547 18.3011C28.2725 18.0189 28.2725 17.5614 28.5547 17.2792C28.8369 16.997 29.2945 16.997 29.5767 17.2792C29.8589 17.5614 29.8589 18.0189 29.5767 18.3011C29.2945 18.5833 28.8369 18.5833 28.5547 18.3011Z" fill="black" fill-opacity="0.2"/>
<path d="M25.2333 19.0677C24.81 18.6444 24.81 17.9581 25.2333 17.5348C25.6566 17.1115 26.343 17.1115 26.7663 17.5348C27.1896 17.9581 27.1896 18.6444 26.7663 19.0677C26.343 19.491 25.6566 19.491 25.2333 19.0677Z" fill="black" fill-opacity="0.2"/>
<path d="M24.7224 14.469C24.299 14.0457 24.299 13.3594 24.7224 12.9361C25.1457 12.5128 25.832 12.5128 26.2553 12.9361C26.6786 13.3594 26.6786 14.0457 26.2553 14.469C25.832 14.8923 25.1457 14.8923 24.7224 14.469Z" fill="black" fill-opacity="0.2"/>
<path fill-rule="evenodd" clip-rule="evenodd" d="M21.6265 19.9775C21.231 20.3744 20.5887 20.3755 20.1919 19.98L3.61384 3.46042C3.21698 3.06496 3.21584 2.42265 3.61131 2.02579C4.00677 1.62893 4.64907 1.6278 5.04593 2.02326L21.6239 18.5429C22.0208 18.9383 22.0219 19.5806 21.6265 19.9775Z" fill="white" fill-opacity="0.75"/>
</svg>
