<svg width="25" height="32" viewBox="0 0 25 32" fill="none" xmlns="http://www.w3.org/2000/svg">
<path d="M12.2855 20.4909C12.3537 20.24 12.2183 19.9787 11.974 19.8898L5.32114 17.4683C5.07672 17.3793 4.80491 17.4926 4.69604 17.7289L0.187207 27.5119C0.0316348 27.8495 0.285667 28.2327 0.657159 28.2209L5.02734 28.0823C5.15566 28.0782 5.28064 28.1236 5.37637 28.2092L8.64225 31.1277C8.91941 31.3754 9.36032 31.2448 9.45788 30.8861L12.2855 20.4909Z" fill="#8BC34A"/>
<mask id="mask0_1672_15139" style="mask-type:alpha" maskUnits="userSpaceOnUse" x="0" y="17" width="13" height="15">
<path d="M12.2855 20.4909C12.3537 20.24 12.2183 19.9787 11.974 19.8898L5.32114 17.4683C5.07672 17.3793 4.80491 17.4926 4.69604 17.7289L0.187207 27.5119C0.0316348 27.8495 0.285667 28.2327 0.657159 28.2209L5.02734 28.0823C5.15566 28.0782 5.28064 28.1236 5.37637 28.2092L8.64225 31.1277C8.91941 31.3754 9.36032 31.2448 9.45788 30.8861L12.2855 20.4909Z" fill="#8BC34A"/>
</mask>
<g mask="url(#mask0_1672_15139)">
<path d="M11.5 21.5L8.5 19L5.5 27.5L9 30.5L11.5 21.5Z" fill="black" fill-opacity="0.2"/>
</g>
<path fill-rule="evenodd" clip-rule="evenodd" d="M11.1998 20.6722L8.7053 29.8429L6.04271 27.4635C5.75551 27.2069 5.38059 27.0705 4.99562 27.0828L1.434 27.1958L5.41159 18.5654L11.1998 20.6722ZM11.974 19.8898C12.2183 19.9787 12.3537 20.24 12.2855 20.4909L9.45788 30.8861C9.36032 31.2448 8.91941 31.3754 8.64225 31.1277L5.37637 28.2092C5.28064 28.1236 5.15566 28.0782 5.02734 28.0823L0.657159 28.2209C0.285667 28.2327 0.0316339 27.8495 0.187207 27.5119L4.69604 17.7289C4.80491 17.4926 5.07672 17.3793 5.32114 17.4683L11.974 19.8898Z" fill="#333847"/>
<path d="M11.9127 20.4909C11.8445 20.24 11.9799 19.9787 12.2242 19.8898L18.8771 17.4683C19.1215 17.3793 19.3933 17.4926 19.5022 17.7289L24.011 27.5119C24.1666 27.8495 23.9126 28.2327 23.5411 28.2209L19.1709 28.0823C19.0426 28.0782 18.9176 28.1236 18.8219 28.2092L15.556 31.1277C15.2788 31.3754 14.8379 31.2448 14.7404 30.8861L11.9127 20.4909Z" fill="#8BC34A"/>
<mask id="mask1_1672_15139" style="mask-type:alpha" maskUnits="userSpaceOnUse" x="11" y="17" width="14" height="15">
<path d="M11.9127 20.4909C11.8445 20.24 11.9799 19.9787 12.2242 19.8898L18.8771 17.4683C19.1215 17.3793 19.3933 17.4926 19.5022 17.7289L24.011 27.5119C24.1666 27.8495 23.9126 28.2327 23.5411 28.2209L19.1709 28.0823C19.0426 28.0782 18.9176 28.1236 18.8219 28.2092L15.556 31.1277C15.2788 31.3754 14.8379 31.2448 14.7404 30.8861L11.9127 20.4909Z" fill="#8BC34A"/>
</mask>
<g mask="url(#mask1_1672_15139)">
<path d="M19.5 19L15.9998 21L19 27.5H23.5L19.5 19Z" fill="black" fill-opacity="0.2"/>
</g>
<path fill-rule="evenodd" clip-rule="evenodd" d="M12.9984 20.6722L15.4929 29.8429L18.1555 27.4635C18.4427 27.2069 18.8177 27.0705 19.2026 27.0828L22.7642 27.1958L18.7867 18.5654L12.9984 20.6722ZM12.2242 19.8898C11.9799 19.9787 11.8445 20.24 11.9127 20.4909L14.7404 30.8861C14.8379 31.2448 15.2788 31.3754 15.556 31.1277L18.8219 28.2092C18.9176 28.1236 19.0426 28.0782 19.1709 28.0823L23.5411 28.2209C23.9126 28.2327 24.1666 27.8495 24.011 27.5119L19.5022 17.7289C19.3933 17.4926 19.1215 17.3793 18.8771 17.4683L12.2242 19.8898Z" fill="#333847"/>
<path d="M11.7951 0.405275C12.1949 -0.135092 13.0032 -0.135092 13.403 0.405276L14.683 2.13557C14.96 2.50997 15.4587 2.64361 15.8858 2.45785L17.8595 1.59939C18.4759 1.33129 19.1759 1.73547 19.2519 2.40332L19.4953 4.5418C19.548 5.00453 19.9131 5.36964 20.3758 5.42231L22.5143 5.66569C23.1821 5.7417 23.5863 6.44176 23.3182 7.05814L22.4598 9.03181C22.274 9.45887 22.4076 9.95763 22.782 10.2346L24.5123 11.5146C25.0527 11.9144 25.0527 12.7227 24.5123 13.1225L22.782 14.4025C22.4076 14.6795 22.274 15.1782 22.4598 15.6053L23.3182 17.579C23.5863 18.1953 23.1821 18.8954 22.5143 18.9714L20.3758 19.2148C19.9131 19.2675 19.548 19.6326 19.4953 20.0953L19.2519 22.2338C19.1759 22.9016 18.4759 23.3058 17.8595 23.0377L15.8858 22.1792C15.4587 21.9935 14.96 22.1271 14.683 22.5015L13.403 24.2318C13.0032 24.7722 12.1949 24.7722 11.7951 24.2318L10.5151 22.5015C10.2381 22.1271 9.73939 21.9935 9.31233 22.1792L7.33865 23.0377C6.72228 23.3058 6.02221 22.9016 5.94621 22.2338L5.70282 20.0953C5.65016 19.6326 5.28504 19.2675 4.82232 19.2148L2.68383 18.9714C2.01599 18.8954 1.61181 18.1953 1.8799 17.579L2.73837 15.6053C2.92413 15.1782 2.79048 14.6795 2.41608 14.4025L0.685793 13.1225C0.145425 12.7227 0.145426 11.9144 0.685794 11.5146L2.41608 10.2346C2.79048 9.95763 2.92413 9.45887 2.73837 9.03181L1.8799 7.05814C1.61181 6.44176 2.01599 5.7417 2.68383 5.66569L4.82232 5.42231C5.28504 5.36964 5.65016 5.00453 5.70282 4.5418L5.94621 2.40332C6.02221 1.73547 6.72228 1.33129 7.33865 1.59939L9.31233 2.45785C9.73939 2.64361 10.2381 2.50997 10.5151 2.13557L11.7951 0.405275Z" fill="#AED581"/>
<mask id="mask2_1672_15139" style="mask-type:alpha" maskUnits="userSpaceOnUse" x="0" y="0" width="25" height="25">
<path d="M11.7951 0.405275C12.1949 -0.135092 13.0032 -0.135092 13.403 0.405276L14.683 2.13557C14.96 2.50997 15.4587 2.64361 15.8858 2.45785L17.8595 1.59939C18.4759 1.33129 19.1759 1.73547 19.2519 2.40332L19.4953 4.5418C19.548 5.00453 19.9131 5.36964 20.3758 5.42231L22.5143 5.66569C23.1821 5.7417 23.5863 6.44176 23.3182 7.05814L22.4598 9.03181C22.274 9.45887 22.4076 9.95763 22.782 10.2346L24.5123 11.5146C25.0527 11.9144 25.0527 12.7227 24.5123 13.1225L22.782 14.4025C22.4076 14.6795 22.274 15.1782 22.4598 15.6053L23.3182 17.579C23.5863 18.1953 23.1821 18.8954 22.5143 18.9714L20.3758 19.2148C19.9131 19.2675 19.548 19.6326 19.4953 20.0953L19.2519 22.2338C19.1759 22.9016 18.4759 23.3058 17.8595 23.0377L15.8858 22.1792C15.4587 21.9935 14.96 22.1271 14.683 22.5015L13.403 24.2318C13.0032 24.7722 12.1949 24.7722 11.7951 24.2318L10.5151 22.5015C10.2381 22.1271 9.73939 21.9935 9.31233 22.1792L7.33865 23.0377C6.72228 23.3058 6.02221 22.9016 5.94621 22.2338L5.70282 20.0953C5.65016 19.6326 5.28504 19.2675 4.82232 19.2148L2.68383 18.9714C2.01599 18.8954 1.61181 18.1953 1.8799 17.579L2.73837 15.6053C2.92413 15.1782 2.79048 14.6795 2.41608 14.4025L0.685793 13.1225C0.145425 12.7227 0.145426 11.9144 0.685794 11.5146L2.41608 10.2346C2.79048 9.95763 2.92413 9.45887 2.73837 9.03181L1.8799 7.05814C1.61181 6.44176 2.01599 5.7417 2.68383 5.66569L4.82232 5.42231C5.28504 5.36964 5.65016 5.00453 5.70282 4.5418L5.94621 2.40332C6.02221 1.73547 6.72228 1.33129 7.33865 1.59939L9.31233 2.45785C9.73939 2.64361 10.2381 2.50997 10.5151 2.13557L11.7951 0.405275Z" fill="#AED581"/>
</mask>
<g mask="url(#mask2_1672_15139)">
<path d="M0.5 12.5L4 4L10 0.5L12 13L0.5 12.5Z" fill="white" fill-opacity="0.4"/>
<path d="M13 23.5001V13L24 16L18.6667 22.5001L13 23.5001Z" fill="black" fill-opacity="0.2"/>
</g>
<path fill-rule="evenodd" clip-rule="evenodd" d="M13.8791 2.73029L12.5991 1L11.319 2.73029C10.7651 3.47909 9.76759 3.74637 8.91346 3.37486L6.93979 2.5164L6.69641 4.65488C6.59108 5.58033 5.86085 6.31056 4.9354 6.41589L2.79692 6.65927L3.65538 8.63295C4.02689 9.48707 3.75961 10.4846 3.01081 11.0385L1.28052 12.3185L3.01081 13.5986C3.75961 14.1525 4.02689 15.15 3.65538 16.0041L2.79692 17.9778L4.9354 18.2212C5.86085 18.3265 6.59108 19.0568 6.69641 19.9822L6.93979 22.1207L8.91346 21.2622C9.76759 20.8907 10.7651 21.158 11.319 21.9068L12.5991 23.6371L13.8791 21.9068C14.433 21.158 15.4305 20.8907 16.2847 21.2622L18.2583 22.1207L18.5017 19.9822C18.607 19.0568 19.3373 18.3265 20.2627 18.2212L22.4012 17.9778L21.5428 16.0042C21.1712 15.15 21.4385 14.1525 22.1873 13.5986L23.9176 12.3185L22.1873 11.0385C21.4385 10.4846 21.1712 9.48707 21.5427 8.63295L22.4012 6.65927L20.2627 6.41589C19.3373 6.31056 18.6071 5.58033 18.5017 4.65488L18.2583 2.5164L16.2847 3.37486C15.4305 3.74637 14.433 3.47909 13.8791 2.73029ZM13.403 0.405276C13.0032 -0.135092 12.1949 -0.135092 11.7951 0.405275L10.5151 2.13557C10.2381 2.50997 9.73939 2.64361 9.31233 2.45785L7.33865 1.59939C6.72228 1.33129 6.02221 1.73547 5.94621 2.40332L5.70282 4.5418C5.65016 5.00453 5.28504 5.36964 4.82232 5.42231L2.68383 5.66569C2.01599 5.7417 1.61181 6.44176 1.8799 7.05814L2.73837 9.03181C2.92412 9.45887 2.79048 9.95763 2.41608 10.2346L0.685794 11.5146C0.145426 11.9144 0.145425 12.7227 0.685793 13.1225L2.41608 14.4025C2.79048 14.6795 2.92413 15.1782 2.73837 15.6053L1.8799 17.579C1.61181 18.1953 2.01599 18.8954 2.68383 18.9714L4.82232 19.2148C5.28504 19.2675 5.65016 19.6326 5.70282 20.0953L5.94621 22.2338C6.02221 22.9016 6.72228 23.3058 7.33865 23.0377L9.31233 22.1792C9.73939 21.9935 10.2381 22.1271 10.5151 22.5015L11.7951 24.2318C12.1949 24.7722 13.0032 24.7722 13.403 24.2318L14.683 22.5015C14.96 22.1271 15.4587 21.9935 15.8858 22.1792L17.8595 23.0377C18.4759 23.3058 19.1759 22.9016 19.2519 22.2338L19.4953 20.0953C19.548 19.6326 19.9131 19.2675 20.3758 19.2148L22.5143 18.9714C23.1821 18.8954 23.5863 18.1953 23.3182 17.579L22.4598 15.6053C22.274 15.1782 22.4076 14.6795 22.782 14.4025L24.5123 13.1225C25.0527 12.7227 25.0527 11.9144 24.5123 11.5146L22.782 10.2346C22.4076 9.95763 22.274 9.45887 22.4598 9.03181L23.3182 7.05814C23.5863 6.44176 23.1821 5.7417 22.5143 5.66569L20.3758 5.42231C19.9131 5.36964 19.548 5.00453 19.4953 4.5418L19.2519 2.40332C19.1759 1.73547 18.4759 1.33129 17.8595 1.59939L15.8858 2.45785C15.4587 2.64361 14.96 2.50997 14.683 2.13557L13.403 0.405276Z" fill="#333847"/>
<path d="M19.5991 12.3186C19.5991 16.1846 16.4651 19.3186 12.5991 19.3186C8.73313 19.3186 5.59912 16.1846 5.59912 12.3186C5.59912 8.45261 8.73313 5.3186 12.5991 5.3186C16.4651 5.3186 19.5991 8.45261 19.5991 12.3186Z" fill="#DABF2F"/>
<mask id="mask3_1672_15139" style="mask-type:alpha" maskUnits="userSpaceOnUse" x="5" y="5" width="15" height="15">
<path d="M19.5991 12.3186C19.5991 16.1846 16.4651 19.3186 12.5991 19.3186C8.73313 19.3186 5.59912 16.1846 5.59912 12.3186C5.59912 8.45261 8.73313 5.3186 12.5991 5.3186C16.4651 5.3186 19.5991 8.45261 19.5991 12.3186Z" fill="#F5D83A"/>
</mask>
<g mask="url(#mask3_1672_15139)">
<circle cx="9" cy="10" r="8" fill="#F5D83A"/>
</g>
<path fill-rule="evenodd" clip-rule="evenodd" d="M12.5991 18.8186C16.189 18.8186 19.0991 15.9085 19.0991 12.3186C19.0991 8.72875 16.189 5.8186 12.5991 5.8186C9.00927 5.8186 6.09912 8.72875 6.09912 12.3186C6.09912 15.9085 9.00927 18.8186 12.5991 18.8186ZM12.5991 19.3186C16.4651 19.3186 19.5991 16.1846 19.5991 12.3186C19.5991 8.45261 16.4651 5.3186 12.5991 5.3186C8.73313 5.3186 5.59912 8.45261 5.59912 12.3186C5.59912 16.1846 8.73313 19.3186 12.5991 19.3186Z" fill="#333847"/>
</svg>
