<svg viewBox="0 0 32 32" fill="none" xmlns="http://www.w3.org/2000/svg">
<path d="M14.184 0.943845C15.0945 -0.314614 16.9055 -0.314616 17.816 0.943843L22.3239 7.17442C22.5962 7.55077 22.9696 7.834 23.3967 7.98802L30.4664 10.5379C31.8944 11.0529 32.454 12.8507 31.5888 14.1435L27.305 20.5441C27.0463 20.9307 26.9036 21.389 26.8953 21.8605L26.7567 29.667C26.7288 31.2438 25.2637 32.3549 23.8184 31.8954L16.663 29.6206C16.2308 29.4832 15.7692 29.4832 15.337 29.6206L8.18158 31.8954C6.73633 32.3549 5.27124 31.2438 5.24326 29.667L5.10472 21.8605C5.09635 21.389 4.95371 20.9307 4.69495 20.5441L0.411212 14.1435C-0.454022 12.8507 0.105588 11.0529 1.53355 10.5379L8.60333 7.98802C9.03037 7.834 9.40382 7.55077 9.67612 7.17442L14.184 0.943845Z" fill="#FDE047"/>
<path fill-rule="evenodd" clip-rule="evenodd" d="M21.5137 7.7606L17.0058 1.53002C16.4945 0.823327 15.5055 0.823326 14.9942 1.53002L10.4863 7.7606C10.0991 8.29572 9.56329 8.70484 8.94261 8.92871L1.87283 11.4786C1.08802 11.7616 0.719608 12.8064 1.24226 13.5873L5.526 19.9879C5.89309 20.5364 6.09284 21.1821 6.10456 21.8428L6.2431 29.6493C6.26026 30.616 7.12641 31.1816 7.87861 30.9424L15.034 28.6676C15.6633 28.4676 16.3367 28.4676 16.966 28.6676L24.1214 30.9424C24.8736 31.1816 25.7397 30.616 25.7569 29.6493L25.8954 21.8428C25.9072 21.1821 26.1069 20.5364 26.474 19.9879L30.7577 13.5873C31.2804 12.8064 30.912 11.7616 30.1272 11.4786L23.0574 8.92871C22.4367 8.70484 21.9009 8.29572 21.5137 7.7606ZM17.816 0.943843C16.9055 -0.314615 15.0945 -0.314614 14.184 0.943845L9.67612 7.17442C9.40382 7.55077 9.03037 7.834 8.60333 7.98802L1.53355 10.5379C0.105588 11.0529 -0.454022 12.8507 0.411212 14.1435L4.69495 20.5441C4.95371 20.9307 5.09635 21.389 5.10472 21.8605L5.24326 29.667C5.27124 31.2438 6.73633 32.3549 8.18158 31.8954L15.337 29.6206C15.7692 29.4832 16.2308 29.4832 16.663 29.6206L23.8184 31.8954C25.2637 32.3549 26.7288 31.2438 26.7567 29.667L26.8953 21.8605C26.9036 21.389 27.0463 20.9307 27.305 20.5441L31.5888 14.1435C32.454 12.8507 31.8944 11.0529 30.4664 10.5379L23.3967 7.98802C22.9696 7.834 22.5962 7.55077 22.3239 7.17442L17.816 0.943843Z" fill="black"/>
</svg>
