<svg width="32" height="32" viewBox="0 0 32 32" fill="none" xmlns="http://www.w3.org/2000/svg">
<path d="M13.4019 4.5C14.5566 2.5 17.4433 2.5 18.598 4.5L27.2583 19.5C28.413 21.5 26.9696 24 24.6602 24H7.33968C5.03028 24 3.5869 21.5 4.74161 19.5L13.4019 4.5Z" fill="url(#paint0_linear_1868_23733)"/>
<path fill-rule="evenodd" clip-rule="evenodd" d="M19.4641 4L28.1243 19C29.6639 21.6667 27.7394 25 24.6602 25H7.3397C4.2605 25 2.33601 21.6667 3.87561 19L12.5359 4C14.0755 1.33333 17.9245 1.33334 19.4641 4ZM18.598 4.5C17.4433 2.5 14.5566 2.5 13.4019 4.5L4.74163 19.5C3.58693 21.5 5.0303 24 7.3397 24H24.6602C26.9696 24 28.413 21.5 27.2583 19.5L18.598 4.5Z" fill="#333847"/>
<mask id="mask0_1868_23733" style="mask-type:alpha" maskUnits="userSpaceOnUse" x="4" y="3" width="24" height="21">
<path d="M13.4019 4.5C14.5566 2.5 17.4433 2.5 18.598 4.5L27.2583 19.5C28.413 21.5 26.9696 24 24.6602 24H7.33968C5.03028 24 3.5869 21.5 4.74161 19.5L13.4019 4.5Z" fill="#F7E172"/>
</mask>
<g mask="url(#mask0_1868_23733)">
<path d="M2.47827 8L4 10.5L14 24.5H8L2.47827 8Z" fill="white" fill-opacity="0.4"/>
</g>
<path d="M17.5188 9.71997C17.5188 10.0533 17.5121 10.5 17.4988 11.06C17.4855 11.6066 17.4588 12.2133 17.4188 12.88C17.3921 13.5466 17.3521 14.2066 17.2988 14.86C17.2455 15.5 17.1788 16.08 17.0988 16.6C17.0055 16.68 16.8388 16.7466 16.5988 16.8C16.3588 16.84 16.1521 16.86 15.9788 16.86C15.6588 16.86 15.3788 16.8066 15.1388 16.7C14.9121 16.58 14.7721 16.3733 14.7188 16.08C14.6655 15.7466 14.6121 15.2866 14.5588 14.7C14.5188 14.1 14.4788 13.44 14.4388 12.72C14.4121 12 14.3921 11.2933 14.3788 10.6C14.3655 9.90663 14.3588 9.29997 14.3588 8.77997C14.8521 8.48663 15.4121 8.33997 16.0388 8.33997C16.5055 8.33997 16.8655 8.4533 17.1188 8.67997C17.3855 8.90663 17.5188 9.2533 17.5188 9.71997ZM14.2588 19.62C14.2588 19.14 14.4121 18.74 14.7188 18.42C15.0388 18.1 15.4655 17.94 15.9988 17.94C16.5188 17.94 16.9321 18.1 17.2388 18.42C17.5588 18.74 17.7188 19.14 17.7188 19.62C17.7188 20.1133 17.5588 20.52 17.2388 20.84C16.9321 21.16 16.5188 21.32 15.9988 21.32C15.4655 21.32 15.0388 21.16 14.7188 20.84C14.4121 20.52 14.2588 20.1133 14.2588 19.62Z" fill="#FAF9FD"/>
<path fill-rule="evenodd" clip-rule="evenodd" d="M18.4985 11.0838L18.4985 11.0843C18.4849 11.6424 18.4578 12.2578 18.4176 12.9299C18.3904 13.6068 18.3497 14.2772 18.2955 14.9413L18.2953 14.943C18.2405 15.6013 18.1714 16.2048 18.0872 16.752L18.0308 17.1181L17.7496 17.3592C17.7139 17.3898 17.677 17.4183 17.6391 17.4448C17.7491 17.526 17.8541 17.6176 17.9534 17.7203C18.4681 18.239 18.7188 18.8961 18.7188 19.62C18.7188 20.3487 18.4736 21.0154 17.9533 21.5396C17.4263 22.0851 16.7367 22.32 15.9988 22.32C15.2512 22.32 14.5524 22.0878 14.0117 21.5471L14.0042 21.5396L13.9968 21.5319C13.4909 21.004 13.2588 20.3394 13.2588 19.62C13.2588 18.9056 13.4961 18.2505 13.9968 17.7281L14.0042 17.7204L14.0117 17.7129C14.1306 17.594 14.2571 17.49 14.3901 17.4001C14.0235 17.1073 13.8146 16.6971 13.7349 16.2589L13.733 16.2484L13.7313 16.238C13.6728 15.8717 13.617 15.3858 13.5629 14.7905L13.5618 14.7785L13.561 14.7665C13.5207 14.1622 13.4805 13.4984 13.4403 12.7754L13.4398 12.7662L13.4395 12.757C13.4126 12.0313 13.3924 11.3187 13.379 10.6192C13.3656 9.92141 13.3588 9.30808 13.3588 8.77997V8.21114L13.8477 7.92043C14.5097 7.52682 15.2493 7.33997 16.0388 7.33997C16.6553 7.33997 17.2822 7.48954 17.7762 7.92634C18.3274 8.40075 18.5188 9.06751 18.5188 9.71997C18.5188 10.0648 18.5119 10.5204 18.4985 11.0838ZM17.1188 8.67997C16.8655 8.4533 16.5055 8.33997 16.0388 8.33997C15.4121 8.33997 14.8521 8.48663 14.3588 8.77997C14.3588 9.29997 14.3655 9.90663 14.3788 10.6C14.3921 11.2933 14.4121 12 14.4388 12.72C14.4788 13.44 14.5188 14.1 14.5588 14.7C14.6121 15.2866 14.6655 15.7466 14.7188 16.08C14.7721 16.3733 14.9121 16.58 15.1388 16.7C15.3788 16.8066 15.6588 16.86 15.9788 16.86C16.1521 16.86 16.3588 16.84 16.5988 16.8C16.8388 16.7466 17.0055 16.68 17.0988 16.6C17.1788 16.08 17.2455 15.5 17.2988 14.86C17.3521 14.2066 17.3921 13.5466 17.4188 12.88C17.4588 12.2133 17.4855 11.6066 17.4988 11.06C17.5121 10.5 17.5188 10.0533 17.5188 9.71997C17.5188 9.2533 17.3855 8.90663 17.1188 8.67997ZM17.2388 20.84C17.5588 20.52 17.7188 20.1133 17.7188 19.62C17.7188 19.14 17.5588 18.74 17.2388 18.42C16.9321 18.1 16.5188 17.94 15.9988 17.94C15.4655 17.94 15.0388 18.1 14.7188 18.42C14.4121 18.74 14.2588 19.14 14.2588 19.62C14.2588 20.1133 14.4121 20.52 14.7188 20.84C15.0388 21.16 15.4655 21.32 15.9988 21.32C16.5188 21.32 16.9321 21.16 17.2388 20.84Z" fill="#333847"/>
<defs>
<linearGradient id="paint0_linear_1868_23733" x1="15.9999" y1="3" x2="15.9999" y2="24" gradientUnits="userSpaceOnUse">
<stop stop-color="#F7E172"/>
<stop offset="1" stop-color="#F5D83A"/>
</linearGradient>
</defs>
</svg>
